<svg width="23" height="23" viewBox="0 0 23 23" fill="none" xmlns="http://www.w3.org/2000/svg">
<path d="M5.2688 22.9766H0.596797V7.93064H5.2688V22.9766ZM2.9308 5.87864C2.393 5.88121 1.86651 5.72423 1.41793 5.42756C0.969355 5.13089 0.618832 4.70785 0.410697 4.21195C0.202562 3.71605 0.146163 3.16956 0.248635 2.64161C0.351107 2.11365 0.607845 1.62794 0.98638 1.24591C1.36491 0.86388 1.84824 0.602686 2.37523 0.495364C2.90222 0.388041 3.4492 0.439412 3.947 0.642978C4.44479 0.846544 4.87103 1.19316 5.17182 1.63899C5.4726 2.08482 5.63442 2.60984 5.6368 3.14764C5.63735 3.8678 5.35322 4.55898 4.84634 5.07054C4.33946 5.5821 3.65093 5.87257 2.9308 5.87864V5.87864ZM22.7558 22.9786H18.0938V15.6526C18.0938 13.9066 18.0588 11.6686 15.6648 11.6686C13.2358 11.6686 12.8648 13.5686 12.8648 15.5266V22.9766H8.1958V7.93064H12.6768V9.98364H12.7418C13.1898 9.21645 13.8377 8.58524 14.6163 8.15729C15.3948 7.72934 16.275 7.52071 17.1628 7.55364C21.8918 7.55364 22.7628 10.6676 22.7628 14.7116V22.9766L22.7558 22.9786Z" fill="#334155"/>
</svg>
