<svg width="23" height="24" viewBox="0 0 23 24" fill="none" xmlns="http://www.w3.org/2000/svg">
<path d="M5.2688 23.265H0.596797V8.21897H5.2688V23.265ZM2.9308 6.16697C2.393 6.16954 1.86651 6.01256 1.41793 5.71589C0.969355 5.41922 0.618832 4.99618 0.410697 4.50028C0.202562 4.00438 0.146163 3.45789 0.248635 2.92994C0.351107 2.40198 0.607845 1.91627 0.98638 1.53424C1.36491 1.15221 1.84824 0.891016 2.37523 0.783694C2.90222 0.676371 3.4492 0.727742 3.947 0.931308C4.44479 1.13487 4.87103 1.48149 5.17182 1.92732C5.4726 2.37315 5.63442 2.89817 5.6368 3.43597C5.63735 4.15613 5.35322 4.84731 4.84634 5.35887C4.33946 5.87043 3.65093 6.1609 2.9308 6.16697V6.16697ZM22.7558 23.267H18.0938V15.941C18.0938 14.195 18.0588 11.957 15.6648 11.957C13.2358 11.957 12.8648 13.857 12.8648 15.815V23.265H8.1958V8.21897H12.6768V10.272H12.7418C13.1898 9.50478 13.8377 8.87357 14.6163 8.44562C15.3948 8.01767 16.275 7.80904 17.1628 7.84197C21.8918 7.84197 22.7628 10.956 22.7628 15V23.265L22.7558 23.267Z" fill="white"/>
</svg>
