<svg width="23" height="19" viewBox="0 0 23 19" fill="none" xmlns="http://www.w3.org/2000/svg">
<path d="M19.9518 5.41402C19.9658 5.60802 19.9658 5.80202 19.9658 5.99702C19.9774 7.67434 19.6555 9.33723 19.019 10.8891C18.3824 12.441 17.4439 13.8509 16.2578 15.037C15.0717 16.2231 13.6618 17.1616 12.1099 17.7982C10.558 18.4347 8.89514 18.7566 7.21782 18.745C4.77832 18.7515 2.38888 18.0532 0.336823 16.734C0.696108 16.7734 1.05739 16.7918 1.41882 16.789C3.43554 16.7942 5.39523 16.12 6.98182 14.875C6.0468 14.8581 5.14041 14.5496 4.38922 13.9926C3.63804 13.4355 3.07958 12.6578 2.79182 11.768C3.07169 11.8122 3.35449 11.8353 3.63782 11.837C4.03569 11.8357 4.4318 11.7843 4.81682 11.684C3.80172 11.4788 2.88905 10.9283 2.23401 10.1261C1.57897 9.32395 1.222 8.31965 1.22382 7.28402V7.23102C1.84458 7.57753 2.53843 7.7725 3.24882 7.80002C2.29811 7.16563 1.62531 6.19236 1.36774 5.07883C1.11018 3.9653 1.28725 2.79544 1.86282 1.80802C2.98827 3.19336 4.39233 4.32667 5.98396 5.13446C7.57559 5.94225 9.31924 6.40647 11.1018 6.49702C11.0299 6.15937 10.9927 5.81524 10.9908 5.47002C10.9926 4.57175 11.264 3.69471 11.7699 2.95248C12.2759 2.21026 12.993 1.63706 13.8285 1.30713C14.664 0.977204 15.5793 0.905756 16.4558 1.10204C17.3324 1.29832 18.1298 1.75329 18.7448 2.40802C19.7483 2.2148 20.7106 1.84869 21.5888 1.32602C21.2546 2.36138 20.5541 3.23925 19.6188 3.79502C20.5086 3.69358 21.3782 3.45966 22.1988 3.10102C21.5855 3.99424 20.8258 4.77757 19.9518 5.41802V5.41402Z" fill="white"/>
</svg>
