<svg width="23" height="19" viewBox="0 0 23 19" fill="none" xmlns="http://www.w3.org/2000/svg">
<path d="M19.9518 5.12569C19.9658 5.31969 19.9658 5.51369 19.9658 5.70869C19.9774 7.38601 19.6555 9.0489 19.019 10.6008C18.3824 12.1527 17.4439 13.5626 16.2578 14.7487C15.0717 15.9347 13.6618 16.8733 12.1099 17.5099C10.558 18.1464 8.89514 18.4683 7.21782 18.4567C4.77832 18.4632 2.38888 17.7649 0.336823 16.4457C0.696108 16.4851 1.05739 16.5035 1.41882 16.5007C3.43554 16.5059 5.39523 15.8316 6.98182 14.5867C6.0468 14.5698 5.14041 14.2613 4.38922 13.7042C3.63804 13.1472 3.07958 12.3695 2.79182 11.4797C3.07169 11.5239 3.35449 11.5469 3.63782 11.5487C4.03569 11.5474 4.4318 11.496 4.81682 11.3957C3.80172 11.1905 2.88905 10.6399 2.23401 9.83778C1.57897 9.03562 1.222 8.03132 1.22382 6.99569V6.94269C1.84458 7.2892 2.53843 7.48417 3.24882 7.51169C2.29811 6.8773 1.62531 5.90403 1.36774 4.7905C1.11018 3.67697 1.28725 2.50711 1.86282 1.51969C2.98827 2.90503 4.39233 4.03834 5.98396 4.84613C7.57559 5.65392 9.31924 6.11814 11.1018 6.20869C11.0299 5.87104 10.9927 5.52691 10.9908 5.18169C10.9926 4.28342 11.264 3.40638 11.7699 2.66415C12.2759 1.92193 12.993 1.34873 13.8285 1.0188C14.664 0.688874 15.5793 0.617426 16.4558 0.813709C17.3324 1.00999 18.1298 1.46496 18.7448 2.11969C19.7483 1.92647 20.7106 1.56036 21.5888 1.03769C21.2546 2.07305 20.5541 2.95092 19.6188 3.50669C20.5086 3.40525 21.3782 3.17133 22.1988 2.81269C21.5855 3.70591 20.8258 4.48924 19.9518 5.12969V5.12569Z" fill="#334155"/>
</svg>
