<svg width="94" height="104" viewBox="0 0 94 104" fill="none" xmlns="http://www.w3.org/2000/svg">
<path d="M85.4818 26.5342C84.5652 26.534 83.6691 26.8056 82.9069 27.3147C82.1447 27.8239 81.5506 28.5476 81.1997 29.3944C80.8489 30.2412 80.757 31.173 80.9358 32.072C81.1146 32.971 81.5559 33.7968 82.2041 34.4449C82.8522 35.0931 83.678 35.5344 84.577 35.7132C85.476 35.892 86.4078 35.8001 87.2546 35.4492C88.1014 35.0984 88.8251 34.5043 89.3343 33.7421C89.8434 32.9799 90.115 32.0838 90.1148 31.1672C90.1145 29.9385 89.6263 28.7602 88.7575 27.8914C87.8887 27.0227 86.7105 26.5344 85.4818 26.5342V26.5342ZM85.4818 33.2882C85.0625 33.2882 84.6527 33.1638 84.304 32.9309C83.9554 32.6979 83.6837 32.3669 83.5232 31.9795C83.3627 31.5921 83.3208 31.1658 83.4026 30.7546C83.4844 30.3434 83.6863 29.9656 83.9828 29.6691C84.2792 29.3726 84.657 29.1707 85.0682 29.0889C85.4795 29.0071 85.9057 29.0491 86.2931 29.2096C86.6805 29.37 87.0116 29.6417 87.2445 29.9904C87.4775 30.339 87.6018 30.7489 87.6018 31.1682C87.6018 31.7304 87.3784 32.2697 86.9809 32.6673C86.5833 33.0648 86.0441 33.2882 85.4818 33.2882V33.2882Z" fill="#F8FAFC"/>
<path d="M31.6339 15.1853C32.7134 15.1857 33.7689 14.8659 34.6667 14.2664C35.5645 13.6669 36.2644 12.8146 36.6778 11.8174C37.0912 10.8201 37.1996 9.72259 36.9892 8.66371C36.7789 7.60483 36.2592 6.63212 35.496 5.86861C34.7327 5.10509 33.7602 4.58507 32.7014 4.37431C31.6426 4.16355 30.5451 4.27152 29.5476 4.68456C28.5502 5.09761 27.6977 5.79717 27.0978 6.69478C26.498 7.59239 26.1779 8.64771 26.1779 9.72729C26.1779 11.1745 26.7526 12.5625 27.7758 13.586C28.7989 14.6095 30.1867 15.1848 31.6339 15.1853V15.1853ZM31.6339 6.78529C32.2164 6.78489 32.786 6.95728 33.2706 7.28064C33.7551 7.604 34.1329 8.06381 34.3561 8.6019C34.5793 9.13999 34.6379 9.7322 34.5245 10.3036C34.4111 10.875 34.1308 11.3999 33.719 11.812C33.3072 12.2241 32.7825 12.5048 32.2111 12.6186C31.6398 12.7323 31.0476 12.6741 30.5093 12.4513C29.9711 12.2285 29.511 11.851 29.1873 11.3667C28.8636 10.8823 28.6909 10.3128 28.6909 9.73029C28.6903 9.34338 28.7661 8.96016 28.9137 8.60252C29.0613 8.24489 29.278 7.91985 29.5513 7.64598C29.8246 7.37212 30.1492 7.15479 30.5065 7.00642C30.8639 6.85805 31.247 6.78155 31.6339 6.78129V6.78529Z" fill="#F8FAFC"/>
<path d="M52.7288 46.9053C52.7284 45.8263 52.4081 44.7717 51.8084 43.8748C51.2087 42.9778 50.3565 42.2788 49.3595 41.8661C48.3626 41.4535 47.2657 41.3456 46.2075 41.5563C45.1493 41.767 44.1773 42.2867 43.4145 43.0497C42.6516 43.8127 42.1321 44.7848 41.9216 45.843C41.7111 46.9012 41.8191 47.9981 42.232 48.995C42.6449 49.9918 43.344 50.8439 44.2411 51.4434C45.1381 52.043 46.1928 52.3631 47.2718 52.3633C47.9885 52.3634 48.6983 52.2223 49.3605 51.9481C50.0227 51.6738 50.6243 51.2718 51.1311 50.7649C51.6379 50.258 52.0398 49.6563 52.3139 48.9941C52.5881 48.3318 52.729 47.622 52.7288 46.9053V46.9053ZM47.2728 49.8503C46.6904 49.8501 46.1211 49.6772 45.6369 49.3535C45.1527 49.0298 44.7754 48.5697 44.5527 48.0316C44.3299 47.4935 44.2717 46.9013 44.3855 46.3301C44.4992 45.7589 44.7798 45.2343 45.1917 44.8225C45.6036 44.4107 46.1284 44.1303 46.6996 44.0168C47.2708 43.9032 47.8629 43.9616 48.401 44.1846C48.9391 44.4075 49.399 44.785 49.7225 45.2692C50.0461 45.7535 50.2188 46.3229 50.2188 46.9053C50.2188 47.686 49.9088 48.4348 49.3569 48.987C48.8051 49.5392 48.0565 49.8498 47.2758 49.8503H47.2728Z" fill="#F8FAFC"/>
<path d="M11.2479 32.2373C12.3274 32.2377 13.3829 31.9179 14.2807 31.3184C15.1785 30.7189 15.8784 29.8666 16.2918 28.8694C16.7052 27.8721 16.8136 26.7746 16.6032 25.7157C16.3929 24.6568 15.8732 23.6841 15.11 22.9206C14.3467 22.1571 13.3742 21.6371 12.3154 21.4263C11.2566 21.2156 10.1591 21.3235 9.16165 21.7366C8.16421 22.1496 7.31167 22.8492 6.71185 23.7468C6.11203 24.6444 5.79187 25.6997 5.79187 26.7793C5.79187 28.2265 6.36663 29.6145 7.38977 30.638C8.41292 31.6615 9.80066 32.2368 11.2479 32.2373V32.2373ZM11.2479 23.8373C11.8304 23.8369 12.4 24.0093 12.8846 24.3326C13.3691 24.656 13.7469 25.1158 13.9701 25.6539C14.1933 26.192 14.2519 26.7842 14.1385 27.3556C14.0251 27.927 13.7448 28.452 13.333 28.864C12.9212 29.2761 12.3965 29.5568 11.8251 29.6706C11.2538 29.7844 10.6616 29.7261 10.1233 29.5033C9.58509 29.2805 9.12502 28.903 8.80133 28.4187C8.47764 27.9343 8.30487 27.3648 8.30487 26.7823C8.30435 26.3954 8.38007 26.0122 8.52771 25.6545C8.67535 25.2969 8.89201 24.9719 9.16532 24.698C9.43863 24.4241 9.76322 24.2068 10.1206 24.0584C10.4779 23.9101 10.861 23.8336 11.2479 23.8333V23.8373Z" fill="#F8FAFC"/>
<path d="M93.4068 30.8592C93.2964 28.8791 92.4388 27.0146 91.0073 25.6421C89.5758 24.2696 87.6768 23.4913 85.6938 23.4642C83.8195 23.4684 82.0128 24.165 80.6208 25.4202C76.2555 21.2284 71.1975 17.8238 65.6708 15.3572C59.5902 12.5211 52.9795 11 46.2708 10.8932C44.5497 10.909 42.8307 11.0159 41.1208 11.2132C41.2066 10.6005 41.2294 9.98061 41.1888 9.36324C41.0677 6.98156 40.0363 4.73742 38.3078 3.09452C36.5792 1.45162 34.2856 0.535522 31.9008 0.535522C29.5161 0.535522 27.2225 1.45162 25.4939 3.09452C23.7653 4.73742 22.7339 6.98156 22.6128 9.36324C22.4964 11.6501 23.1857 13.9053 24.5608 15.7362L24.8198 16.0832C22.5205 17.3843 20.3052 18.8285 18.1868 20.4072C17.3308 19.4947 16.2973 18.7668 15.1498 18.2681C14.0023 17.7694 12.765 17.5105 11.5138 17.5072C9.12509 17.541 6.83809 18.4796 5.1143 20.1336C3.39051 21.7876 2.35826 24.0339 2.22583 26.4192C2.10958 28.706 2.7989 30.9612 4.17383 32.7922L5.67383 34.7922C2.09166 41.7251 0.154579 49.3899 0.0128291 57.1922C-0.0154986 63.2847 1.16003 69.3227 3.47189 74.9596C5.78375 80.5964 9.18641 85.721 13.4844 90.0391C17.7825 94.3572 22.8912 97.7836 28.5173 100.122C34.1433 102.46 40.1758 103.663 46.2683 103.663C52.3609 103.663 58.3934 102.46 64.0194 100.122C69.6454 97.7836 74.7542 94.3572 79.0522 90.0391C83.3503 85.721 86.7529 80.5964 89.0648 74.9596C91.3766 69.3227 92.5522 63.2847 92.5238 57.1922C92.3584 51.087 91.3391 45.0349 89.4958 39.2122L91.7908 36.1442C92.9444 34.6326 93.5177 32.7575 93.4068 30.8592V30.8592ZM25.1128 9.52523C25.1694 7.76464 25.9086 6.09509 27.174 4.86969C28.4394 3.64428 30.1318 2.95912 31.8933 2.95912C33.6548 2.95912 35.3473 3.64428 36.6127 4.86969C37.8781 6.09509 38.6173 7.76464 38.6738 9.52523C38.7671 11.2152 38.2516 12.8827 37.2208 14.2252L31.8928 21.3512L26.5738 14.2372C25.5519 12.8852 25.0351 11.2183 25.1128 9.52523V9.52523ZM4.73183 26.5762C4.78841 24.8156 5.52757 23.1461 6.79298 21.9207C8.05839 20.6953 9.75083 20.0101 11.5123 20.0101C13.2738 20.0101 14.9663 20.6953 16.2317 21.9207C17.4971 23.1461 18.2363 24.8156 18.2928 26.5762C18.3864 28.2663 17.8709 29.9339 16.8398 31.2762L11.5128 38.4062L6.19283 31.2922C5.16965 29.9392 4.6524 28.2707 4.73083 26.5762H4.73183ZM7.35483 37.0422L10.5068 41.2572C10.6239 41.4137 10.7758 41.5407 10.9505 41.6282C11.1252 41.7157 11.3179 41.7612 11.5133 41.7612C11.7087 41.7612 11.9014 41.7157 12.0761 41.6282C12.2509 41.5407 12.4028 41.4137 12.5198 41.2572L18.8528 32.7862C19.9742 31.3248 20.6473 29.5694 20.7905 27.7329C20.9338 25.8964 20.541 24.0579 19.6598 22.4402C21.7886 20.8526 24.0197 19.4071 26.3388 18.1132L30.8938 24.2052C31.0109 24.3617 31.1628 24.4887 31.3375 24.5762C31.5122 24.6637 31.7049 24.7092 31.9003 24.7092C32.0957 24.7092 32.2884 24.6637 32.4631 24.5762C32.6379 24.4887 32.7898 24.3617 32.9068 24.2052L39.2398 15.7342C39.6823 15.1439 40.0586 14.5068 40.3618 13.8342C40.8838 13.7672 41.4058 13.7052 41.9198 13.6532L47.1978 21.2672C47.8092 22.1455 48.1243 23.196 48.0973 24.2658C48.0703 25.3356 47.7027 26.3689 47.0478 27.2152L45.5558 29.1482C45.1919 29.6184 44.7118 29.9855 44.1627 30.2135C43.6137 30.4415 43.0147 30.5224 42.4248 30.4482L40.7338 30.2322C39.5423 30.0794 38.3321 30.2802 37.2537 30.8097C36.1754 31.3391 35.2765 32.1739 34.6688 33.2102C34.3265 33.7939 33.8203 34.2642 33.213 34.5627C32.6057 34.8612 31.9241 34.9748 31.2528 34.8892L27.3528 34.3892C26.1832 34.2375 24.9944 34.4154 23.9203 34.9029C22.8463 35.3903 21.9297 36.168 21.2738 37.1482C20.6585 38.0557 20.3213 39.123 20.3035 40.2193C20.2858 41.3156 20.5882 42.3933 21.1738 43.3202L23.7528 47.3972C24.2282 48.1441 24.8845 48.7587 25.6609 49.1841C26.4373 49.6094 27.3086 49.8317 28.1938 49.8302C29.0516 49.8309 29.8961 49.6189 30.6518 49.2132L33.3128 47.7872C34.0891 47.446 34.9257 47.2634 35.7736 47.2502C36.6214 47.2369 37.4633 47.3934 38.2498 47.7102C38.3951 49.5922 39.0694 51.3949 40.1948 52.9102L46.5288 61.3842C46.6459 61.5407 46.7978 61.6677 46.9725 61.7552C47.1472 61.8427 47.3399 61.8882 47.5353 61.8882C47.7307 61.8882 47.9234 61.8427 48.0981 61.7552C48.2729 61.6677 48.4248 61.5407 48.5418 61.3842L51.7548 57.0842L52.1628 57.6442C52.3358 57.8852 52.5208 58.1232 52.7138 58.3502L55.9388 62.1502C56.0825 62.3195 56.1903 62.5163 56.2558 62.7285C56.3212 62.9407 56.3429 63.1639 56.3195 63.3848C56.2962 63.6056 56.2282 63.8194 56.1198 64.0132C56.0114 64.207 55.8648 64.3768 55.6888 64.5122L50.8008 68.2702C49.5001 69.2666 48.5432 70.6444 48.0638 72.2112L46.4348 77.5002C46.3065 77.9173 46.0968 78.3048 45.8178 78.6402L44.2338 80.5482C43.0528 81.9671 42.3217 83.7058 42.1338 85.5422C42.088 85.9888 41.9228 86.4149 41.6555 86.7756C41.3883 87.1363 41.0288 87.4184 40.6148 87.5922C40.4413 87.6649 40.2536 87.6974 40.0658 87.6873C39.878 87.6771 39.6949 87.6245 39.5303 87.5335C39.3656 87.4425 39.2238 87.3154 39.1153 87.1617C39.0068 87.0081 38.9345 86.8318 38.9038 86.6462L37.4128 77.6792C37.2265 76.5649 36.7717 75.5126 36.0878 74.6132L30.6128 67.4332C30.1212 66.7893 29.7576 66.0571 29.5418 65.2762L27.7358 58.7562C27.4166 57.614 26.8073 56.5738 25.9673 55.7366C25.1273 54.8994 24.0851 54.2937 22.9418 53.9782L22.5498 53.8712C21.7555 53.6535 21.0266 53.2446 20.4268 52.6802L17.0588 49.5062C16.5225 49.0011 16.0623 48.4207 15.6928 47.7832C14.9088 46.4323 13.7226 45.3598 12.2997 44.7155C10.8769 44.0712 9.28831 43.8872 7.75583 44.1892C7.70677 44.199 7.65835 44.2117 7.61083 44.2272L4.23683 45.3272C5.02405 42.4785 6.06661 39.7066 7.35183 37.0452L7.35483 37.0422ZM40.7548 46.7032C40.8114 44.9426 41.5506 43.2731 42.816 42.0477C44.0814 40.8223 45.7738 40.1371 47.5353 40.1371C49.2968 40.1371 50.9893 40.8223 52.2547 42.0477C53.5201 43.2731 54.2593 44.9426 54.3158 46.7032C54.4094 48.3933 53.8939 50.0609 52.8628 51.4032L47.5348 58.5292L42.2128 51.4192C41.1914 50.0656 40.676 48.3971 40.7558 46.7032H40.7548ZM90.0128 57.1922C90.0128 68.7935 85.4043 79.9195 77.201 88.1229C68.9976 96.3262 57.8716 100.935 46.2703 100.935C34.6691 100.935 23.543 96.3262 15.3397 88.1229C7.1364 79.9195 2.52783 68.7935 2.52783 57.1922C2.54804 54.1653 2.88556 51.1488 3.53483 48.1922L8.31283 46.6412C9.32208 46.4569 10.3636 46.5885 11.2953 47.0181C12.227 47.4476 13.0035 48.1541 13.5188 49.0412C14.0105 49.8888 14.6225 50.6605 15.3358 51.3322L18.7038 54.5052C19.6039 55.3515 20.6973 55.9647 21.8888 56.2912L22.2808 56.3982C23.0045 56.5985 23.664 56.9826 24.1953 57.5132C24.7266 58.0438 25.1116 58.7028 25.3128 59.4262L27.1218 65.9482C27.4227 67.0379 27.9299 68.0597 28.6158 68.9582L34.0868 76.1382C34.5231 76.712 34.8131 77.3833 34.9318 78.0942L36.4248 87.0622C36.5168 87.6224 36.7346 88.1543 37.0619 88.6181C37.3892 89.0819 37.8174 89.4654 38.3143 89.7398C38.8112 90.0141 39.3639 90.1722 39.9307 90.2021C40.4976 90.2319 41.0638 90.1328 41.5868 89.9122C42.4167 89.5639 43.1375 88.9986 43.6734 88.2755C44.2094 87.5525 44.5408 86.6985 44.6328 85.8032C44.7699 84.4622 45.3036 83.1925 46.1658 82.1562L47.7518 80.2482C48.2429 79.6581 48.6117 78.9762 48.8368 78.2422L50.4658 72.9482C50.7928 71.8796 51.4456 70.9398 52.3328 70.2602L57.2228 66.5012C57.6687 66.1584 58.0403 65.7285 58.3151 65.2377C58.5899 64.7469 58.7622 64.2054 58.8215 63.6461C58.8808 63.0867 58.8258 62.5212 58.66 61.9837C58.4942 61.4462 58.2209 60.948 57.8568 60.5192L54.6318 56.7192C54.4838 56.5442 54.3408 56.3622 54.2018 56.1682L53.3308 54.9742L54.8768 52.9062C56.2673 51.0835 56.9584 48.8228 56.8248 46.5342C56.7346 44.2615 55.8129 42.1011 54.2347 40.4632C52.6565 38.8253 50.5318 37.824 48.264 37.6496C45.9961 37.4751 43.7432 38.1396 41.9331 39.5168C40.1229 40.894 38.8816 42.8881 38.4448 45.1202C36.3557 44.4829 34.1045 44.6422 32.1258 45.5672L29.4698 46.9982C28.8626 47.3211 28.1559 47.4031 27.4909 47.2279C26.8258 47.0527 26.2513 46.6333 25.8818 46.0532L23.3028 41.9762C22.9779 41.4628 22.8099 40.8658 22.8193 40.2583C22.8287 39.6508 23.0152 39.0593 23.3558 38.5562C23.7533 37.9649 24.3077 37.496 24.9569 37.2022C25.606 36.9084 26.3242 36.8015 27.0308 36.8932L30.9308 37.3932C32.0903 37.5414 33.2677 37.3455 34.3167 36.8299C35.3657 36.3143 36.24 35.5017 36.8308 34.4932C37.1892 33.8812 37.7197 33.3881 38.3563 33.0753C38.9928 32.7625 39.7073 32.6439 40.4108 32.7342L42.1018 32.9502C43.1271 33.0788 44.1682 32.9377 45.1224 32.541C46.0766 32.1444 46.9108 31.5058 47.5428 30.6882L49.0378 28.7482C50.0193 27.48 50.5702 25.9316 50.6105 24.3284C50.6508 22.7253 50.1783 21.1512 49.2618 19.8352L44.8268 13.4352C45.3348 13.4142 45.8188 13.4012 46.2688 13.4012C52.6211 13.5092 58.8791 14.9564 64.6338 17.6482C66.5543 18.5197 68.4207 19.5059 70.2228 20.6012L66.8468 26.3872C66.363 27.2365 66.1555 28.2152 66.2532 29.1877C66.3508 30.1602 66.7488 31.0782 67.3918 31.8142C68.3626 32.9236 69.7085 33.6357 71.1718 33.8142L71.7838 33.8892C72.3763 33.9627 72.9347 34.2066 73.3912 34.5913C73.8478 34.9759 74.1829 35.4848 74.3558 36.0562C74.5196 36.5992 74.5245 37.1776 74.37 37.7232C74.2155 38.2688 73.908 38.7588 73.4838 39.1352L67.4218 44.4952C66.8076 45.0391 66.3158 45.707 65.9788 46.455C65.6418 47.2029 65.4673 48.0139 65.4668 48.8342V50.2562C65.4649 51.0991 65.675 51.9289 66.078 52.6692C66.481 53.4095 67.0639 54.0364 67.7728 54.4922C68.1253 54.7188 68.4219 55.0224 68.6403 55.38C68.8587 55.7377 68.9933 56.1401 69.0338 56.5572L69.1758 57.9772C69.2869 59.1269 69.8229 60.1938 70.6791 60.9691C71.5352 61.7444 72.6498 62.1723 73.8048 62.1692H77.3528C78.8227 62.1688 80.2606 61.7402 81.491 60.9359C82.7213 60.1316 83.6907 58.9865 84.2808 57.6402L84.4938 57.1542C84.7031 56.6725 85.0436 56.2593 85.4764 55.9619C85.9093 55.6645 86.4171 55.4948 86.9418 55.4722L87.7748 55.4342C87.9082 55.4282 88.0432 55.4182 88.1798 55.4042L89.9498 55.2262C89.9888 55.9142 90.0108 56.5732 90.0108 57.1872L90.0128 57.1922ZM89.7438 52.7242L87.9308 52.9062C87.8428 52.9152 87.7538 52.9212 87.6638 52.9252L86.8298 52.9632C85.8357 53.0047 84.8734 53.3255 84.0533 53.8889C83.2331 54.4522 82.5883 55.2352 82.1928 56.1482L81.9798 56.6342C81.5857 57.5334 80.9383 58.2982 80.1166 58.8354C79.2949 59.3726 78.3345 59.6589 77.3528 59.6592H73.8038C73.2726 59.6604 72.7601 59.4634 72.3665 59.1066C71.9729 58.7498 71.7266 58.259 71.6758 57.7302L71.5338 56.3102C71.4565 55.517 71.2004 54.7516 70.7847 54.0716C70.369 53.3916 69.8046 52.8147 69.1338 52.3842C68.7783 52.1555 68.4861 51.8409 68.284 51.4696C68.082 51.0982 67.9767 50.682 67.9778 50.2592V48.8372C67.9778 48.3729 68.0764 47.9139 68.2671 47.4905C68.4578 47.0671 68.7361 46.689 69.0838 46.3812L75.1458 41.0212C75.9295 40.3257 76.4977 39.4205 76.7835 38.4124C77.0693 37.4044 77.0608 36.3356 76.7588 35.3322C76.4444 34.2949 75.8357 33.3712 75.0066 32.6731C74.1774 31.9749 73.1635 31.5324 72.0878 31.3992L71.4758 31.3242C70.624 31.221 69.8404 30.8064 69.2758 30.1602C68.9774 29.8191 68.7922 29.3938 68.7458 28.9429C68.6994 28.4921 68.7941 28.038 69.0168 27.6432L72.3338 21.9572C74.7246 23.5577 76.9633 25.3744 79.0218 27.3842C78.4102 28.4475 78.0513 29.6371 77.9728 30.8612C77.8757 32.7578 78.4468 34.6284 79.5868 36.1472L84.6788 42.9562C84.7959 43.1127 84.9478 43.2397 85.1225 43.3272C85.2972 43.4147 85.4899 43.4602 85.6853 43.4602C85.8807 43.4602 86.0734 43.4147 86.2482 43.3272C86.4229 43.2397 86.5748 43.1127 86.6918 42.9562L87.6278 41.7042C88.6281 45.3149 89.3324 49.0011 89.7338 52.7262L89.7438 52.7242ZM89.7808 34.6372L85.6948 40.1012L81.6128 34.6482C80.8247 33.6077 80.4256 32.3242 80.4848 31.0202C80.5268 29.6676 81.0936 28.3844 82.0652 27.4424C83.0369 26.5004 84.337 25.9736 85.6903 25.9736C87.0436 25.9736 88.3438 26.5004 89.3155 27.4424C90.2871 28.3844 90.8539 29.6676 90.8958 31.0202C90.9671 32.3201 90.5697 33.6025 89.7758 34.6342L89.7808 34.6372Z" fill="#F8FAFC"/>
</svg>
