<svg width="142" height="130" viewBox="0 0 142 130" fill="none" xmlns="http://www.w3.org/2000/svg">
<path d="M129.716 37.9621H123.755V34.1291L127.474 30.0291C129.402 27.9085 130.47 25.1445 130.468 22.2781V12.5681C130.464 9.30232 129.165 6.17134 126.856 3.86207C124.546 1.5528 121.416 0.253827 118.15 0.250122H112.484C109.218 0.253827 106.087 1.5528 103.778 3.86207C101.468 6.17134 100.169 9.30232 100.166 12.5681V22.2831C100.164 25.1495 101.231 27.9134 103.16 30.0341L106.88 34.1341V37.9671H100.919C98.1568 37.971 95.4786 38.9163 93.3262 40.647C91.1737 42.3777 89.6755 44.7904 89.0787 47.4871C88.4622 47.4 87.8404 47.3559 87.2177 47.3551H80.2357V42.6611L84.4947 37.9711C86.6208 35.6318 87.7975 32.5833 87.7947 29.4221V18.4831C87.7894 14.8778 86.3549 11.4217 83.8055 8.87231C81.2562 6.32297 77.8 4.88841 74.1947 4.88312C73.6303 4.88312 73.0891 5.10732 72.69 5.5064C72.2909 5.90548 72.0667 6.44674 72.0667 7.01112C72.0667 7.5755 72.2909 8.11677 72.69 8.51585C73.0891 8.91492 73.6303 9.13912 74.1947 9.13912C76.672 9.14256 79.0469 10.1281 80.7988 11.8796C82.5507 13.6311 83.5367 16.0058 83.5407 18.4831V29.4231C83.5415 31.527 82.7569 33.5553 81.3407 35.1111L76.9547 39.9411C76.6546 40.1337 76.4077 40.3986 76.2368 40.7116C76.0659 41.0246 75.9764 41.3755 75.9767 41.7321V49.4831C75.9767 50.0475 76.2009 50.5888 76.6 50.9878C76.9991 51.3869 77.5403 51.6111 78.1047 51.6111H87.2147C89.6352 51.614 91.9558 52.5769 93.6674 54.2885C95.379 56 96.3418 58.3206 96.3447 60.7411V74.0911H45.6547V60.7361C45.6569 58.8692 46.2304 57.0477 47.2982 55.5163C48.3659 53.9848 49.8767 52.8168 51.6277 52.1691C51.789 52.135 51.9458 52.0819 52.0947 52.0111C52.966 51.7422 53.8728 51.6057 54.7847 51.6061H63.8947C64.1742 51.6061 64.4509 51.5511 64.7091 51.4441C64.9672 51.3372 65.2018 51.1804 65.3994 50.9828C65.597 50.7852 65.7538 50.5507 65.8607 50.2925C65.9677 50.0343 66.0227 49.7576 66.0227 49.4781V41.7301C66.0229 41.3735 65.9334 41.0226 65.7625 40.7097C65.5916 40.3967 65.3448 40.1317 65.0447 39.9391L60.6587 35.1091C59.2425 33.5533 58.4579 31.525 58.4587 29.4211V18.4831C58.4616 16.0048 59.4474 13.6288 61.1999 11.8763C62.9523 10.1238 65.3284 9.13803 67.8067 9.13512C68.3711 9.13512 68.9124 8.91092 69.3114 8.51185C69.7105 8.11277 69.9347 7.5715 69.9347 7.00712C69.9347 6.44274 69.7105 5.90148 69.3114 5.5024C68.9124 5.10332 68.3711 4.87912 67.8067 4.87912C64.2014 4.88441 60.7452 6.31897 58.1959 8.86831C55.6465 11.4177 54.212 14.8738 54.2067 18.4791V29.4191C54.2044 32.5802 55.3811 35.6285 57.5067 37.9681L61.7657 42.6581V47.3471H54.7837C54.1971 47.3483 53.6111 47.3881 53.0297 47.4661C52.4305 44.7726 50.9317 42.3635 48.7803 40.6356C46.6289 38.9077 43.9531 37.964 41.1937 37.9601H35.2327V34.1291L38.9517 30.0291C40.8795 27.91 41.9474 25.1479 41.9467 22.2831V12.5681C41.943 9.30215 40.6439 6.17102 38.3344 3.86172C36.0249 1.55242 32.8937 0.253563 29.6277 0.250122H23.9627C20.6969 0.253827 17.5659 1.5528 15.2567 3.86207C12.9474 6.17134 11.6484 9.30232 11.6447 12.5681V22.2831C11.6424 25.1495 12.7101 27.9136 14.6387 30.0341L18.3577 34.1341V37.9671H12.3967C9.18374 37.9708 6.10332 39.2483 3.83066 41.5194C1.558 43.7906 0.278526 46.8702 0.272705 50.0831L0.272705 63.8331C0.272705 64.3975 0.496904 64.9388 0.895982 65.3378C1.29506 65.7369 1.83632 65.9611 2.40071 65.9611H35.5137C36.0781 65.9611 36.6194 65.7369 37.0184 65.3378C37.4175 64.9388 37.6417 64.3975 37.6417 63.8331C37.6417 63.2687 37.4175 62.7275 37.0184 62.3284C36.6194 61.9293 36.0781 61.7051 35.5137 61.7051H4.52871V50.0831C4.53109 47.9971 5.3608 45.9973 6.83582 44.5222C8.31084 43.0472 10.3107 42.2175 12.3967 42.2151H20.4857C21.0501 42.2151 21.5914 41.9909 21.9904 41.5918C22.3895 41.1928 22.6137 40.6515 22.6137 40.0871V33.2111C22.6139 32.86 22.5272 32.5144 22.3612 32.205C22.1953 31.8956 21.9553 31.6322 21.6627 31.4381L17.7897 27.1721C16.5729 25.8343 15.8993 24.0905 15.9007 22.2821V12.5681C15.9031 10.4307 16.7532 8.38146 18.2646 6.87006C19.776 5.35866 21.8253 4.5085 23.9627 4.50612H29.6287C31.7662 4.5085 33.8154 5.35866 35.3268 6.87006C36.8382 8.38146 37.6883 10.4307 37.6907 12.5681V22.2831C37.6922 24.0915 37.0186 25.8354 35.8017 27.1731L31.9277 31.4391C31.6351 31.6332 31.3951 31.8966 31.2292 32.206C31.0633 32.5154 30.9765 32.861 30.9767 33.2121V40.0911C30.9767 40.6555 31.2009 41.1968 31.6 41.5958C31.9991 41.9949 32.5403 42.2191 33.1047 42.2191H41.1937C43.0386 42.2216 44.8241 42.8713 46.239 44.0551C47.654 45.2389 48.6087 46.8817 48.9367 48.6971C46.6781 49.7957 44.7737 51.5068 43.4407 53.6355C42.1077 55.7641 41.3998 58.2246 41.3977 60.7361V76.2181C41.3977 76.7825 41.6219 77.3238 42.021 77.7228C42.4201 78.1219 42.9613 78.3461 43.5257 78.3461H98.4727C99.0371 78.3461 99.5783 78.1219 99.9774 77.7228C100.377 77.3238 100.601 76.7825 100.601 76.2181V60.7361C100.598 58.2439 99.901 55.8017 98.5871 53.684C97.2731 51.5663 95.3947 49.857 93.1627 48.7481C93.4801 46.9216 94.4314 45.2655 95.8493 44.0711C97.2672 42.8768 99.0608 42.2206 100.915 42.2181H109.004C109.568 42.2181 110.109 41.9939 110.508 41.5948C110.908 41.1958 111.132 40.6545 111.132 40.0901V33.2111C111.132 32.8598 111.045 32.5139 110.879 32.2043C110.713 31.8947 110.473 31.6311 110.18 31.4371L106.307 27.1711C105.09 25.8332 104.417 24.0894 104.419 22.2811V12.5681C104.421 10.4307 105.271 8.38146 106.783 6.87006C108.294 5.35866 110.343 4.5085 112.481 4.50612H118.147C120.284 4.5085 122.333 5.35866 123.845 6.87006C125.356 8.38146 126.206 10.4307 126.209 12.5681V22.2831C126.21 24.0915 125.537 25.8354 124.32 27.1731L120.447 31.4391C120.154 31.6332 119.914 31.8966 119.748 32.206C119.582 32.5154 119.496 32.861 119.496 33.2121V40.0911C119.496 40.6555 119.72 41.1968 120.119 41.5958C120.518 41.9949 121.059 42.2191 121.624 42.2191H129.713C131.798 42.221 133.798 43.0499 135.273 44.5241C136.749 45.9983 137.579 47.9975 137.583 50.0831V61.7041H106.965C106.4 61.7041 105.859 61.9283 105.46 62.3274C105.061 62.7265 104.837 63.2677 104.837 63.8321C104.837 64.3965 105.061 64.9378 105.46 65.3369C105.859 65.7359 106.4 65.9601 106.965 65.9601H139.712C140.276 65.9601 140.817 65.7359 141.216 65.3369C141.616 64.9378 141.84 64.3965 141.84 63.8321V50.0831C141.835 46.8693 140.556 43.7884 138.284 41.5162C136.011 39.2439 132.93 37.9658 129.716 37.9621Z" fill="#F8FAFC"/>
<path d="M92.4587 105.319C92.3381 104.948 92.1177 104.617 91.8216 104.362C91.5255 104.108 91.165 103.939 90.7797 103.876L79.1537 101.968L73.7487 91.5012C73.5695 91.1543 73.2983 90.8635 72.9648 90.6605C72.6314 90.4575 72.2486 90.3501 71.8582 90.3501C71.4678 90.3501 71.0849 90.4575 70.7515 90.6605C70.418 90.8635 70.1469 91.1543 69.9677 91.5012L64.5607 101.968L52.9347 103.876C52.5488 103.939 52.1877 104.107 51.891 104.362C51.5944 104.617 51.3735 104.948 51.2528 105.32C51.132 105.692 51.116 106.09 51.2065 106.47C51.2969 106.85 51.4904 107.198 51.7657 107.476L60.0487 115.853L58.2707 127.499C58.2117 127.885 58.26 128.28 58.4104 128.64C58.5608 129.001 58.8074 129.313 59.1232 129.542C59.4391 129.772 59.812 129.91 60.2012 129.942C60.5904 129.973 60.9808 129.897 61.3297 129.722L71.8567 124.433L82.3837 129.722C82.7326 129.897 83.123 129.973 83.5121 129.942C83.9013 129.91 84.2742 129.772 84.5901 129.542C84.906 129.313 85.1526 129.001 85.3029 128.64C85.4533 128.28 85.5017 127.885 85.4427 127.499L83.6647 115.853L91.9477 107.476C92.223 107.198 92.4164 106.85 92.5065 106.47C92.5967 106.089 92.5801 105.691 92.4587 105.319V105.319ZM79.8867 113.619C79.6535 113.855 79.4786 114.142 79.376 114.458C79.2734 114.773 79.2459 115.108 79.2957 115.436L80.6137 124.067L72.8137 120.147C72.5172 119.998 72.19 119.921 71.8582 119.921C71.5264 119.921 71.1992 119.998 70.9027 120.147L63.1027 124.067L64.4197 115.436C64.4696 115.108 64.4422 114.773 64.3396 114.458C64.237 114.142 64.062 113.855 63.8287 113.619L57.6897 107.41L66.3057 105.996C66.633 105.942 66.9433 105.813 67.2117 105.618C67.4802 105.423 67.6993 105.168 67.8517 104.873L71.8597 97.1162L75.8667 104.873C76.0191 105.168 76.2383 105.423 76.5067 105.618C76.7751 105.813 77.0853 105.942 77.4127 105.996L86.0287 107.41L79.8867 113.619Z" fill="#F8FAFC"/>
<path d="M139.047 89.6721C138.926 89.3007 138.706 88.9696 138.41 88.7151C138.114 88.4605 137.753 88.2924 137.368 88.2291L125.742 86.3211L120.334 75.8541C120.155 75.5073 119.883 75.2164 119.55 75.0134C119.216 74.8104 118.834 74.703 118.443 74.703C118.053 74.703 117.67 74.8104 117.337 75.0134C117.003 75.2164 116.732 75.5073 116.553 75.8541L111.147 86.3191L99.5207 88.2271C99.1348 88.2901 98.7738 88.4581 98.4771 88.7128C98.1804 88.9674 97.9596 89.2988 97.8388 89.6707C97.7181 90.0426 97.7021 90.4405 97.7925 90.8209C97.883 91.2013 98.0765 91.5494 98.3517 91.8271L106.636 100.204L104.858 111.85C104.799 112.236 104.847 112.631 104.997 112.991C105.148 113.352 105.394 113.664 105.71 113.893C106.026 114.123 106.399 114.261 106.788 114.293C107.177 114.324 107.568 114.248 107.917 114.073L118.444 108.784L128.971 114.073C129.32 114.248 129.71 114.324 130.099 114.293C130.488 114.261 130.861 114.123 131.177 113.893C131.493 113.664 131.74 113.352 131.89 112.991C132.04 112.631 132.089 112.236 132.03 111.85L130.247 100.201L138.531 91.8241C138.806 91.5473 139 91.2001 139.091 90.8205C139.182 90.4409 139.167 90.0436 139.047 89.6721ZM126.473 97.9721C126.24 98.208 126.065 98.4951 125.962 98.8106C125.859 99.126 125.832 99.4611 125.882 99.7891L127.2 108.42L119.4 104.5C119.103 104.351 118.776 104.273 118.444 104.273C118.112 104.273 117.785 104.351 117.489 104.5L109.689 108.42L111.007 99.7891C111.057 99.4611 111.029 99.126 110.926 98.8105C110.824 98.4951 110.649 98.208 110.416 97.9721L104.277 91.7641L112.893 90.3501C113.22 90.2964 113.53 90.1668 113.799 89.9719C114.067 89.7769 114.286 89.5218 114.439 89.2271L118.446 81.4701L122.454 89.2271C122.606 89.5218 122.825 89.7768 123.094 89.9718C123.362 90.1667 123.672 90.2963 124 90.3501L132.615 91.7641L126.473 97.9721Z" fill="#F8FAFC"/>
<path d="M45.8727 89.6721C45.7522 89.3007 45.5318 88.9696 45.2356 88.7151C44.9395 88.4606 44.579 88.2924 44.1937 88.2291L32.5677 86.3211L27.1597 75.8521C26.9806 75.505 26.7094 75.214 26.3758 75.0108C26.0423 74.8076 25.6593 74.7001 25.2687 74.7001C24.8781 74.7001 24.4951 74.8076 24.1616 75.0108C23.828 75.214 23.5568 75.505 23.3777 75.8521L17.9707 86.3191L6.3497 88.2271C5.96383 88.2901 5.60275 88.4581 5.30607 88.7128C5.00938 88.9675 4.78856 89.2989 4.6678 89.6707C4.54705 90.0426 4.53103 90.4406 4.6215 90.821C4.71198 91.2013 4.90545 91.5494 5.1807 91.8271L13.4647 100.204L11.6867 111.85C11.6277 112.236 11.676 112.631 11.8264 112.991C11.9768 113.352 12.2234 113.664 12.5393 113.893C12.8551 114.123 13.2281 114.261 13.6172 114.293C14.0064 114.324 14.3968 114.248 14.7457 114.073L25.2727 108.784L35.7957 114.072C36.1446 114.247 36.535 114.323 36.9242 114.292C37.3133 114.26 37.6863 114.122 38.0021 113.892C38.318 113.663 38.5646 113.351 38.715 112.99C38.8654 112.63 38.9137 112.235 38.8547 111.849L37.0767 100.203L45.3597 91.8261C45.6347 91.5488 45.8281 91.2011 45.9186 90.8211C46.0091 90.4412 45.9932 90.0436 45.8727 89.6721V89.6721ZM33.2997 97.9721C33.0664 98.208 32.8915 98.4951 32.7889 98.8106C32.6863 99.126 32.6588 99.4611 32.7087 99.7891L34.0257 108.42L26.2257 104.5C25.9293 104.351 25.602 104.273 25.2702 104.273C24.9384 104.273 24.6111 104.351 24.3147 104.5L16.5147 108.42L17.8327 99.7891C17.8823 99.4609 17.8544 99.1256 17.7512 98.8102C17.6481 98.4947 17.4726 98.2077 17.2387 97.9721L11.1007 91.7641L19.7167 90.3501C20.044 90.2962 20.3543 90.1667 20.6227 89.9717C20.8911 89.7767 21.1103 89.5218 21.2627 89.2271L25.2697 81.4701L29.2767 89.2271C29.4291 89.5218 29.6483 89.7767 29.9167 89.9717C30.1851 90.1667 30.4954 90.2962 30.8227 90.3501L39.4387 91.7641L33.2997 97.9721Z" fill="#F8FAFC"/>
</svg>
