<svg xmlns="http://www.w3.org/2000/svg" width="70.6" height="70.6" viewBox="0 0 70.6 70.6"><path d="M70.6,29.606H68.041l-3.814,2.007a5.661,5.661,0,0,0-1.357-.558l-4.8-1.2v-.545a8,8,0,0,0,3.417-6.535V20.783a8.181,8.181,0,0,0-7.726-8.254c-.216-.006-.429,0-.643.013L54.364,9.63,48.334,3.6,44.78,5.915a19.261,19.261,0,0,0-4.262-1.768L39.639,0H30.961l-.878,4.148a19.239,19.239,0,0,0-4.262,1.768L22.266,3.6,16.241,9.628l1.223,2.914c-.047,0-.091-.011-.138-.012A7.974,7.974,0,0,0,9.109,20.5v2.277a7.993,7.993,0,0,0,3.416,6.534v.547L9.4,30.637,3.724,27.329H0v23.6l11.2,3.734h2.182l.272-.954,3.434,2.061A3.545,3.545,0,0,0,20.509,59.2a3.545,3.545,0,0,0,3.416,3.416,3.545,3.545,0,0,0,3.416,3.416,3.541,3.541,0,0,0,5.537,2.812l1.009.891a3.467,3.467,0,0,0,2.291.865h.211a3.467,3.467,0,0,0,3.461-3.421,3.464,3.464,0,0,0,3.416-3.416,3.464,3.464,0,0,0,3.416-3.419A3.5,3.5,0,0,0,50.1,56.85a3.334,3.334,0,0,0-.017-.341L70.6,46.252ZM59.212,20.783v1.991a5.716,5.716,0,0,1-2.85,4.927l-.569.329,0,3.6,5.689,1.421L48.964,39.646V36.579a5.666,5.666,0,0,0-1.631-3.968l3.908-.976V28.028l-.568-.329a5.709,5.709,0,0,1-2.848-4.925V20.5a5.693,5.693,0,0,1,5.87-5.69,5.887,5.887,0,0,1,5.517,5.977Zm-22.2,17.967L31.862,37.1a14.062,14.062,0,0,0-7.3-.332l-.653.145v-.337A3.414,3.414,0,0,1,26.5,33.264l6.523-1.63V28.028l-.568-.329a5.709,5.709,0,0,1-2.848-4.925V20.5a5.693,5.693,0,0,1,5.87-5.69,5.887,5.887,0,0,1,5.517,5.977v1.991a5.716,5.716,0,0,1-2.85,4.927l-.569.329,0,3.6,6.521,1.63a3.414,3.414,0,0,1,2.587,3.315v4.267l-.281.148h-.7l-7-2a7.178,7.178,0,0,0-1.69-.242ZM24.168,17.043a12.517,12.517,0,0,1,22.217-.092,7.919,7.919,0,0,0-.837,3.546v2.277a7.993,7.993,0,0,0,3.416,6.534v.547l-4.555,1.14-4.556-1.14v-.545a8,8,0,0,0,3.417-6.535V20.783a8.181,8.181,0,0,0-7.726-8.254A7.972,7.972,0,0,0,27.329,20.5v2.277a7.993,7.993,0,0,0,3.416,6.534v.547l-4.555,1.14-4.556-1.14v-.545a8,8,0,0,0,3.417-6.535V20.783a8.393,8.393,0,0,0-.883-3.741Zm-5.237-6.887,3.638-3.638,3.2,2.084.613-.376a16.992,16.992,0,0,1,4.931-2.045l.7-.168.792-3.736h4.986l.79,3.735.7.167a17.009,17.009,0,0,1,4.931,2.046l.613.376,3.2-2.084,3.634,3.635-1.292,3.024a7.959,7.959,0,0,0-2.4,1.6c-.047.046-.087.095-.132.141a14.788,14.788,0,0,0-25.115.068A8.032,8.032,0,0,0,20.208,13.2ZM14.8,31.634V28.028l-.568-.329a5.709,5.709,0,0,1-2.848-4.925V20.5a5.693,5.693,0,0,1,5.87-5.69,5.887,5.887,0,0,1,5.517,5.977v1.991a5.716,5.716,0,0,1-2.85,4.927l-.569.329,0,3.6,3.907.976a5.666,5.666,0,0,0-1.631,3.968v.843l-3.552.79.092-.322.043-2.1-6.005-3.5ZM2.277,29.606h.83L11.3,34.383,7.164,50.911l-4.887-1.63ZM11.571,52.38,9.33,51.634l4.014-16.056,2.6,1.515v.325L11.667,52.38Zm7.786,3.278a1.285,1.285,0,0,1,.374-.9l2-2a1.277,1.277,0,0,1,1.806,1.806l-2,2a1.277,1.277,0,0,1-2.18-.9Zm3.416,3.416a1.285,1.285,0,0,1,.374-.9l2-2a1.277,1.277,0,0,1,1.806,1.806l-2,2a1.277,1.277,0,0,1-2.18-.9Zm3.416,3.416a1.285,1.285,0,0,1,.374-.9l2-2a1.277,1.277,0,0,1,1.806,1.806l-2,2a1.277,1.277,0,0,1-2.18-.9Zm4.693,4.693a1.277,1.277,0,0,1-.9-2.18l2-2a1.277,1.277,0,0,1,1.806,1.806l-2,2A1.285,1.285,0,0,1,30.883,67.183Zm5.507,1.139h-.211a1.18,1.18,0,0,1-.785-.3l-.852-.751.855-.855a3.54,3.54,0,0,0,.717-1.058l1.035.862a1.188,1.188,0,0,1-.761,2.1ZM46.6,58.074h-.2a1.222,1.222,0,0,1-.783-.285l-6.175-5.146-1.459,1.75,6,5a1.188,1.188,0,0,1-.762,2.1h-.249a1.188,1.188,0,0,1-.76-.276l-6.185-5.154-1.459,1.75,6,5a1.187,1.187,0,0,1-.761,2.1,1.881,1.881,0,0,1-1.2-.434l-2.542-2.118a3.542,3.542,0,0,0-3.057-1.99,3.545,3.545,0,0,0-3.416-3.416,3.545,3.545,0,0,0-3.416-3.416,3.546,3.546,0,0,0-6.053-2.388l-2,2a3.509,3.509,0,0,0-.319.39l-3.5-2.1L17.371,40.7l7.687-1.709a11.731,11.731,0,0,1,6.109.276l1.677.537-5.687,2.843a3.8,3.8,0,0,0-2.107,3.412v.225a3.813,3.813,0,0,0,5.777,3.27l4.24-2.543a2.351,2.351,0,0,1,2.731.263l9.621,8.659a1.226,1.226,0,0,1-.819,2.136Zm21.721-13.23L49.138,54.437c-.062-.066-.127-.129-.2-.19l-9.619-8.659a4.582,4.582,0,0,0-5.427-.525l-4.242,2.544a1.536,1.536,0,0,1-2.325-1.319v-.225a1.528,1.528,0,0,1,.85-1.374l6.352-3.176a4.949,4.949,0,0,1,3.549-.329l7.156,2.044,1.733.043L68.322,32.032Zm0,0" transform="translate(0 0)" fill="#0f172a"/></svg>