<svg width="94" height="94" viewBox="0 0 94 94" fill="none" xmlns="http://www.w3.org/2000/svg">
<path d="M47.2961 66.6834C51.1696 66.6834 54.9561 65.5348 58.1768 63.3828C61.3975 61.2309 63.9078 58.1722 65.3901 54.5935C66.8725 51.0149 67.2604 47.077 66.5048 43.278C65.7492 39.4789 63.884 35.9892 61.1451 33.2501C58.4062 30.5111 54.9166 28.6457 51.1175 27.8899C47.3185 27.1341 43.3806 27.5218 39.8019 29.004C36.2232 30.4862 33.1644 32.9963 31.0122 36.2169C28.8601 39.4375 27.7113 43.2239 27.7111 47.0974C27.7169 52.29 29.7821 57.2682 33.4537 60.94C37.1254 64.6118 42.1035 66.6773 47.2961 66.6834V66.6834ZM47.2961 30.5254C48.9161 30.5254 50.6411 32.8254 51.8291 36.5514H42.7631C43.9521 32.8264 45.6771 30.5254 47.2961 30.5254V30.5254ZM52.5961 39.5644C52.99 41.551 53.2218 43.5663 53.2891 45.5904H41.3021C41.3701 43.5664 41.6018 41.5511 41.9951 39.5644H52.5961ZM63.7901 45.5904H56.3031C56.2454 43.5694 56.0396 41.5553 55.6871 39.5644H62.0401C63.006 41.4418 63.6009 43.4878 63.7921 45.5904H63.7901ZM47.2901 63.6694C45.6701 63.6694 43.9451 61.3694 42.7571 57.6434H51.8241C50.6351 61.3694 48.9101 63.6694 47.2911 63.6694H47.2901ZM41.9901 54.6304C41.5961 52.6439 41.3643 50.6286 41.2971 48.6044H53.2911C53.223 50.6285 52.9913 52.6438 52.5981 54.6304H41.9901ZM56.2981 48.6044H63.7871C63.5952 50.7072 62.9997 52.7532 62.0331 54.6304H55.6851C56.0397 52.6398 56.2463 50.6256 56.3031 48.6044H56.2981ZM38.2901 45.5914H30.8011C30.9929 43.4887 31.5884 41.4427 32.5551 39.5654H38.9111C38.5554 41.556 38.3478 43.5702 38.2901 45.5914V45.5914ZM38.2901 48.6044C38.3477 50.6255 38.5536 52.6395 38.9061 54.6304H32.5531C31.5871 52.7529 30.9916 50.7071 30.7991 48.6044H38.2901ZM34.5221 57.6434H39.6051C40.082 59.4057 40.788 61.0978 41.7051 62.6764C38.9049 61.6712 36.4257 59.9331 34.5261 57.6434H34.5221ZM52.8921 62.6764C53.8091 61.0978 54.5151 59.4057 54.9921 57.6434H60.0711C58.1715 59.9335 55.6923 61.6719 52.8921 62.6774V62.6764ZM60.0711 36.5514H54.9871C54.5101 34.7892 53.8041 33.0971 52.8871 31.5184C55.689 32.5229 58.17 34.261 60.0711 36.5514V36.5514ZM41.7011 31.5184C40.784 33.0971 40.078 34.7892 39.6011 36.5514H34.5221C36.4217 34.2618 38.9009 32.5237 41.7011 31.5184V31.5184Z" fill="#F8FAFC"/>
<path d="M78.935 21.4864H75.922C75.5224 21.4861 75.1392 21.3273 74.8567 21.0447C74.5741 20.7622 74.4152 20.379 74.415 19.9794H71.402C71.4033 21.1778 71.8799 22.3267 72.7273 23.1741C73.5747 24.0214 74.7236 24.4981 75.922 24.4994V27.5124H78.935V24.4994C80.122 24.4818 81.2544 23.9978 82.0876 23.1522C82.9207 22.3065 83.3877 21.167 83.3877 19.9799C83.3877 18.7928 82.9207 17.6533 82.0876 16.8076C81.2544 15.962 80.122 15.4781 78.935 15.4604H75.922C75.5291 15.4503 75.1558 15.2871 74.8815 15.0057C74.6073 14.7243 74.4538 14.3469 74.4538 13.9539C74.4538 13.561 74.6073 13.1835 74.8815 12.9021C75.1558 12.6207 75.5291 12.4575 75.922 12.4474H78.935C79.3346 12.4477 79.7177 12.6065 80.0003 12.8891C80.2829 13.1717 80.4417 13.5548 80.442 13.9544H83.455C83.4537 12.756 82.977 11.6071 82.1296 10.7597C81.2823 9.91237 80.1334 9.43573 78.935 9.43441V6.42041H75.922V9.43341C74.735 9.45107 73.6026 9.935 72.7694 10.7806C71.9362 11.6263 71.4692 12.7658 71.4692 13.9529C71.4692 15.14 71.9362 16.2795 72.7694 17.1252C73.6026 17.9708 74.735 18.4548 75.922 18.4724H78.935C79.3278 18.4825 79.7011 18.6457 79.9754 18.9271C80.2497 19.2085 80.4032 19.586 80.4032 19.9789C80.4032 20.3719 80.2497 20.7493 79.9754 21.0307C79.7011 21.3121 79.3278 21.4753 78.935 21.4854V21.4864Z" fill="#F8FAFC"/>
<path d="M77.428 33.5384C80.7056 33.5384 83.9096 32.5665 86.6349 30.7455C89.3601 28.9246 91.4842 26.3364 92.7385 23.3082C93.9928 20.2801 94.321 16.948 93.6815 13.7334C93.0421 10.5187 91.4638 7.56588 89.1461 5.24824C86.8285 2.93061 83.8756 1.35228 80.661 0.712843C77.4463 0.0734087 74.1143 0.40159 71.0861 1.65588C68.058 2.91018 65.4698 5.03426 63.6488 7.75951C61.8279 10.4848 60.856 13.6888 60.856 16.9664C60.8612 21.36 62.6089 25.572 65.7156 28.6787C68.8223 31.7855 73.0344 33.5331 77.428 33.5384V33.5384ZM77.428 3.40742C80.1097 3.40742 82.7312 4.20264 84.9609 5.69252C87.1907 7.1824 88.9286 9.30003 89.9548 11.7776C90.9811 14.2552 91.2496 16.9815 90.7264 19.6116C90.2032 22.2418 88.9119 24.6578 87.0156 26.5541C85.1194 28.4503 82.7034 29.7417 80.0732 30.2649C77.443 30.7881 74.7167 30.5195 72.2392 29.4933C69.7616 28.4671 67.6439 26.7292 66.1541 24.4994C64.6642 22.2696 63.869 19.6481 63.869 16.9664C63.8732 13.3716 65.3031 9.92532 67.845 7.38343C70.3869 4.84154 73.8332 3.41165 77.428 3.40742V3.40742Z" fill="#F8FAFC"/>
<path d="M83.314 76.8225C84.3688 75.7126 84.9582 74.2406 84.961 72.7094V71.6595L86.561 69.2675C87.4088 67.9952 87.8955 66.5167 87.969 64.9897C88.0426 63.4626 87.7002 61.9441 86.9785 60.5964C86.2567 59.2486 85.1827 58.122 83.8709 57.3367C82.5591 56.5514 81.0588 56.1369 79.53 56.1375H75.33C73.8015 56.1374 72.3017 56.5521 70.9905 57.3374C69.6792 58.1227 68.6057 59.2492 67.8843 60.5967C67.163 61.9442 66.8208 63.4622 66.8944 64.9888C66.9679 66.5155 67.4544 67.9935 68.302 69.2655L69.902 71.6595V72.7094C69.9047 74.2406 70.4941 75.7126 71.549 76.8225C68.4096 78.0156 65.7064 80.1337 63.797 82.8966C61.8876 85.6595 60.8621 88.937 60.856 92.2954V93.8025H94V92.2954C93.9944 88.9378 92.9698 85.6609 91.0618 82.8981C89.1537 80.1353 86.452 78.0167 83.314 76.8225ZM75.327 59.1505H79.527C80.4204 59.1447 81.3014 59.3608 82.0908 59.7793C82.8802 60.1978 83.5535 60.8056 84.0502 61.5483C84.5469 62.291 84.8516 63.1454 84.9369 64.0348C85.0222 64.9242 84.8855 65.8209 84.539 66.6445C84.1099 65.7152 83.3769 64.96 82.461 64.5035L77.426 61.9865L72.391 64.5035C71.475 64.96 70.742 65.7152 70.313 66.6445C69.9665 65.821 69.8298 64.9244 69.915 64.035C70.0003 63.1457 70.3049 62.2914 70.8015 61.5487C71.2981 60.8061 71.9712 60.1982 72.7605 59.7797C73.5498 59.3611 74.4306 59.1449 75.324 59.1505H75.327ZM75.927 75.7225C75.1281 75.7217 74.3622 75.404 73.7973 74.8391C73.2324 74.2742 72.9147 73.5083 72.914 72.7094V68.5455C72.9131 68.2654 72.9907 67.9907 73.1379 67.7525C73.2851 67.5142 73.4961 67.322 73.747 67.1975L77.434 65.3545L81.121 67.1985C81.3716 67.3229 81.5825 67.515 81.7297 67.7531C81.8769 67.9911 81.9546 68.2656 81.954 68.5455V72.7094C81.9532 73.5083 81.6355 74.2742 81.0706 74.8391C80.5057 75.404 79.7398 75.7217 78.941 75.7225H75.927ZM63.956 90.7885C64.3266 87.4737 65.906 84.4119 68.3921 82.1883C70.8782 79.9647 74.0966 78.7354 77.432 78.7354C80.7674 78.7354 83.9857 79.9647 86.4718 82.1883C88.9579 84.4119 90.5373 87.4737 90.908 90.7885H63.956Z" fill="#F8FAFC"/>
<path d="M31.782 68.4105L25.982 62.6105L22.498 64.3575L21.265 60.6575H13.065L11.831 64.3575L8.34602 62.6135L2.54602 68.4135L4.29302 71.8975L0.593018 73.1305V81.3305L4.29302 82.5575L2.54902 86.0475L8.34902 91.8475L11.835 90.1045L13.069 93.8045H21.269L22.503 90.1045L25.989 91.8475L31.789 86.0475L30.036 82.5575L33.736 81.3255V73.1255L30.036 71.8935L31.782 68.4105ZM30.724 75.3035V79.1575L27.262 80.3115L27.009 80.9815C26.937 81.1725 26.861 81.3615 26.778 81.5465L26.486 82.1985L28.115 85.4575L25.393 88.1825L22.132 86.5575L21.48 86.8495C21.292 86.9335 21.102 87.0075 20.909 87.0835L20.245 87.3385L19.093 90.7885H15.237L14.084 87.3325L13.42 87.0775C13.227 87.0025 13.036 86.9265 12.849 86.8435L12.197 86.5515L8.93902 88.1805L6.21402 85.4575L7.84302 82.1985L7.55102 81.5465C7.46802 81.3615 7.39302 81.1725 7.32002 80.9815L7.06702 80.3115L3.60602 79.1575V75.3015L7.06802 74.1475L7.32102 73.4775C7.39302 73.2865 7.46902 73.0975 7.55202 72.9125L7.84402 72.2605L6.21402 69.0045L8.93902 66.2795L12.193 67.9075L12.845 67.6155C13.033 67.5315 13.223 67.4575 13.416 67.3815L14.08 67.1265L15.234 63.6705H19.093L20.246 67.1265L20.91 67.3815C21.103 67.4565 21.294 67.5325 21.481 67.6155L22.133 67.9075L25.393 66.2785L28.118 69.0035L26.488 72.2575L26.78 72.9095C26.863 73.0945 26.938 73.2835 27.011 73.4745L27.264 74.1445L30.724 75.3035Z" fill="#F8FAFC"/>
<path d="M17.165 69.6964C15.6751 69.6964 14.2186 70.1382 12.9799 70.966C11.7411 71.7937 10.7755 72.9702 10.2054 74.3467C9.63522 75.7231 9.48604 77.2378 9.77671 78.699C10.0674 80.1603 10.7848 81.5025 11.8383 82.556C12.8918 83.6096 14.2341 84.327 15.6953 84.6177C17.1566 84.9083 18.6712 84.7592 20.0477 84.189C21.4242 83.6188 22.6007 82.6533 23.4284 81.4145C24.2562 80.1757 24.698 78.7193 24.698 77.2294C24.6958 75.2322 23.9015 73.3174 22.4893 71.9051C21.077 70.4929 19.1622 69.6985 17.165 69.6964V69.6964ZM17.165 81.7494C16.271 81.7494 15.3971 81.4843 14.6538 80.9877C13.9105 80.491 13.3311 79.7851 12.989 78.9591C12.6469 78.1332 12.5574 77.2244 12.7318 76.3476C12.9062 75.4708 13.3367 74.6654 13.9688 74.0333C14.601 73.4012 15.4064 72.9707 16.2832 72.7963C17.1599 72.6219 18.0688 72.7114 18.8947 73.0535C19.7206 73.3956 20.4265 73.9749 20.9232 74.7182C21.4199 75.4615 21.685 76.3354 21.685 77.2294C21.6836 78.4278 21.207 79.5767 20.3596 80.4241C19.5122 81.2714 18.3633 81.7481 17.165 81.7494V81.7494Z" fill="#F8FAFC"/>
<path d="M30.724 0.394409H0.593018V27.5124H30.724V0.394409ZM12.646 3.40741H18.672V6.42041H12.646V3.40741ZM27.711 24.4994H3.60602V3.40741H9.63202V9.43341H21.685V3.40741H27.711V24.4994Z" fill="#F8FAFC"/>
<path d="M75.921 36.5524H78.934V53.1244H75.921V36.5524Z" fill="#F8FAFC"/>
<path d="M33.7371 15.4604H57.8421V18.4734H33.7371V15.4604Z" fill="#F8FAFC"/>
<path d="M15.6591 30.5254H18.6721V57.6434H15.6591V30.5254Z" fill="#F8FAFC"/>
<path d="M36.751 75.7224H63.869V78.7354H36.751V75.7224Z" fill="#F8FAFC"/>
</svg>
