<svg width="99" height="28" viewBox="0 0 99 28" fill="none" xmlns="http://www.w3.org/2000/svg">
<path fill-rule="evenodd" clip-rule="evenodd" d="M16.2176 0.19043L22.5416 9.68146L15.8886 11.8984L16.2176 0.19043Z" fill="#78BDE6"/>
<path fill-rule="evenodd" clip-rule="evenodd" d="M16.2176 0.19043L15.8866 11.9324L10.1366 9.04346L16.2166 0.191467L16.2176 0.19043Z" fill="#2F5697"/>
<path fill-rule="evenodd" clip-rule="evenodd" d="M22.8846 10.2605L27.4586 17.0605L15.6316 21.0025L15.8066 12.5815L22.8846 10.2585V10.2605Z" fill="#69A7D8"/>
<path fill-rule="evenodd" clip-rule="evenodd" d="M9.80861 9.52148L15.8696 12.5665L15.6326 20.9905L5.4476 15.8725L9.80861 9.52148Z" fill="#203864"/>
<path fill-rule="evenodd" clip-rule="evenodd" d="M27.7896 17.5593L32.0026 23.8823L15.3646 30.5234L15.6156 21.6174L27.7896 17.5593Z" fill="#487BBC"/>
<path fill-rule="evenodd" clip-rule="evenodd" d="M5.1196 16.3503L15.6196 21.6254L15.3696 30.5254L0.498596 23.0894L5.1246 16.3534L5.1196 16.3503Z" fill="#1F295D"/>
<path d="M42.2436 18.1624C42.2436 16.0624 41.3506 14.0955 38.2556 14.0955C37.037 14.0691 35.8328 14.3632 34.7636 14.9484L35.2406 16.5355C36.0278 16.0693 36.9257 15.8227 37.8406 15.8215C39.5466 15.8215 39.8046 16.8725 39.8046 17.5095V17.6685C36.2326 17.6485 34.0706 18.8795 34.0706 21.3195C34.0687 21.7116 34.1472 22.0999 34.3013 22.4605C34.4554 22.8211 34.6818 23.1463 34.9665 23.4159C35.2512 23.6855 35.5882 23.8939 35.9567 24.0281C36.3251 24.1624 36.7172 24.2197 37.1086 24.1965C37.6514 24.2116 38.1905 24.1033 38.6854 23.8799C39.1803 23.6564 39.618 23.3236 39.9656 22.9064H40.0246L40.1836 23.9785H42.3836C42.2792 23.2094 42.2328 22.4335 42.2446 21.6575L42.2436 18.1624ZM39.8596 20.5845C39.8611 20.7661 39.8345 20.9469 39.7806 21.1204C39.6442 21.5138 39.3871 21.8541 39.0459 22.0927C38.7047 22.3314 38.2969 22.4562 37.8806 22.4495C37.6939 22.4654 37.506 22.4402 37.3301 22.3758C37.1542 22.3113 36.9945 22.2091 36.8623 22.0764C36.7301 21.9436 36.6286 21.7834 36.5649 21.6072C36.5012 21.431 36.4769 21.2431 36.4936 21.0565C36.4936 19.5875 38.1406 19.2114 39.8696 19.2504L39.8596 20.5845ZM52.0806 18.2424V23.9764H49.6396V18.5195C49.6396 17.1305 49.1236 16.0784 47.7946 16.0784C47.3686 16.0893 46.9566 16.2329 46.616 16.489C46.2755 16.7452 46.0233 17.1012 45.8946 17.5074C45.8188 17.7647 45.785 18.0324 45.7946 18.3004V23.9725H43.3346V17.1895C43.3346 16.0785 43.3146 15.1454 43.2546 14.3124H45.4006L45.5196 15.7604H45.5786C45.8988 15.2361 46.3521 14.8058 46.8923 14.5132C47.4325 14.2207 48.0405 14.0762 48.6546 14.0944C50.3436 14.0944 52.0896 15.1824 52.0896 18.2404L52.0806 18.2424ZM60.6916 18.1635C60.6916 16.0635 59.7986 14.0964 56.7036 14.0964C55.485 14.07 54.2808 14.3642 53.2116 14.9495L53.6876 16.5364C54.4748 16.0703 55.3727 15.8237 56.2876 15.8224C57.9936 15.8224 58.2516 16.8734 58.2516 17.5104V17.6694C54.6796 17.6494 52.5176 18.8804 52.5176 21.3204C52.5157 21.7126 52.5942 22.101 52.7483 22.4615C52.9024 22.8221 53.1288 23.1472 53.4135 23.4169C53.6982 23.6865 54.0352 23.8949 54.4037 24.0292C54.7721 24.1634 55.1642 24.2207 55.5556 24.1974C56.0984 24.2126 56.6375 24.1043 57.1324 23.8809C57.6273 23.6574 58.065 23.3246 58.4126 22.9075H58.4716L58.6306 23.9794H60.8306C60.7262 23.2103 60.6798 22.4345 60.6916 21.6584V18.1635ZM58.3106 20.5845C58.3119 20.7662 58.2849 20.947 58.2306 21.1204C58.0943 21.5139 57.8372 21.8542 57.496 22.0929C57.1548 22.3316 56.7469 22.4564 56.3306 22.4495C56.1441 22.4651 55.9564 22.4397 55.7807 22.3751C55.605 22.3105 55.4456 22.2082 55.3137 22.0755C55.1817 21.9428 55.0803 21.7828 55.0168 21.6068C54.9532 21.4307 54.9289 21.2429 54.9456 21.0565C54.9456 19.5875 56.5926 19.2114 58.3216 19.2504L58.3106 20.5845ZM75.9686 22.0334H81.0686V23.9785H72.9166V22.5695L76.5436 17.9294C77.0436 17.3294 77.4566 16.8574 77.9726 16.3024V16.2625H73.2726V16.0474L71.4876 20.9084C70.1586 24.5204 69.2656 26.1274 68.1116 27.1204C67.4007 27.7811 66.5098 28.2161 65.5516 28.3704L64.9956 26.3074C65.5105 26.1753 65.9955 25.9462 66.4246 25.6324C66.984 25.2374 67.4399 24.7132 67.7536 24.1044C67.8411 23.9737 67.8956 23.8238 67.9126 23.6674C67.9051 23.5009 67.8574 23.3386 67.7736 23.1945L64.2426 14.3254V23.9874H61.7826V9.88745H64.2426V14.3124H66.9216L68.6676 19.4915C68.8676 20.0915 69.0676 20.8205 69.2036 21.3765H69.2626C69.4216 20.8205 69.6006 20.1064 69.7786 19.4714L71.2866 14.3124H80.9496V15.7974L77.3976 20.3414C76.9216 20.9164 76.4656 21.4725 75.9686 21.9885V22.0334ZM89.4016 18.7994C89.4016 16.6754 88.3696 14.0994 85.2346 14.0994C82.1346 14.0994 80.5126 16.6194 80.5126 19.2994C80.5126 22.2564 82.3576 24.1804 85.4936 24.1804C86.6465 24.1978 87.7921 23.9959 88.8696 23.5854L88.5126 21.8975C87.6553 22.2098 86.7467 22.3577 85.8346 22.3334C84.2866 22.3334 82.9176 21.5794 82.8586 19.8334H89.3276C89.3836 19.4917 89.41 19.1457 89.4066 18.7994H89.4016ZM87.1016 18.1245H82.8556C82.8613 17.5201 83.0957 16.9403 83.5117 16.5018C83.9277 16.0634 84.4944 15.7988 85.0976 15.7614C85.3901 15.7687 85.6779 15.8376 85.9419 15.9637C86.206 16.0898 86.4405 16.2703 86.63 16.4932C86.8195 16.7162 86.9599 16.9766 87.0418 17.2576C87.1238 17.5385 87.1455 17.8335 87.1056 18.1234L87.1016 18.1245Z" fill="url(#paint0_linear_2_219)"/>
<path d="M90.0796 13.4755C90.0796 12.4335 90.0606 11.5585 90.0046 10.7755H92.0146L92.1256 12.1345H92.1816C92.4818 11.6428 92.9067 11.2392 93.4132 10.9647C93.9197 10.6902 94.4898 10.5546 95.0656 10.5715C96.6476 10.5715 98.2846 11.5954 98.2846 14.4604V19.8384H95.9926V14.7205C95.9926 13.4205 95.5086 12.4315 94.2616 12.4315C93.8612 12.4407 93.4737 12.5748 93.1533 12.8151C92.8329 13.0553 92.5956 13.3897 92.4746 13.7714C92.4039 14.0125 92.3725 14.2634 92.3816 14.5145V19.8364H90.0796V13.4755Z" fill="#4A7EB5"/>
<defs>
<linearGradient id="paint0_linear_2_219" x1="37.8888" y1="28.6292" x2="48.2992" y2="-7.99387" gradientUnits="userSpaceOnUse">
<stop stop-color="#21477C"/>
<stop offset="0.006" stop-color="#234A7F"/>
<stop offset="0.059" stop-color="#37669B"/>
<stop offset="0.105" stop-color="#4277AC"/>
<stop offset="0.14" stop-color="#477DB2"/>
<stop offset="0.505" stop-color="#66A2D3"/>
<stop offset="0.507" stop-color="#67A3D4"/>
<stop offset="0.615" stop-color="#578EC1"/>
<stop offset="0.758" stop-color="#477DB2"/>
<stop offset="0.879" stop-color="#35669E"/>
<stop offset="1" stop-color="#27558F"/>
</linearGradient>
</defs>
</svg>
