<svg width="100" height="100" viewBox="0 0 100 100" fill="none" xmlns="http://www.w3.org/2000/svg">
<path d="M94.7827 89.6707H93.3297V44.9867C93.3286 44.0097 92.9398 43.0729 92.2488 42.3822C91.5577 41.6915 90.6207 41.3033 89.6437 41.3027H63.2767V5.75874C63.2751 4.45119 62.7547 3.19769 61.8299 2.27339C60.905 1.3491 59.6512 0.829529 58.3437 0.828735H12.2927C10.9856 0.830323 9.73258 1.35024 8.80837 2.27445C7.88416 3.19866 7.36424 4.45171 7.36265 5.75874V89.6707H5.90865C4.53881 89.6707 3.22507 90.2149 2.25645 91.1835C1.28782 92.1522 0.743652 93.4659 0.743652 94.8357C0.743652 96.2056 1.28782 97.5193 2.25645 98.4879C3.22507 99.4566 4.53881 100.001 5.90865 100.001H94.7827C96.1525 100.001 97.4662 99.4566 98.4349 98.4879C99.4035 97.5193 99.9477 96.2056 99.9477 94.8357C99.9477 93.4659 99.4035 92.1522 98.4349 91.1835C97.4662 90.2149 96.1525 89.6707 94.7827 89.6707ZM10.2687 5.75874C10.2692 5.2221 10.4826 4.70759 10.8621 4.32814C11.2415 3.94868 11.756 3.73526 12.2927 3.73474H58.3437C58.8803 3.73526 59.3948 3.94868 59.7743 4.32814C60.1537 4.70759 60.3671 5.2221 60.3677 5.75874V41.3027H47.9677C46.9909 41.3038 46.0545 41.6923 45.3638 42.3829C44.6732 43.0736 44.2847 44.01 44.2837 44.9867V78.4057C44.2837 78.7911 44.4367 79.1607 44.7092 79.4332C44.9817 79.7056 45.3513 79.8587 45.7367 79.8587C46.122 79.8587 46.4916 79.7056 46.7641 79.4332C47.0366 79.1607 47.1897 78.7911 47.1897 78.4057V44.9867C47.1899 44.7806 47.272 44.5829 47.4179 44.4373C47.5638 44.2916 47.7615 44.2097 47.9677 44.2097H89.6437C89.8498 44.2097 90.0476 44.2916 90.1934 44.4373C90.3393 44.5829 90.4214 44.7806 90.4217 44.9867V89.6707H47.1887V85.1997C47.1887 84.8144 47.0356 84.4448 46.7631 84.1723C46.4906 83.8998 46.121 83.7467 45.7357 83.7467C45.3503 83.7467 44.9807 83.8998 44.7082 84.1723C44.4357 84.4448 44.2827 84.8144 44.2827 85.1997V89.6707H10.2687V5.75874ZM94.7827 97.0937H5.90865C5.31789 97.0813 4.75551 96.8379 4.34211 96.4157C3.9287 95.9935 3.69718 95.4261 3.69718 94.8352C3.69718 94.2443 3.9287 93.677 4.34211 93.2548C4.75551 92.8326 5.31789 92.5892 5.90865 92.5767H94.7827C95.3734 92.5892 95.9358 92.8326 96.3492 93.2548C96.7626 93.677 96.9941 94.2443 96.9941 94.8352C96.9941 95.4261 96.7626 95.9935 96.3492 96.4157C95.9358 96.8379 95.3734 97.0813 94.7827 97.0937V97.0937Z" fill="white"/>
<path d="M23.4776 9.68372H17.5156C16.752 9.68451 16.02 9.98819 15.48 10.5281C14.9401 11.0681 14.6364 11.8001 14.6356 12.5637V18.5257C14.6364 19.2893 14.9401 20.0214 15.48 20.5613C16.02 21.1012 16.752 21.4049 17.5156 21.4057H23.4776C24.2412 21.4049 24.9733 21.1012 25.5132 20.5613C26.0531 20.0214 26.3568 19.2893 26.3576 18.5257V12.5637C26.3568 11.8001 26.0531 11.0681 25.5132 10.5281C24.9733 9.98819 24.2412 9.68451 23.4776 9.68372V9.68372ZM23.4506 18.4967H17.5396V12.5897H23.4486L23.4506 18.4967Z" fill="white"/>
<path d="M38.3007 9.68372H32.3387C31.5753 9.68477 30.8435 9.98858 30.3038 10.5285C29.7641 11.0684 29.4605 11.8003 29.4597 12.5637V18.5257C29.4605 19.2891 29.7641 20.0211 30.3038 20.561C30.8435 21.1009 31.5753 21.4047 32.3387 21.4057H38.3007C39.0643 21.4049 39.7964 21.1012 40.3363 20.5613C40.8762 20.0214 41.1799 19.2893 41.1807 18.5257V12.5637C41.1799 11.8001 40.8762 11.0681 40.3363 10.5281C39.7964 9.98819 39.0643 9.68451 38.3007 9.68372V9.68372ZM38.2737 18.4987H32.3647V12.5897H38.2737V18.4987Z" fill="white"/>
<path d="M47.1616 21.4057H53.1236C53.8872 21.4049 54.6193 21.1012 55.1592 20.5613C55.6991 20.0214 56.0028 19.2893 56.0036 18.5257V12.5637C56.0028 11.8001 55.6991 11.0681 55.1592 10.5281C54.6193 9.98819 53.8872 9.68451 53.1236 9.68372H47.1616C46.398 9.68451 45.666 9.98819 45.126 10.5281C44.5861 11.0681 44.2824 11.8001 44.2816 12.5637V18.5257C44.2824 19.2893 44.5861 20.0214 45.126 20.5613C45.666 21.1012 46.398 21.4049 47.1616 21.4057V21.4057ZM47.1886 12.5907H53.0976V18.4967H47.1886V12.5907Z" fill="white"/>
<path d="M23.4776 27.8247H17.5156C16.752 27.8255 16.02 28.1292 15.48 28.6691C14.9401 29.209 14.6364 29.9411 14.6356 30.7047V36.6667C14.6364 37.4303 14.9401 38.1624 15.48 38.7023C16.02 39.2422 16.752 39.5459 17.5156 39.5467H23.4776C24.2412 39.5459 24.9733 39.2422 25.5132 38.7023C26.0531 38.1624 26.3568 37.4303 26.3576 36.6667V30.7047C26.3568 29.9411 26.0531 29.209 25.5132 28.6691C24.9733 28.1292 24.2412 27.8255 23.4776 27.8247ZM23.4506 36.6397H17.5396V30.7307H23.4486L23.4506 36.6397Z" fill="white"/>
<path d="M38.3007 27.8247H32.3387C31.5753 27.8258 30.8435 28.1296 30.3038 28.6695C29.7641 29.2094 29.4605 29.9413 29.4597 30.7047V36.6667C29.4605 37.4301 29.7641 38.162 30.3038 38.7019C30.8435 39.2418 31.5753 39.5456 32.3387 39.5467H38.3007C39.0643 39.5459 39.7964 39.2422 40.3363 38.7023C40.8762 38.1624 41.1799 37.4303 41.1807 36.6667V30.7047C41.1799 29.9411 40.8762 29.209 40.3363 28.6691C39.7964 28.1292 39.0643 27.8255 38.3007 27.8247V27.8247ZM38.2737 36.6397H32.3647V30.7307H38.2737V36.6397Z" fill="white"/>
<path d="M47.1616 39.5457H53.1236C53.8872 39.5449 54.6193 39.2413 55.1592 38.7013C55.6991 38.1614 56.0028 37.4293 56.0036 36.6657V30.7037C56.0028 29.9402 55.6991 29.2081 55.1592 28.6681C54.6193 28.1282 53.8872 27.8245 53.1236 27.8237H47.1616C46.398 27.8245 45.666 28.1282 45.126 28.6681C44.5861 29.2081 44.2824 29.9402 44.2816 30.7037V36.6657C44.2824 37.4293 44.5861 38.1614 45.126 38.7013C45.666 39.2413 46.398 39.5449 47.1616 39.5457V39.5457ZM47.1886 30.7307H53.0976V36.6397H47.1886V30.7307Z" fill="white"/>
<path d="M23.4776 45.9647H17.5156C16.752 45.9655 16.02 46.2692 15.48 46.8091C14.9401 47.3491 14.6364 48.0811 14.6356 48.8447V54.8067C14.6364 55.5703 14.9401 56.3024 15.48 56.8423C16.02 57.3822 16.752 57.6859 17.5156 57.6867H23.4776C24.2412 57.6859 24.9733 57.3822 25.5132 56.8423C26.0531 56.3024 26.3568 55.5703 26.3576 54.8067V48.8447C26.3568 48.0811 26.0531 47.3491 25.5132 46.8091C24.9733 46.2692 24.2412 45.9655 23.4776 45.9647V45.9647ZM23.4506 54.7797H17.5396V48.8707H23.4486L23.4506 54.7797Z" fill="white"/>
<path d="M38.3007 45.9647H32.3387C31.5753 45.9658 30.8435 46.2696 30.3038 46.8095C29.7641 47.3494 29.4605 48.0813 29.4597 48.8447V54.8067C29.4605 55.5701 29.7641 56.3021 30.3038 56.842C30.8435 57.3819 31.5753 57.6857 32.3387 57.6867H38.3007C39.0643 57.6859 39.7964 57.3822 40.3363 56.8423C40.8762 56.3024 41.1799 55.5703 41.1807 54.8067V48.8447C41.1799 48.0811 40.8762 47.3491 40.3363 46.8091C39.7964 46.2692 39.0643 45.9655 38.3007 45.9647V45.9647ZM38.2737 54.7797H32.3647V48.8707H38.2737V54.7797Z" fill="white"/>
<path d="M23.4776 64.1057H17.5156C16.7522 64.1065 16.0203 64.4101 15.4804 64.9498C14.9405 65.4895 14.6367 66.2213 14.6356 66.9847V72.9447C14.6364 73.7083 14.9401 74.4404 15.48 74.9803C16.02 75.5202 16.752 75.8239 17.5156 75.8247H23.4776C24.2412 75.8239 24.9733 75.5202 25.5132 74.9803C26.0531 74.4404 26.3568 73.7083 26.3576 72.9447V66.9847C26.3566 66.2213 26.0528 65.4895 25.5129 64.9498C24.973 64.4101 24.241 64.1065 23.4776 64.1057V64.1057ZM23.4506 72.9207H17.5396V67.0117H23.4486L23.4506 72.9207Z" fill="white"/>
<path d="M38.3007 64.1057H32.3387C31.5755 64.1068 30.8438 64.4104 30.3041 64.9501C29.7644 65.4898 29.4608 66.2215 29.4597 66.9847V72.9447C29.4605 73.7081 29.7641 74.44 30.3038 74.9799C30.8435 75.5199 31.5753 75.8236 32.3387 75.8247H38.3007C39.0643 75.8239 39.7964 75.5202 40.3363 74.9803C40.8762 74.4404 41.1799 73.7083 41.1807 72.9447V66.9847C41.1797 66.2213 40.8759 65.4895 40.336 64.9498C39.796 64.4101 39.0641 64.1065 38.3007 64.1057ZM38.2737 72.9207H32.3647V67.0117H38.2737V72.9207Z" fill="white"/>
<path d="M53.0886 59.4977H58.7346C59.3929 59.4969 60.024 59.2351 60.4895 58.7696C60.955 58.3041 61.2168 57.673 61.2176 57.0148V51.5147C61.2168 50.8565 60.955 50.2254 60.4895 49.7599C60.024 49.2944 59.3929 49.0325 58.7346 49.0317H53.0886C52.4303 49.0325 51.7992 49.2944 51.3337 49.7599C50.8683 50.2254 50.6064 50.8565 50.6056 51.5147V57.0148C50.6064 57.673 50.8683 58.3041 51.3337 58.7696C51.7992 59.2351 52.4303 59.4969 53.0886 59.4977ZM53.5116 51.9347H58.3116V56.5918H53.5116V51.9347Z" fill="white"/>
<path d="M53.0886 71.3768H58.7346C59.3929 71.376 60.024 71.1141 60.4895 70.6486C60.955 70.1831 61.2168 69.5521 61.2176 68.8938V63.3938C61.2168 62.7355 60.955 62.1044 60.4895 61.6389C60.024 61.1734 59.3929 60.9116 58.7346 60.9108H53.0886C52.4303 60.9116 51.7992 61.1734 51.3337 61.6389C50.8683 62.1044 50.6064 62.7355 50.6056 63.3938V68.8938C50.6064 69.5521 50.8683 70.1831 51.3337 70.6486C51.7992 71.1141 52.4303 71.376 53.0886 71.3768ZM53.5116 63.8138H58.3116V68.4708H53.5116V63.8138Z" fill="white"/>
<path d="M53.0886 83.2557H58.7346C59.3929 83.2549 60.024 82.993 60.4895 82.5276C60.955 82.0621 61.2168 81.431 61.2176 80.7727V75.2727C61.2168 74.6144 60.955 73.9833 60.4895 73.5178C60.024 73.0523 59.3929 72.7905 58.7346 72.7897H53.0886C52.4303 72.7905 51.7992 73.0523 51.3337 73.5178C50.8683 73.9833 50.6064 74.6144 50.6056 75.2727V80.7727C50.6064 81.431 50.8683 82.0621 51.3337 82.5276C51.7992 82.993 52.4303 83.2549 53.0886 83.2557V83.2557ZM53.5116 75.6927H58.3116V80.3497H53.5116V75.6927Z" fill="white"/>
<path d="M65.9826 59.4977H71.6286C72.2869 59.4969 72.918 59.2351 73.3835 58.7696C73.849 58.3041 74.1108 57.673 74.1116 57.0148V51.5147C74.1108 50.8565 73.849 50.2254 73.3835 49.7599C72.918 49.2944 72.2869 49.0325 71.6286 49.0317H65.9826C65.3243 49.0325 64.6933 49.2944 64.2278 49.7599C63.7623 50.2254 63.5004 50.8565 63.4996 51.5147V57.0148C63.5004 57.673 63.7623 58.3041 64.2278 58.7696C64.6933 59.2351 65.3243 59.4969 65.9826 59.4977V59.4977ZM66.4056 51.9347H71.2056V56.5918H66.4056V51.9347Z" fill="white"/>
<path d="M65.9826 71.3768H71.6286C72.2869 71.376 72.918 71.1141 73.3835 70.6486C73.849 70.1831 74.1108 69.5521 74.1116 68.8938V63.3938C74.1108 62.7355 73.849 62.1044 73.3835 61.6389C72.918 61.1734 72.2869 60.9116 71.6286 60.9108H65.9826C65.3243 60.9116 64.6933 61.1734 64.2278 61.6389C63.7623 62.1044 63.5004 62.7355 63.4996 63.3938V68.8938C63.5004 69.5521 63.7623 70.1831 64.2278 70.6486C64.6933 71.1141 65.3243 71.376 65.9826 71.3768V71.3768ZM66.4056 63.8138H71.2056V68.4708H66.4056V63.8138Z" fill="white"/>
<path d="M65.9826 83.2557H71.6286C72.2869 83.2549 72.918 82.993 73.3835 82.5276C73.849 82.0621 74.1108 81.431 74.1116 80.7727V75.2727C74.1108 74.6144 73.849 73.9833 73.3835 73.5178C72.918 73.0523 72.2869 72.7905 71.6286 72.7897H65.9826C65.3243 72.7905 64.6933 73.0523 64.2278 73.5178C63.7623 73.9833 63.5004 74.6144 63.4996 75.2727V80.7727C63.5004 81.431 63.7623 82.0621 64.2278 82.5276C64.6933 82.993 65.3243 83.2549 65.9826 83.2557V83.2557ZM66.4056 75.6927H71.2056V80.3497H66.4056V75.6927Z" fill="white"/>
<path d="M78.8757 59.4977H84.5217C85.18 59.4969 85.8111 59.2351 86.2766 58.7696C86.742 58.3041 87.0039 57.673 87.0047 57.0148V51.5147C87.0039 50.8565 86.742 50.2254 86.2766 49.7599C85.8111 49.2944 85.18 49.0325 84.5217 49.0317H78.8757C78.2174 49.0325 77.5863 49.2944 77.1208 49.7599C76.6553 50.2254 76.3935 50.8565 76.3927 51.5147V57.0148C76.3935 57.673 76.6553 58.3041 77.1208 58.7696C77.5863 59.2351 78.2174 59.4969 78.8757 59.4977ZM79.2987 51.9347H84.0987V56.5918H79.2987V51.9347Z" fill="white"/>
<path d="M78.8757 71.3768H84.5217C85.18 71.376 85.8111 71.1141 86.2766 70.6486C86.742 70.1831 87.0039 69.5521 87.0047 68.8938V63.3938C87.0039 62.7355 86.742 62.1044 86.2766 61.6389C85.8111 61.1734 85.18 60.9116 84.5217 60.9108H78.8757C78.2174 60.9116 77.5863 61.1734 77.1208 61.6389C76.6553 62.1044 76.3935 62.7355 76.3927 63.3938V68.8938C76.3935 69.5521 76.6553 70.1831 77.1208 70.6486C77.5863 71.1141 78.2174 71.376 78.8757 71.3768ZM79.2987 63.8138H84.0987V68.4708H79.2987V63.8138Z" fill="white"/>
<path d="M78.8757 83.2557H84.5217C85.18 83.2549 85.8111 82.993 86.2766 82.5276C86.742 82.0621 87.0039 81.431 87.0047 80.7727V75.2727C87.0039 74.6144 86.742 73.9833 86.2766 73.5178C85.8111 73.0523 85.18 72.7905 84.5217 72.7897H78.8757C78.2174 72.7905 77.5863 73.0523 77.1208 73.5178C76.6553 73.9833 76.3935 74.6144 76.3927 75.2727V80.7727C76.3935 81.431 76.6553 82.0621 77.1208 82.5276C77.5863 82.993 78.2174 83.2549 78.8757 83.2557V83.2557ZM79.2987 75.6927H84.0987V80.3497H79.2987V75.6927Z" fill="white"/>
<path d="M80.0327 34.4857C80.5158 34.8402 81.0994 35.0314 81.6987 35.0314C82.2979 35.0314 82.8816 34.8402 83.3647 34.4857C85.8777 32.6497 91.9077 27.6187 93.6077 20.5557C93.6978 20.1809 93.6355 19.7857 93.4342 19.457C93.233 19.1282 92.9094 18.8929 92.5347 18.8027C92.1599 18.7125 91.7647 18.7749 91.4359 18.9761C91.1072 19.1774 90.8719 19.5009 90.7817 19.8757C89.2817 26.1207 83.5127 30.7757 81.6977 32.1077C79.4147 30.4317 72.2447 24.5447 72.2447 16.8197C72.2413 14.57 73.0403 12.3929 74.498 10.6794C75.9558 8.96596 77.9768 7.8285 80.198 7.4714C82.4191 7.1143 84.6949 7.56097 86.6162 8.73115C88.5376 9.90133 89.9787 11.7183 90.6807 13.8557C90.8011 14.2218 91.062 14.5251 91.406 14.6989C91.7501 14.8726 92.149 14.9026 92.5152 14.7822C92.8813 14.6618 93.1846 14.4009 93.3584 14.0568C93.5321 13.7128 93.5621 13.3138 93.4417 12.9477C92.5215 10.1577 90.6377 7.78664 88.1279 6.25956C85.6182 4.73247 82.6466 4.14919 79.7458 4.61428C76.845 5.07937 74.2047 6.56241 72.2982 8.79757C70.3916 11.0327 69.3435 13.8739 69.3417 16.8117C69.3417 25.9617 77.5267 32.6507 80.0347 34.4827L80.0327 34.4857Z" fill="white"/>
<path d="M81.6997 9.94067C80.3402 9.94067 79.0111 10.3438 77.8807 11.0992C76.7503 11.8545 75.8692 12.928 75.3489 14.1841C74.8287 15.4402 74.6925 16.8223 74.9578 18.1557C75.223 19.4891 75.8777 20.714 76.8391 21.6753C77.8004 22.6367 79.0252 23.2914 80.3586 23.5566C81.6921 23.8218 83.0742 23.6857 84.3303 23.1654C85.5863 22.6451 86.6599 21.7641 87.4152 20.6337C88.1706 19.5032 88.5737 18.1742 88.5737 16.8147C88.5719 14.9921 87.847 13.2448 86.5583 11.9561C85.2696 10.6673 83.5222 9.94253 81.6997 9.94067V9.94067ZM81.6997 20.7817C80.9151 20.7817 80.1481 20.549 79.4958 20.1131C78.8434 19.6772 78.3349 19.0577 78.0347 18.3328C77.7344 17.6079 77.6559 16.8103 77.8089 16.0408C77.962 15.2712 78.3398 14.5644 78.8946 14.0096C79.4494 13.4548 80.1563 13.077 80.9258 12.9239C81.6953 12.7708 82.4929 12.8494 83.2178 13.1496C83.9427 13.4499 84.5622 13.9584 84.9981 14.6107C85.434 15.2631 85.6667 16.0301 85.6667 16.8147C85.6654 17.8664 85.247 18.8746 84.5033 19.6183C83.7597 20.362 82.7514 20.7804 81.6997 20.7817Z" fill="white"/>
</svg>
