<svg width="100" height="100" viewBox="0 0 100 100" fill="none" xmlns="http://www.w3.org/2000/svg">
<path d="M94.7827 89.1467H93.3297V44.4627C93.3286 43.4856 92.9398 42.5489 92.2488 41.8582C91.5577 41.1675 90.6207 40.7792 89.6437 40.7787H63.2767V5.23469C63.2751 3.92714 62.7547 2.67364 61.8299 1.74935C60.905 0.82505 59.6512 0.305481 58.3437 0.304688H12.2927C10.9856 0.306275 9.73258 0.826194 8.80837 1.7504C7.88416 2.67462 7.36424 3.92766 7.36265 5.23469V89.1467H5.90865C4.53881 89.1467 3.22507 89.6909 2.25645 90.6595C1.28782 91.6281 0.743652 92.9418 0.743652 94.3117C0.743652 95.6815 1.28782 96.9953 2.25645 97.9639C3.22507 98.9325 4.53881 99.4767 5.90865 99.4767H94.7827C96.1525 99.4767 97.4662 98.9325 98.4349 97.9639C99.4035 96.9953 99.9477 95.6815 99.9477 94.3117C99.9477 92.9418 99.4035 91.6281 98.4349 90.6595C97.4662 89.6909 96.1525 89.1467 94.7827 89.1467ZM10.2687 5.23469C10.2692 4.69805 10.4826 4.18355 10.8621 3.80409C11.2415 3.42463 11.756 3.21122 12.2927 3.21069H58.3437C58.8803 3.21122 59.3948 3.42463 59.7743 3.80409C60.1537 4.18355 60.3671 4.69805 60.3677 5.23469V40.7787H47.9677C46.9909 40.7797 46.0545 41.1682 45.3638 41.8589C44.6732 42.5495 44.2847 43.486 44.2837 44.4627V77.8817C44.2837 78.2671 44.4367 78.6366 44.7092 78.9091C44.9817 79.1816 45.3513 79.3347 45.7367 79.3347C46.122 79.3347 46.4916 79.1816 46.7641 78.9091C47.0366 78.6366 47.1897 78.2671 47.1897 77.8817V44.4627C47.1899 44.2565 47.272 44.0589 47.4179 43.9132C47.5638 43.7675 47.7615 43.6857 47.9677 43.6857H89.6437C89.8498 43.6857 90.0476 43.7675 90.1934 43.9132C90.3393 44.0589 90.4214 44.2565 90.4217 44.4627V89.1467H47.1887V84.6757C47.1887 84.2903 47.0356 83.9208 46.7631 83.6483C46.4906 83.3758 46.121 83.2227 45.7357 83.2227C45.3503 83.2227 44.9807 83.3758 44.7082 83.6483C44.4357 83.9208 44.2827 84.2903 44.2827 84.6757V89.1467H10.2687V5.23469ZM94.7827 96.5697H5.90865C5.31789 96.5573 4.75551 96.3138 4.34211 95.8916C3.9287 95.4695 3.69718 94.9021 3.69718 94.3112C3.69718 93.7203 3.9287 93.1529 4.34211 92.7307C4.75551 92.3085 5.31789 92.0651 5.90865 92.0527H94.7827C95.3734 92.0651 95.9358 92.3085 96.3492 92.7307C96.7626 93.1529 96.9941 93.7203 96.9941 94.3112C96.9941 94.9021 96.7626 95.4695 96.3492 95.8916C95.9358 96.3138 95.3734 96.5573 94.7827 96.5697V96.5697Z" fill="#3A3A3A"/>
<path d="M23.4776 9.15967H17.5156C16.752 9.16046 16.02 9.46415 15.48 10.0041C14.9401 10.544 14.6364 11.2761 14.6356 12.0397V18.0017C14.6364 18.7653 14.9401 19.4973 15.48 20.0373C16.02 20.5772 16.752 20.8809 17.5156 20.8817H23.4776C24.2412 20.8809 24.9733 20.5772 25.5132 20.0373C26.0531 19.4973 26.3568 18.7653 26.3576 18.0017V12.0397C26.3568 11.2761 26.0531 10.544 25.5132 10.0041C24.9733 9.46415 24.2412 9.16046 23.4776 9.15967V9.15967ZM23.4506 17.9727H17.5396V12.0657H23.4486L23.4506 17.9727Z" fill="#3A3A3A"/>
<path d="M38.3007 9.15967H32.3387C31.5753 9.16073 30.8435 9.46453 30.3038 10.0044C29.7641 10.5443 29.4605 11.2763 29.4597 12.0397V18.0017C29.4605 18.7651 29.7641 19.497 30.3038 20.0369C30.8435 20.5768 31.5753 20.8806 32.3387 20.8817H38.3007C39.0643 20.8809 39.7964 20.5772 40.3363 20.0373C40.8762 19.4973 41.1799 18.7653 41.1807 18.0017V12.0397C41.1799 11.2761 40.8762 10.544 40.3363 10.0041C39.7964 9.46415 39.0643 9.16046 38.3007 9.15967V9.15967ZM38.2737 17.9747H32.3647V12.0657H38.2737V17.9747Z" fill="#3A3A3A"/>
<path d="M47.1616 20.8817H53.1236C53.8872 20.8809 54.6193 20.5772 55.1592 20.0373C55.6991 19.4973 56.0028 18.7653 56.0036 18.0017V12.0397C56.0028 11.2761 55.6991 10.544 55.1592 10.0041C54.6193 9.46415 53.8872 9.16046 53.1236 9.15967H47.1616C46.398 9.16046 45.666 9.46415 45.126 10.0041C44.5861 10.544 44.2824 11.2761 44.2816 12.0397V18.0017C44.2824 18.7653 44.5861 19.4973 45.126 20.0373C45.666 20.5772 46.398 20.8809 47.1616 20.8817V20.8817ZM47.1886 12.0667H53.0976V17.9727H47.1886V12.0667Z" fill="#3A3A3A"/>
<path d="M23.4776 27.3007H17.5156C16.752 27.3015 16.02 27.6051 15.48 28.1451C14.9401 28.685 14.6364 29.4171 14.6356 30.1807V36.1427C14.6364 36.9062 14.9401 37.6383 15.48 38.1783C16.02 38.7182 16.752 39.0219 17.5156 39.0227H23.4776C24.2412 39.0219 24.9733 38.7182 25.5132 38.1783C26.0531 37.6383 26.3568 36.9062 26.3576 36.1427V30.1807C26.3568 29.4171 26.0531 28.685 25.5132 28.1451C24.9733 27.6051 24.2412 27.3015 23.4776 27.3007ZM23.4506 36.1157H17.5396V30.2066H23.4486L23.4506 36.1157Z" fill="#3A3A3A"/>
<path d="M38.3007 27.3007H32.3387C31.5753 27.3017 30.8435 27.6055 30.3038 28.1454C29.7641 28.6853 29.4605 29.4173 29.4597 30.1807V36.1427C29.4605 36.9061 29.7641 37.638 30.3038 38.1779C30.8435 38.7178 31.5753 39.0216 32.3387 39.0227H38.3007C39.0643 39.0219 39.7964 38.7182 40.3363 38.1783C40.8762 37.6383 41.1799 36.9062 41.1807 36.1427V30.1807C41.1799 29.4171 40.8762 28.685 40.3363 28.1451C39.7964 27.6051 39.0643 27.3015 38.3007 27.3007V27.3007ZM38.2737 36.1157H32.3647V30.2066H38.2737V36.1157Z" fill="#3A3A3A"/>
<path d="M47.1616 39.0217H53.1236C53.8872 39.0209 54.6193 38.7172 55.1592 38.1773C55.6991 37.6373 56.0028 36.9053 56.0036 36.1417V30.1797C56.0028 29.4161 55.6991 28.684 55.1592 28.1441C54.6193 27.6042 53.8872 27.3005 53.1236 27.2997H47.1616C46.398 27.3005 45.666 27.6042 45.126 28.1441C44.5861 28.684 44.2824 29.4161 44.2816 30.1797V36.1417C44.2824 36.9053 44.5861 37.6373 45.126 38.1773C45.666 38.7172 46.398 39.0209 47.1616 39.0217V39.0217ZM47.1886 30.2067H53.0976V36.1157H47.1886V30.2067Z" fill="#3A3A3A"/>
<path d="M23.4776 45.4407H17.5156C16.752 45.4415 16.02 45.7452 15.48 46.2851C14.9401 46.825 14.6364 47.5571 14.6356 48.3207V54.2827C14.6364 55.0463 14.9401 55.7783 15.48 56.3183C16.02 56.8582 16.752 57.1619 17.5156 57.1627H23.4776C24.2412 57.1619 24.9733 56.8582 25.5132 56.3183C26.0531 55.7783 26.3568 55.0463 26.3576 54.2827V48.3207C26.3568 47.5571 26.0531 46.825 25.5132 46.2851C24.9733 45.7452 24.2412 45.4415 23.4776 45.4407V45.4407ZM23.4506 54.2557H17.5396V48.3467H23.4486L23.4506 54.2557Z" fill="#3A3A3A"/>
<path d="M38.3007 45.4407H32.3387C31.5753 45.4417 30.8435 45.7455 30.3038 46.2854C29.7641 46.8254 29.4605 47.5573 29.4597 48.3207V54.2827C29.4605 55.0461 29.7641 55.778 30.3038 56.3179C30.8435 56.8578 31.5753 57.1616 32.3387 57.1627H38.3007C39.0643 57.1619 39.7964 56.8582 40.3363 56.3183C40.8762 55.7783 41.1799 55.0463 41.1807 54.2827V48.3207C41.1799 47.5571 40.8762 46.825 40.3363 46.2851C39.7964 45.7452 39.0643 45.4415 38.3007 45.4407V45.4407ZM38.2737 54.2557H32.3647V48.3467H38.2737V54.2557Z" fill="#3A3A3A"/>
<path d="M23.4776 63.5817H17.5156C16.7522 63.5825 16.0203 63.886 15.4804 64.4257C14.9405 64.9654 14.6367 65.6973 14.6356 66.4607V72.4207C14.6364 73.1842 14.9401 73.9163 15.48 74.4562C16.02 74.9962 16.752 75.2999 17.5156 75.3007H23.4776C24.2412 75.2999 24.9733 74.9962 25.5132 74.4562C26.0531 73.9163 26.3568 73.1842 26.3576 72.4207V66.4607C26.3566 65.6973 26.0528 64.9654 25.5129 64.4257C24.973 63.886 24.241 63.5825 23.4776 63.5817V63.5817ZM23.4506 72.3967H17.5396V66.4876H23.4486L23.4506 72.3967Z" fill="#3A3A3A"/>
<path d="M38.3007 63.5817H32.3387C31.5755 63.5827 30.8438 63.8864 30.3041 64.4261C29.7644 64.9657 29.4608 65.6974 29.4597 66.4607V72.4207C29.4605 73.1841 29.7641 73.916 30.3038 74.4559C30.8435 74.9958 31.5753 75.2996 32.3387 75.3007H38.3007C39.0643 75.2999 39.7964 74.9962 40.3363 74.4562C40.8762 73.9163 41.1799 73.1842 41.1807 72.4207V66.4607C41.1797 65.6973 40.8759 64.9654 40.336 64.4257C39.796 63.886 39.0641 63.5825 38.3007 63.5817ZM38.2737 72.3967H32.3647V66.4876H38.2737V72.3967Z" fill="#3A3A3A"/>
<path d="M53.0886 58.9737H58.7346C59.3929 58.9729 60.024 58.711 60.4895 58.2456C60.955 57.7801 61.2168 57.149 61.2176 56.4907V50.9907C61.2168 50.3324 60.955 49.7013 60.4895 49.2358C60.024 48.7703 59.3929 48.5085 58.7346 48.5077H53.0886C52.4303 48.5085 51.7992 48.7703 51.3337 49.2358C50.8683 49.7013 50.6064 50.3324 50.6056 50.9907V56.4907C50.6064 57.149 50.8683 57.7801 51.3337 58.2456C51.7992 58.711 52.4303 58.9729 53.0886 58.9737ZM53.5116 51.4107H58.3116V56.0677H53.5116V51.4107Z" fill="#3A3A3A"/>
<path d="M53.0886 70.8527H58.7346C59.3929 70.8519 60.024 70.5901 60.4895 70.1246C60.955 69.6591 61.2168 69.028 61.2176 68.3697V62.8697C61.2168 62.2114 60.955 61.5803 60.4895 61.1148C60.024 60.6494 59.3929 60.3875 58.7346 60.3867H53.0886C52.4303 60.3875 51.7992 60.6494 51.3337 61.1148C50.8683 61.5803 50.6064 62.2114 50.6056 62.8697V68.3697C50.6064 69.028 50.8683 69.6591 51.3337 70.1246C51.7992 70.5901 52.4303 70.8519 53.0886 70.8527ZM53.5116 63.2897H58.3116V67.9467H53.5116V63.2897Z" fill="#3A3A3A"/>
<path d="M53.0886 82.7316H58.7346C59.3929 82.7308 60.024 82.469 60.4895 82.0035C60.955 81.538 61.2168 80.9069 61.2176 80.2486V74.7486C61.2168 74.0903 60.955 73.4593 60.4895 72.9938C60.024 72.5283 59.3929 72.2664 58.7346 72.2656H53.0886C52.4303 72.2664 51.7992 72.5283 51.3337 72.9938C50.8683 73.4593 50.6064 74.0903 50.6056 74.7486V80.2486C50.6064 80.9069 50.8683 81.538 51.3337 82.0035C51.7992 82.469 52.4303 82.7308 53.0886 82.7316V82.7316ZM53.5116 75.1686H58.3116V79.8256H53.5116V75.1686Z" fill="#3A3A3A"/>
<path d="M65.9826 58.9737H71.6286C72.2869 58.9729 72.918 58.711 73.3835 58.2456C73.849 57.7801 74.1108 57.149 74.1116 56.4907V50.9907C74.1108 50.3324 73.849 49.7013 73.3835 49.2358C72.918 48.7703 72.2869 48.5085 71.6286 48.5077H65.9826C65.3243 48.5085 64.6933 48.7703 64.2278 49.2358C63.7623 49.7013 63.5004 50.3324 63.4996 50.9907V56.4907C63.5004 57.149 63.7623 57.7801 64.2278 58.2456C64.6933 58.711 65.3243 58.9729 65.9826 58.9737V58.9737ZM66.4056 51.4107H71.2056V56.0677H66.4056V51.4107Z" fill="#3A3A3A"/>
<path d="M65.9826 70.8527H71.6286C72.2869 70.8519 72.918 70.5901 73.3835 70.1246C73.849 69.6591 74.1108 69.028 74.1116 68.3697V62.8697C74.1108 62.2114 73.849 61.5803 73.3835 61.1148C72.918 60.6494 72.2869 60.3875 71.6286 60.3867H65.9826C65.3243 60.3875 64.6933 60.6494 64.2278 61.1148C63.7623 61.5803 63.5004 62.2114 63.4996 62.8697V68.3697C63.5004 69.028 63.7623 69.6591 64.2278 70.1246C64.6933 70.5901 65.3243 70.8519 65.9826 70.8527V70.8527ZM66.4056 63.2897H71.2056V67.9467H66.4056V63.2897Z" fill="#3A3A3A"/>
<path d="M65.9826 82.7316H71.6286C72.2869 82.7308 72.918 82.469 73.3835 82.0035C73.849 81.538 74.1108 80.9069 74.1116 80.2486V74.7486C74.1108 74.0903 73.849 73.4593 73.3835 72.9938C72.918 72.5283 72.2869 72.2664 71.6286 72.2656H65.9826C65.3243 72.2664 64.6933 72.5283 64.2278 72.9938C63.7623 73.4593 63.5004 74.0903 63.4996 74.7486V80.2486C63.5004 80.9069 63.7623 81.538 64.2278 82.0035C64.6933 82.469 65.3243 82.7308 65.9826 82.7316V82.7316ZM66.4056 75.1686H71.2056V79.8256H66.4056V75.1686Z" fill="#3A3A3A"/>
<path d="M78.8757 58.9737H84.5217C85.18 58.9729 85.8111 58.711 86.2766 58.2456C86.742 57.7801 87.0039 57.149 87.0047 56.4907V50.9907C87.0039 50.3324 86.742 49.7013 86.2766 49.2358C85.8111 48.7703 85.18 48.5085 84.5217 48.5077H78.8757C78.2174 48.5085 77.5863 48.7703 77.1208 49.2358C76.6553 49.7013 76.3935 50.3324 76.3927 50.9907V56.4907C76.3935 57.149 76.6553 57.7801 77.1208 58.2456C77.5863 58.711 78.2174 58.9729 78.8757 58.9737ZM79.2987 51.4107H84.0987V56.0677H79.2987V51.4107Z" fill="#3A3A3A"/>
<path d="M78.8757 70.8527H84.5217C85.18 70.8519 85.8111 70.5901 86.2766 70.1246C86.742 69.6591 87.0039 69.028 87.0047 68.3697V62.8697C87.0039 62.2114 86.742 61.5803 86.2766 61.1148C85.8111 60.6494 85.18 60.3875 84.5217 60.3867H78.8757C78.2174 60.3875 77.5863 60.6494 77.1208 61.1148C76.6553 61.5803 76.3935 62.2114 76.3927 62.8697V68.3697C76.3935 69.028 76.6553 69.6591 77.1208 70.1246C77.5863 70.5901 78.2174 70.8519 78.8757 70.8527ZM79.2987 63.2897H84.0987V67.9467H79.2987V63.2897Z" fill="#3A3A3A"/>
<path d="M78.8757 82.7316H84.5217C85.18 82.7308 85.8111 82.469 86.2766 82.0035C86.742 81.538 87.0039 80.9069 87.0047 80.2486V74.7486C87.0039 74.0903 86.742 73.4593 86.2766 72.9938C85.8111 72.5283 85.18 72.2664 84.5217 72.2656H78.8757C78.2174 72.2664 77.5863 72.5283 77.1208 72.9938C76.6553 73.4593 76.3935 74.0903 76.3927 74.7486V80.2486C76.3935 80.9069 76.6553 81.538 77.1208 82.0035C77.5863 82.469 78.2174 82.7308 78.8757 82.7316V82.7316ZM79.2987 75.1686H84.0987V79.8256H79.2987V75.1686Z" fill="#3A3A3A"/>
<path d="M80.0327 33.9616C80.5158 34.3162 81.0994 34.5073 81.6987 34.5073C82.2979 34.5073 82.8816 34.3162 83.3647 33.9616C85.8777 32.1256 91.9077 27.0946 93.6077 20.0316C93.6978 19.6569 93.6355 19.2617 93.4342 18.9329C93.233 18.6042 92.9094 18.3688 92.5347 18.2786C92.1599 18.1885 91.7647 18.2509 91.4359 18.4521C91.1072 18.6533 90.8719 18.9769 90.7817 19.3516C89.2817 25.5966 83.5127 30.2516 81.6977 31.5836C79.4147 29.9076 72.2447 24.0206 72.2447 16.2956C72.2413 14.046 73.0403 11.8688 74.498 10.1554C75.9558 8.44191 77.9768 7.30445 80.198 6.94736C82.4191 6.59026 84.6949 7.03692 86.6162 8.2071C88.5376 9.37729 89.9787 11.1943 90.6807 13.3316C90.8011 13.6978 91.062 14.0011 91.406 14.1748C91.7501 14.3486 92.149 14.3786 92.5152 14.2581C92.8813 14.1377 93.1846 13.8768 93.3584 13.5328C93.5321 13.1887 93.5621 12.7898 93.4417 12.4236C92.5215 9.63364 90.6377 7.26259 88.1279 5.73551C85.6182 4.20842 82.6466 3.62514 79.7458 4.09023C76.845 4.55532 74.2047 6.03836 72.2982 8.27352C70.3916 10.5087 69.3435 13.3498 69.3417 16.2876C69.3417 25.4376 77.5267 32.1266 80.0347 33.9586L80.0327 33.9616Z" fill="#3A3A3A"/>
<path d="M81.6997 9.41675C80.3402 9.41675 79.0111 9.8199 77.8807 10.5752C76.7503 11.3306 75.8692 12.4041 75.3489 13.6602C74.8287 14.9162 74.6925 16.2984 74.9578 17.6318C75.223 18.9652 75.8777 20.1901 76.8391 21.1514C77.8004 22.1127 79.0252 22.7674 80.3586 23.0327C81.6921 23.2979 83.0742 23.1618 84.3303 22.6415C85.5863 22.1212 86.6599 21.2402 87.4152 20.1097C88.1706 18.9793 88.5737 17.6503 88.5737 16.2907C88.5719 14.4682 87.847 12.7209 86.5583 11.4321C85.2696 10.1434 83.5222 9.4186 81.6997 9.41675V9.41675ZM81.6997 20.2577C80.9151 20.2577 80.1481 20.0251 79.4958 19.5892C78.8434 19.1533 78.3349 18.5337 78.0347 17.8089C77.7344 17.084 77.6559 16.2863 77.8089 15.5168C77.962 14.7473 78.3398 14.0405 78.8946 13.4857C79.4494 12.9309 80.1563 12.553 80.9258 12.4C81.6953 12.2469 82.4929 12.3255 83.2178 12.6257C83.9427 12.926 84.5622 13.4344 84.9981 14.0868C85.434 14.7392 85.6667 15.5062 85.6667 16.2907C85.6654 17.3425 85.247 18.3507 84.5033 19.0944C83.7597 19.838 82.7514 20.2564 81.6997 20.2577Z" fill="#3A3A3A"/>
</svg>
