<svg width="100" height="100" viewBox="0 0 100 100" fill="none" xmlns="http://www.w3.org/2000/svg">
<path d="M88.9443 92.5346C89.2461 92.5337 89.5403 92.4401 89.7871 92.2666C90.0339 92.0931 90.2215 91.8479 90.3245 91.5643C90.4274 91.2807 90.4408 90.9723 90.3628 90.6808C90.2848 90.3894 90.1192 90.1289 89.8883 89.9346L66.4063 70.3836C66.1061 70.1336 65.7189 70.0132 65.3299 70.0487C64.9408 70.0843 64.5818 70.2729 64.3319 70.5731C64.0819 70.8733 63.9614 71.2606 63.997 71.6496C64.0325 72.0387 64.2211 72.3976 64.5214 72.6476L88.0034 92.1986C88.268 92.4174 88.601 92.5363 88.9443 92.5346V92.5346Z" fill="white"/>
<path d="M33.2054 70.3776L9.72338 89.9286C9.42315 90.1786 9.23452 90.5375 9.19898 90.9266C9.16344 91.3156 9.28391 91.7029 9.53388 92.0031C9.78385 92.3033 10.1428 92.4919 10.5319 92.5275C10.9209 92.563 11.3082 92.4426 11.6084 92.1926L35.0914 72.6406C35.3814 72.3876 35.5608 72.0312 35.5914 71.6475C35.6219 71.2639 35.5011 70.8836 35.2548 70.5879C35.0085 70.2922 34.6563 70.1046 34.2735 70.0653C33.8906 70.026 33.5076 70.1381 33.2064 70.3776H33.2054Z" fill="white"/>
<path d="M99.3853 37.1206C99.3853 36.9046 99.3379 36.6912 99.2463 36.4956C99.1547 36.3 99.0212 36.1269 98.8553 35.9886L88.4853 27.3546V17.9026C88.4816 14.6803 87.1999 11.591 84.9214 9.31249C82.6429 7.03398 79.5536 5.75228 76.3313 5.74858H62.5313L61.8683 5.19658C58.4804 2.37428 54.2103 0.828735 49.8008 0.828735C45.3913 0.828735 41.1213 2.37428 37.7333 5.19658L37.0703 5.74858H34.0963C33.7057 5.74858 33.331 5.90377 33.0548 6.18001C32.7785 6.45625 32.6233 6.83091 32.6233 7.22158C32.6233 7.61224 32.7785 7.98691 33.0548 8.26315C33.331 8.53939 33.7057 8.69458 34.0963 8.69458H76.3313C78.7729 8.69723 81.1137 9.66831 82.8402 11.3948C84.5666 13.1212 85.5377 15.462 85.5403 17.9036V28.0366V45.5056L59.9863 66.7816C57.1277 69.1629 53.5249 70.467 49.8043 70.467C46.0838 70.467 42.4809 69.1629 39.6223 66.7816L14.0703 45.5056V17.9056C14.0733 15.4637 15.0447 13.1228 16.7715 11.3963C18.4983 9.66989 20.8395 8.69896 23.2813 8.69658H28.2053C28.3988 8.69658 28.5903 8.65848 28.769 8.58445C28.9477 8.51043 29.1101 8.40193 29.2469 8.26515C29.3837 8.12837 29.4922 7.96598 29.5662 7.78727C29.6402 7.60856 29.6783 7.41702 29.6783 7.22358C29.6783 7.03014 29.6402 6.8386 29.5662 6.65989C29.4922 6.48117 29.3837 6.31879 29.2469 6.18201C29.1101 6.04523 28.9477 5.93673 28.769 5.8627C28.5903 5.78868 28.3988 5.75058 28.2053 5.75058H23.2813C20.0591 5.75402 16.9698 7.03529 14.691 9.31337C12.4121 11.5915 11.1298 14.6804 11.1253 17.9026V27.3546L0.755342 35.9896C0.590923 36.1263 0.458319 36.2973 0.36678 36.4906C0.275242 36.6838 0.226973 36.8947 0.225342 37.1086C0.225342 37.1086 0.225342 37.1166 0.225342 37.1206V89.2906C0.228783 92.1299 1.35829 94.8519 3.36609 96.8595C5.37389 98.8671 8.09602 99.9964 10.9353 99.9996H76.9023C77.2929 99.9996 77.6674 99.8444 77.9436 99.5683C78.2197 99.2921 78.3748 98.9176 78.3748 98.5271C78.3748 98.1365 78.2197 97.762 77.9436 97.4859C77.6674 97.2097 77.2929 97.0546 76.9023 97.0546H10.9343C8.87593 97.0522 6.90251 96.2334 5.447 94.7779C3.99148 93.3224 3.17272 91.349 3.17034 89.2906V40.2626L11.6603 47.3326L37.7363 69.0456C41.1243 71.8674 45.3941 73.4127 49.8033 73.4127C54.2126 73.4127 58.4824 71.8674 61.8703 69.0456L87.9433 47.3366L87.9553 47.3256L96.4383 40.2626V89.2906C96.436 91.349 95.6172 93.3224 94.1617 94.7779C92.7062 96.2334 90.7327 97.0522 88.6743 97.0546H82.7933C82.4027 97.0546 82.028 97.2098 81.7518 97.486C81.4755 97.7622 81.3203 98.1369 81.3203 98.5276C81.3203 98.9182 81.4755 99.2929 81.7518 99.5691C82.028 99.8454 82.4027 100.001 82.7933 100.001H88.6743C91.5138 99.9974 94.2361 98.868 96.2439 96.8602C98.2518 94.8524 99.3812 92.1301 99.3843 89.2906V37.1276C99.3843 37.1276 99.3843 37.1196 99.3843 37.1156L99.3853 37.1206ZM57.4783 5.74858H42.1323C44.4829 4.45496 47.1223 3.77662 49.8053 3.77662C52.4883 3.77662 55.1278 4.45496 57.4783 5.74858ZM11.1253 31.1876V43.0536L3.99934 37.1206L11.1253 31.1876ZM88.4853 43.0526V31.1876L95.6113 37.1206L88.4853 43.0526Z" fill="white"/>
<path d="M71.4034 41.6256H28.2033C27.8127 41.6256 27.438 41.7808 27.1618 42.057C26.8855 42.3333 26.7303 42.708 26.7303 43.0986C26.7303 43.4893 26.8855 43.8639 27.1618 44.1402C27.438 44.4164 27.8127 44.5716 28.2033 44.5716H71.4034C71.794 44.5716 72.1687 44.4164 72.4449 44.1402C72.7212 43.8639 72.8763 43.4893 72.8763 43.0986C72.8763 42.708 72.7212 42.3333 72.4449 42.057C72.1687 41.7808 71.794 41.6256 71.4034 41.6256V41.6256Z" fill="white"/>
<path d="M71.4034 50.1776H28.2034C28.0068 50.1725 27.8112 50.2068 27.628 50.2785C27.4449 50.3502 27.278 50.4578 27.1371 50.5951C26.9962 50.7323 26.8843 50.8964 26.8078 51.0776C26.7314 51.2588 26.692 51.4535 26.692 51.6501C26.692 51.8468 26.7314 52.0415 26.8078 52.2227C26.8843 52.4039 26.9962 52.5679 27.1371 52.7052C27.278 52.8424 27.4449 52.95 27.628 53.0217C27.8112 53.0934 28.0068 53.1278 28.2034 53.1226H71.4034C71.6 53.1278 71.7956 53.0934 71.9788 53.0217C72.1619 52.95 72.3288 52.8424 72.4697 52.7052C72.6105 52.5679 72.7225 52.4039 72.7989 52.2227C72.8754 52.0415 72.9148 51.8468 72.9148 51.6501C72.9148 51.4535 72.8754 51.2588 72.7989 51.0776C72.7225 50.8964 72.6105 50.7323 72.4697 50.5951C72.3288 50.4578 72.1619 50.3502 71.9788 50.2785C71.7956 50.2068 71.6 50.1725 71.4034 50.1776V50.1776Z" fill="white"/>
<path d="M71.4034 24.5186H28.2033C27.8127 24.5186 27.438 24.6737 27.1618 24.95C26.8855 25.2262 26.7303 25.6009 26.7303 25.9916C26.7303 26.3822 26.8855 26.7569 27.1618 27.0331C27.438 27.3094 27.8127 27.4646 28.2033 27.4646H71.4034C71.794 27.4646 72.1687 27.3094 72.4449 27.0331C72.7212 26.7569 72.8763 26.3822 72.8763 25.9916C72.8763 25.6009 72.7212 25.2262 72.4449 24.95C72.1687 24.6737 71.794 24.5186 71.4034 24.5186V24.5186Z" fill="white"/>
<path d="M71.4043 33.0726H60.6043C60.2138 33.0726 59.8393 33.2278 59.5631 33.5039C59.287 33.7801 59.1318 34.1546 59.1318 34.5451C59.1318 34.9357 59.287 35.3102 59.5631 35.5863C59.8393 35.8625 60.2138 36.0176 60.6043 36.0176H71.4043C71.7949 36.0176 72.1694 35.8625 72.4456 35.5863C72.7217 35.3102 72.8768 34.9357 72.8768 34.5451C72.8768 34.1546 72.7217 33.7801 72.4456 33.5039C72.1694 33.2278 71.7949 33.0726 71.4043 33.0726V33.0726Z" fill="white"/>
<path d="M28.2074 36.0176H55.6974C56.0879 36.0176 56.4624 35.8625 56.7386 35.5863C57.0147 35.3102 57.1699 34.9357 57.1699 34.5451C57.1699 34.1546 57.0147 33.7801 56.7386 33.5039C56.4624 33.2278 56.0879 33.0726 55.6974 33.0726H28.2074C27.8168 33.0726 27.4423 33.2278 27.1661 33.5039C26.89 33.7801 26.7349 34.1546 26.7349 34.5451C26.7349 34.9357 26.89 35.3102 27.1661 35.5863C27.4423 35.8625 27.8168 36.0176 28.2074 36.0176V36.0176Z" fill="white"/>
</svg>
