<svg width="100" height="100" viewBox="0 0 100 100" fill="none" xmlns="http://www.w3.org/2000/svg">
<path d="M88.9443 92.0105C89.2461 92.0096 89.5403 91.9161 89.7871 91.7426C90.0339 91.569 90.2215 91.3239 90.3245 91.0403C90.4274 90.7567 90.4408 90.4482 90.3628 90.1568C90.2848 89.8653 90.1192 89.6048 89.8883 89.4106L66.4063 69.8595C66.1061 69.6096 65.7189 69.4891 65.3299 69.5247C64.9408 69.5602 64.5818 69.7488 64.3319 70.0491C64.0819 70.3493 63.9614 70.7365 63.997 71.1256C64.0325 71.5146 64.2211 71.8736 64.5214 72.1235L88.0034 91.6745C88.268 91.8934 88.601 92.0123 88.9443 92.0105V92.0105Z" fill="#3A3A3A"/>
<path d="M33.2054 69.8536L9.72338 89.4046C9.42315 89.6545 9.23452 90.0135 9.19898 90.4025C9.16344 90.7916 9.28391 91.1788 9.53388 91.479C9.78385 91.7793 10.1428 91.9679 10.5319 92.0034C10.9209 92.039 11.3082 91.9185 11.6084 91.6686L35.0914 72.1166C35.3814 71.8636 35.5608 71.5071 35.5914 71.1235C35.6219 70.7399 35.5011 70.3595 35.2548 70.0638C35.0085 69.7681 34.6563 69.5806 34.2735 69.5413C33.8906 69.502 33.5076 69.6141 33.2064 69.8536H33.2054Z" fill="#3A3A3A"/>
<path d="M99.3853 36.5965C99.3853 36.3805 99.3379 36.1672 99.2463 35.9716C99.1547 35.776 99.0212 35.6029 98.8553 35.4645L88.4853 26.8305V17.3785C88.4816 14.1562 87.1999 11.067 84.9214 8.78845C82.6429 6.50993 79.5536 5.22824 76.3313 5.22453H62.5313L61.8683 4.67253C58.4804 1.85023 54.2103 0.304688 49.8008 0.304688C45.3913 0.304688 41.1213 1.85023 37.7333 4.67253L37.0703 5.22453H34.0963C33.7057 5.22453 33.331 5.37972 33.0548 5.65596C32.7785 5.9322 32.6233 6.30687 32.6233 6.69753C32.6233 7.08819 32.7785 7.46286 33.0548 7.7391C33.331 8.01534 33.7057 8.17053 34.0963 8.17053H76.3313C78.7729 8.17318 81.1137 9.14426 82.8402 10.8707C84.5666 12.5972 85.5377 14.938 85.5403 17.3795V27.5125V44.9815L59.9863 66.2575C57.1277 68.6389 53.5249 69.943 49.8043 69.943C46.0838 69.943 42.4809 68.6389 39.6223 66.2575L14.0703 44.9815V17.3815C14.0733 14.9397 15.0447 12.5987 16.7715 10.8723C18.4983 9.14584 20.8395 8.17491 23.2813 8.17253H28.2053C28.3988 8.17253 28.5903 8.13443 28.769 8.0604C28.9477 7.98638 29.1101 7.87788 29.2469 7.7411C29.3837 7.60432 29.4922 7.44194 29.5662 7.26322C29.6402 7.08451 29.6783 6.89297 29.6783 6.69953C29.6783 6.50609 29.6402 6.31455 29.5662 6.13584C29.4922 5.95712 29.3837 5.79474 29.2469 5.65796C29.1101 5.52118 28.9477 5.41268 28.769 5.33866C28.5903 5.26463 28.3988 5.22653 28.2053 5.22653H23.2813C20.0591 5.22997 16.9698 6.51124 14.691 8.78932C12.4121 11.0674 11.1298 14.1563 11.1253 17.3785V26.8305L0.755342 35.4655C0.590923 35.6023 0.458319 35.7732 0.36678 35.9665C0.275242 36.1598 0.226973 36.3707 0.225342 36.5845C0.225342 36.5845 0.225342 36.5925 0.225342 36.5965V88.7665C0.228783 91.6058 1.35829 94.3279 3.36609 96.3355C5.37389 98.3431 8.09602 99.4723 10.9353 99.4755H76.9023C77.2929 99.4755 77.6674 99.3204 77.9436 99.0442C78.2197 98.7681 78.3748 98.3936 78.3748 98.003C78.3748 97.6125 78.2197 97.238 77.9436 96.9618C77.6674 96.6857 77.2929 96.5305 76.9023 96.5305H10.9343C8.87593 96.5281 6.90251 95.7094 5.447 94.2539C3.99148 92.7984 3.17272 90.8249 3.17034 88.7665V39.7385L11.6603 46.8085L37.7363 68.5215C41.1243 71.3434 45.3941 72.8886 49.8033 72.8886C54.2126 72.8886 58.4824 71.3434 61.8703 68.5215L87.9433 46.8125L87.9553 46.8015L96.4383 39.7385V88.7665C96.436 90.8249 95.6172 92.7984 94.1617 94.2539C92.7062 95.7094 90.7327 96.5281 88.6743 96.5305H82.7933C82.4027 96.5305 82.028 96.6857 81.7518 96.962C81.4755 97.2382 81.3203 97.6129 81.3203 98.0035C81.3203 98.3942 81.4755 98.7689 81.7518 99.0451C82.028 99.3213 82.4027 99.4765 82.7933 99.4765H88.6743C91.5138 99.4733 94.2361 98.344 96.2439 96.3361C98.2518 94.3283 99.3812 91.606 99.3843 88.7665V36.6035C99.3843 36.6035 99.3843 36.5955 99.3843 36.5915L99.3853 36.5965ZM57.4783 5.22453H42.1323C44.4829 3.93091 47.1223 3.25257 49.8053 3.25257C52.4883 3.25257 55.1278 3.93091 57.4783 5.22453ZM11.1253 30.6635V42.5295L3.99934 36.5965L11.1253 30.6635ZM88.4853 42.5285V30.6635L95.6113 36.5965L88.4853 42.5285Z" fill="#3A3A3A"/>
<path d="M71.4034 41.1016H28.2033C27.8127 41.1016 27.438 41.2567 27.1618 41.533C26.8855 41.8092 26.7303 42.1839 26.7303 42.5746C26.7303 42.9652 26.8855 43.3399 27.1618 43.6161C27.438 43.8924 27.8127 44.0476 28.2033 44.0476H71.4034C71.794 44.0476 72.1687 43.8924 72.4449 43.6161C72.7212 43.3399 72.8763 42.9652 72.8763 42.5746C72.8763 42.1839 72.7212 41.8092 72.4449 41.533C72.1687 41.2567 71.794 41.1016 71.4034 41.1016V41.1016Z" fill="#3A3A3A"/>
<path d="M71.4034 49.6536H28.2034C28.0068 49.6485 27.8112 49.6827 27.628 49.7544C27.4449 49.8261 27.278 49.9338 27.1371 50.071C26.9962 50.2083 26.8843 50.3723 26.8078 50.5535C26.7314 50.7347 26.692 50.9294 26.692 51.1261C26.692 51.3227 26.7314 51.5174 26.8078 51.6986C26.8843 51.8798 26.9962 52.0439 27.1371 52.1811C27.278 52.3184 27.4449 52.426 27.628 52.4977C27.8112 52.5694 28.0068 52.6037 28.2034 52.5986H71.4034C71.6 52.6037 71.7956 52.5694 71.9788 52.4977C72.1619 52.426 72.3288 52.3184 72.4697 52.1811C72.6105 52.0439 72.7225 51.8798 72.7989 51.6986C72.8754 51.5174 72.9148 51.3227 72.9148 51.1261C72.9148 50.9294 72.8754 50.7347 72.7989 50.5535C72.7225 50.3723 72.6105 50.2083 72.4697 50.071C72.3288 49.9338 72.1619 49.8261 71.9788 49.7544C71.7956 49.6827 71.6 49.6485 71.4034 49.6536V49.6536Z" fill="#3A3A3A"/>
<path d="M71.4034 23.9945H28.2033C27.8127 23.9945 27.438 24.1497 27.1618 24.4259C26.8855 24.7022 26.7303 25.0768 26.7303 25.4675C26.7303 25.8582 26.8855 26.2328 27.1618 26.5091C27.438 26.7853 27.8127 26.9405 28.2033 26.9405H71.4034C71.794 26.9405 72.1687 26.7853 72.4449 26.5091C72.7212 26.2328 72.8763 25.8582 72.8763 25.4675C72.8763 25.0768 72.7212 24.7022 72.4449 24.4259C72.1687 24.1497 71.794 23.9945 71.4034 23.9945V23.9945Z" fill="#3A3A3A"/>
<path d="M71.4043 32.5486H60.6043C60.2138 32.5486 59.8393 32.7037 59.5631 32.9799C59.287 33.256 59.1318 33.6306 59.1318 34.0211C59.1318 34.4116 59.287 34.7862 59.5631 35.0623C59.8393 35.3384 60.2138 35.4936 60.6043 35.4936H71.4043C71.7949 35.4936 72.1694 35.3384 72.4456 35.0623C72.7217 34.7862 72.8768 34.4116 72.8768 34.0211C72.8768 33.6306 72.7217 33.256 72.4456 32.9799C72.1694 32.7037 71.7949 32.5486 71.4043 32.5486V32.5486Z" fill="#3A3A3A"/>
<path d="M28.2074 35.4936H55.6974C56.0879 35.4936 56.4624 35.3384 56.7386 35.0623C57.0147 34.7862 57.1699 34.4116 57.1699 34.0211C57.1699 33.6306 57.0147 33.256 56.7386 32.9799C56.4624 32.7037 56.0879 32.5486 55.6974 32.5486H28.2074C27.8168 32.5486 27.4423 32.7037 27.1661 32.9799C26.89 33.256 26.7349 33.6306 26.7349 34.0211C26.7349 34.4116 26.89 34.7862 27.1661 35.0623C27.4423 35.3384 27.8168 35.4936 28.2074 35.4936V35.4936Z" fill="#3A3A3A"/>
</svg>
