<svg width="122" height="127" viewBox="0 0 122 127" fill="none" xmlns="http://www.w3.org/2000/svg">
<path d="M87.4922 82.7142L69.7274 79.6479C67.712 79.2846 65.6331 79.6496 63.862 80.6776C62.0908 81.7057 60.7428 83.3299 60.0587 85.2601L60.051 85.2809L60.027 85.349C60.0175 85.3792 60.0016 85.407 59.9805 85.4306C59.9594 85.4542 59.9336 85.473 59.9046 85.4859C59.882 85.4965 59.8572 85.5018 59.8322 85.5016C59.8072 85.5013 59.7825 85.4955 59.7601 85.4844C49.3696 80.8941 41.1624 72.4557 36.8625 61.9417C36.8544 61.9218 36.8507 61.9004 36.8516 61.8789C36.8526 61.8575 36.8581 61.8365 36.868 61.8174C36.8799 61.7921 36.8972 61.7697 36.9186 61.7518C36.94 61.7338 36.965 61.7207 36.9919 61.7132L37.0811 61.6845C39.0364 61.0542 40.7034 59.7484 41.7836 58.0009C42.8637 56.2534 43.2864 54.1784 42.976 52.1477L40.1749 32.7641C39.9845 31.4319 39.3817 30.1927 38.451 29.2207C37.5204 28.2486 36.3087 27.5923 34.986 27.3441C33.9789 27.1455 32.9557 27.0394 31.9292 27.0273C27.3801 26.9577 22.9786 28.6409 19.6368 31.7281C16.2949 34.8154 14.2689 39.07 13.9784 43.6103C13.9433 44.1985 13.9413 44.7909 13.952 45.3808L13.9548 45.3849C13.9566 47.0859 14.0585 48.7854 14.2599 50.4744L14.2992 50.8616C14.3415 51.2963 15.3534 61.5735 17.9277 67.5521C21.8623 76.7416 27.6464 85.0229 34.9199 91.8803C42.1815 98.7439 50.981 103.769 60.5823 106.536C62.9949 107.224 64.0701 103.468 61.6542 102.778C52.6465 100.182 44.3917 95.4654 37.5807 89.0242C30.702 82.5362 25.2325 74.7018 21.5124 66.0086C19.177 60.5951 18.1929 50.5899 18.1829 50.482L18.1427 50.0845C17.9824 48.4967 17.8841 46.931 17.8563 45.3322L17.8553 45.3075C17.841 44.8178 17.8478 44.3283 17.8757 43.8391C18.1079 40.3032 19.6904 36.9918 22.2958 34.5901C24.9012 32.1883 28.3302 30.88 31.8733 30.9358C32.6632 30.9438 33.4507 31.0247 34.2257 31.1776L34.2582 31.1847C34.7801 31.2807 35.2588 31.538 35.6267 31.9205C35.9946 32.3029 36.2332 32.7912 36.3088 33.3164L39.1099 52.7C39.2852 53.8143 39.0585 54.9547 38.4703 55.9174C37.8822 56.88 36.9709 57.6021 35.8993 57.9546L35.8257 57.9778C35.2855 58.145 34.7859 58.4227 34.3587 58.7932C33.9315 59.1637 33.5859 59.6189 33.3439 60.13C33.1018 60.641 32.9686 61.1968 32.9527 61.7621C32.9367 62.3274 33.0384 62.8898 33.2513 63.4137C37.9339 74.8639 46.8719 84.0538 58.1877 89.0528C58.7048 89.2801 59.2633 89.3982 59.8281 89.3995C60.393 89.4008 60.952 89.2854 61.4702 89.0605C61.9945 88.8302 62.4655 88.4938 62.8536 88.0726C63.2417 87.6515 63.5384 87.1546 63.7252 86.6132L63.7473 86.5512C64.1271 85.4942 64.87 84.6066 65.8436 84.0467C66.8172 83.4868 67.9581 83.291 69.0626 83.4943L86.8268 86.5634C87.8692 86.8141 88.802 87.3964 89.485 88.2229C90.1679 89.0493 90.5641 90.0752 90.6139 91.1461C90.8789 94.8044 88.9332 98.6884 86.3461 101.155C83.7307 103.657 80.2349 105.027 76.616 104.97C74.108 104.936 74.0509 108.842 76.5626 108.877C80.1711 108.935 83.7105 107.884 86.703 105.867C87.5362 105.304 88.3207 104.673 89.0481 103.979C92.4831 100.704 94.8656 95.6809 94.5178 90.859L94.5115 90.7692C94.3786 88.8464 93.6222 87.0194 92.3571 85.5653C91.092 84.1112 89.3872 83.1093 87.5013 82.7117L87.4922 82.7142Z" fill="white"/>
<path d="M58.3186 26.814C55.8184 28.5025 53.7107 30.709 52.1386 33.284C50.5665 35.8589 49.5668 38.742 49.2074 41.7374C48.848 44.7329 49.1372 47.7706 50.0555 50.6444C50.9737 53.5181 52.4996 56.1607 54.5294 58.3927L57.9708 69.727C58.0625 70.0073 58.2155 70.2636 58.4186 70.4774C58.6218 70.6912 58.8699 70.8571 59.1451 70.9631C59.4203 71.0691 59.7157 71.1125 60.0097 71.0901C60.3038 71.0678 60.5892 70.9803 60.8452 70.8339L70.1153 65.2639C73.3996 65.257 76.6366 64.4805 79.5667 62.9969C82.4969 61.5133 85.0386 59.3637 86.9881 56.7205C88.9376 54.0774 90.2406 51.0142 90.7927 47.7766C91.3448 44.539 91.1306 41.2171 90.1673 38.0772C89.204 34.9374 87.5183 32.0669 85.2455 29.696C82.9727 27.3251 80.1759 25.5198 77.0795 24.4247C73.9831 23.3297 70.6732 22.9754 67.4152 23.3904C64.1572 23.8053 61.0417 24.9779 58.3186 26.814ZM79.6429 58.4285C76.696 60.4258 73.1964 61.4476 69.6379 61.3497C69.2674 61.3394 68.9018 61.435 68.5837 61.6253L60.9826 66.1914L58.1392 56.8239C57.8043 55.7229 56.528 54.7552 55.8888 53.8076C53.9961 51.0016 52.9781 47.6973 52.9633 44.3127C52.9486 40.9281 53.9378 37.6151 55.806 34.7927C57.6742 31.9703 60.3373 29.7652 63.4587 28.4564C66.5801 27.1476 70.0195 26.7937 73.342 27.4397C76.6644 28.0856 79.7207 29.7023 82.1244 32.0852C84.5281 34.4682 86.1711 37.5104 86.8458 40.8271C87.5204 44.1439 87.1964 47.5862 85.9146 50.7188C84.6328 53.8514 82.4509 56.5335 79.6448 58.4261L79.6429 58.4285Z" fill="white"/>
<path d="M63.4088 47.0466C63.0911 47.2604 62.8432 47.5629 62.6959 47.9163C62.5487 48.2698 62.5085 48.6588 62.5805 49.0349C62.6524 49.411 62.8333 49.7577 63.1006 50.0319C63.3679 50.3061 63.7099 50.4957 64.0841 50.5771C64.4583 50.6585 64.8482 50.6282 65.2053 50.4899C65.5624 50.3517 65.871 50.1115 66.0927 49.7993C66.3145 49.4871 66.4396 49.1166 66.4525 48.7339C66.4655 48.3512 66.3657 47.9731 66.1656 47.6466C66.0257 47.4242 65.8429 47.232 65.6279 47.0811C65.4128 46.9302 65.1698 46.8237 64.9131 46.7679C64.6564 46.712 64.3912 46.7079 64.1329 46.7557C63.8746 46.8036 63.6284 46.9025 63.4088 47.0466V47.0466Z" fill="white"/>
<path d="M67.5946 104.984C67.2769 105.198 67.029 105.5 66.8818 105.854C66.7345 106.207 66.6943 106.596 66.7663 106.972C66.8382 107.348 67.0191 107.695 67.2865 107.969C67.5538 108.244 67.8958 108.433 68.27 108.515C68.6441 108.596 69.034 108.566 69.3911 108.427C69.7482 108.289 70.0568 108.049 70.2786 107.737C70.5003 107.425 70.6254 107.054 70.6384 106.671C70.6513 106.289 70.5516 105.911 70.3514 105.584C70.2116 105.362 70.0288 105.169 69.8137 105.019C69.5987 104.868 69.3557 104.761 69.099 104.705C68.8423 104.649 68.577 104.645 68.3187 104.693C68.0604 104.741 67.8143 104.84 67.5946 104.984V104.984Z" fill="white"/>
<path d="M69.7799 42.7493C69.4619 42.9628 69.2137 43.265 69.0661 43.6185C68.9185 43.9719 68.878 44.3609 68.9497 44.7372C69.0213 45.1134 69.202 45.4603 69.4692 45.7347C69.7365 46.0091 70.0784 46.199 70.4526 46.2806C70.8269 46.3623 71.2168 46.3321 71.5741 46.1939C71.9313 46.0558 72.24 45.8157 72.4619 45.5035C72.6838 45.1912 72.809 44.8207 72.822 44.4379C72.835 44.0551 72.7353 43.6769 72.5351 43.3504C72.3957 43.1277 72.2132 42.9351 71.9984 42.784C71.7835 42.6328 71.5407 42.5261 71.284 42.4701C71.0273 42.4141 70.7621 42.41 70.5038 42.4579C70.2455 42.5058 69.9994 42.6049 69.7799 42.7493V42.7493Z" fill="white"/>
<path d="M76.1495 38.453C75.8317 38.6668 75.5839 38.9692 75.4366 39.3227C75.2893 39.6762 75.2492 40.0652 75.3211 40.4413C75.3931 40.8174 75.5739 41.1641 75.8413 41.4383C76.1086 41.7124 76.4506 41.902 76.8248 41.9835C77.199 42.0649 77.5888 42.0346 77.9459 41.8963C78.303 41.758 78.6116 41.5179 78.8334 41.2057C79.0551 40.8935 79.1802 40.523 79.1932 40.1403C79.2062 39.7576 79.1064 39.3795 78.9063 39.053C78.7664 38.8306 78.5836 38.6384 78.3685 38.4875C78.1535 38.3366 77.9105 38.2301 77.6538 38.1742C77.3971 38.1184 77.1319 38.1142 76.8736 38.1621C76.6152 38.21 76.3691 38.3089 76.1495 38.453V38.453Z" fill="white"/>
</svg>
