<svg width="122" height="127" viewBox="0 0 122 127" fill="none" xmlns="http://www.w3.org/2000/svg">
<path d="M87.4922 83.1902L69.7274 80.1239C67.712 79.7606 65.6331 80.1255 63.862 81.1536C62.0908 82.1816 60.7428 83.8058 60.0587 85.736L60.051 85.7569L60.027 85.825C60.0175 85.8552 60.0016 85.883 59.9805 85.9066C59.9594 85.9302 59.9336 85.949 59.9046 85.9618C59.882 85.9724 59.8572 85.9778 59.8322 85.9775C59.8072 85.9773 59.7825 85.9714 59.7601 85.9604C49.3696 81.3701 41.1624 72.9316 36.8625 62.4176C36.8544 62.3977 36.8507 62.3763 36.8516 62.3549C36.8526 62.3334 36.8581 62.3124 36.868 62.2933C36.8799 62.2681 36.8972 62.2457 36.9186 62.2277C36.94 62.2097 36.965 62.1966 36.9919 62.1892L37.0811 62.1604C39.0364 61.5302 40.7034 60.2243 41.7836 58.4769C42.8637 56.7294 43.2864 54.6544 42.976 52.6236L40.1749 33.2401C39.9845 31.9078 39.3817 30.6687 38.451 29.6966C37.5204 28.7245 36.3087 28.0683 34.986 27.8201C33.9789 27.6214 32.9557 27.5154 31.9292 27.5032C27.3801 27.4336 22.9786 29.1169 19.6368 32.2041C16.2949 35.2913 14.2689 39.5459 13.9784 44.0862C13.9433 44.6744 13.9413 45.2669 13.952 45.8567L13.9548 45.8609C13.9566 47.5619 14.0585 49.2613 14.2599 50.9504L14.2992 51.3376C14.3415 51.7723 15.3534 62.0494 17.9277 68.028C21.8623 77.2176 27.6464 85.4988 34.9199 92.3563C42.1815 99.2199 50.981 104.245 60.5823 107.012C62.9949 107.7 64.0701 103.944 61.6542 103.254C52.6465 100.657 44.3917 95.9414 37.5807 89.5001C30.702 83.0121 25.2325 75.1777 21.5124 66.4846C19.177 61.071 18.1929 51.0658 18.1829 50.958L18.1427 50.5605C17.9824 48.9726 17.8841 47.407 17.8563 45.8082L17.8553 45.7835C17.841 45.2938 17.8478 44.8043 17.8757 44.3151C18.1079 40.7791 19.6904 37.4678 22.2958 35.066C24.9012 32.6643 28.3302 31.356 31.8733 31.4117C32.6632 31.4197 33.4507 31.5007 34.2257 31.6536L34.2582 31.6606C34.7801 31.7566 35.2588 32.014 35.6267 32.3964C35.9946 32.7789 36.2332 33.2671 36.3088 33.7924L39.1099 53.1759C39.2852 54.2903 39.0585 55.4307 38.4703 56.3933C37.8822 57.3559 36.9709 58.078 35.8993 58.4306L35.8257 58.4537C35.2855 58.621 34.7859 58.8987 34.3587 59.2691C33.9315 59.6396 33.5859 60.0948 33.3439 60.6059C33.1018 61.117 32.9686 61.6728 32.9527 62.2381C32.9367 62.8033 33.0384 63.3657 33.2513 63.8896C37.9339 75.3399 46.8719 84.5298 58.1877 89.5287C58.7048 89.7561 59.2633 89.8741 59.8281 89.8754C60.393 89.8768 60.952 89.7614 61.4702 89.5365C61.9945 89.3061 62.4655 88.9698 62.8536 88.5486C63.2417 88.1274 63.5384 87.6305 63.7252 87.0891L63.7473 87.0271C64.1271 85.9702 64.87 85.0826 65.8436 84.5227C66.8172 83.9627 67.9581 83.767 69.0626 83.9702L86.8268 87.0393C87.8692 87.29 88.802 87.8724 89.485 88.6988C90.1679 89.5253 90.5641 90.5511 90.6139 91.6221C90.8789 95.2803 88.9332 99.1644 86.3461 101.631C83.7307 104.133 80.2349 105.503 76.616 105.446C74.108 105.412 74.0509 109.318 76.5626 109.353C80.1711 109.411 83.7105 108.36 86.703 106.343C87.5362 105.78 88.3207 105.149 89.0481 104.455C92.4831 101.18 94.8656 96.1568 94.5178 91.335L94.5115 91.2451C94.3786 89.3223 93.6222 87.4953 92.3571 86.0412C91.092 84.5871 89.3872 83.5853 87.5013 83.1876L87.4922 83.1902Z" fill="#3A3A3A"/>
<path d="M58.3186 27.29C55.8184 28.9784 53.7107 31.185 52.1386 33.7599C50.5665 36.3349 49.5668 39.2179 49.2074 42.2134C48.848 45.2088 49.1372 48.2465 50.0555 51.1203C50.9737 53.9941 52.4996 56.6367 54.5294 58.8687L57.9708 70.203C58.0625 70.4833 58.2155 70.7396 58.4186 70.9534C58.6218 71.1672 58.8699 71.3331 59.1451 71.439C59.4203 71.545 59.7157 71.5884 60.0097 71.5661C60.3038 71.5437 60.5892 71.4562 60.8452 71.3099L70.1153 65.7399C73.3996 65.7329 76.6366 64.9565 79.5667 63.4729C82.4969 61.9892 85.0386 59.8396 86.9881 57.1965C88.9376 54.5533 90.2406 51.4902 90.7927 48.2526C91.3448 45.015 91.1306 41.693 90.1673 38.5532C89.204 35.4133 87.5183 32.5428 85.2455 30.172C82.9727 27.8011 80.1759 25.9957 77.0795 24.9007C73.9831 23.8057 70.6732 23.4514 67.4152 23.8663C64.1572 24.2812 61.0417 25.4538 58.3186 27.29ZM79.6429 58.9045C76.696 60.9018 73.1964 61.9235 69.6379 61.8256C69.2674 61.8154 68.9018 61.911 68.5837 62.1012L60.9826 66.6674L58.1392 57.2998C57.8043 56.1989 56.528 55.2312 55.8888 54.2836C53.9961 51.4776 52.9781 48.1733 52.9633 44.7887C52.9486 41.404 53.9378 38.091 55.806 35.2686C57.6742 32.4462 60.3373 30.2412 63.4587 28.9324C66.5801 27.6235 70.0195 27.2697 73.342 27.9156C76.6644 28.5615 79.7207 30.1782 82.1244 32.5612C84.5281 34.9441 86.1711 37.9863 86.8458 41.3031C87.5204 44.6198 87.1964 48.0622 85.9146 51.1947C84.6328 54.3273 82.4509 57.0095 79.6448 58.902L79.6429 58.9045Z" fill="#3A3A3A"/>
<path d="M63.4088 47.5226C63.0911 47.7364 62.8432 48.0388 62.6959 48.3923C62.5487 48.7458 62.5085 49.1347 62.5805 49.5109C62.6524 49.887 62.8333 50.2337 63.1006 50.5078C63.3679 50.782 63.7099 50.9716 64.0841 51.053C64.4583 51.1345 64.8482 51.1042 65.2053 50.9659C65.5624 50.8276 65.871 50.5874 66.0927 50.2753C66.3145 49.9631 66.4396 49.5926 66.4525 49.2099C66.4655 48.8271 66.3657 48.4491 66.1656 48.1226C66.0257 47.9002 65.8429 47.7079 65.6279 47.5571C65.4128 47.4062 65.1698 47.2997 64.9131 47.2438C64.6564 47.188 64.3912 47.1838 64.1329 47.2317C63.8746 47.2796 63.6284 47.3784 63.4088 47.5226V47.5226Z" fill="#3A3A3A"/>
<path d="M67.5946 105.46C67.2769 105.674 67.029 105.976 66.8818 106.33C66.7345 106.683 66.6943 107.072 66.7663 107.448C66.8382 107.824 67.0191 108.171 67.2865 108.445C67.5538 108.72 67.8958 108.909 68.27 108.991C68.6441 109.072 69.034 109.042 69.3911 108.903C69.7482 108.765 70.0568 108.525 70.2786 108.213C70.5003 107.901 70.6254 107.53 70.6384 107.147C70.6513 106.765 70.5516 106.387 70.3514 106.06C70.2116 105.838 70.0288 105.645 69.8137 105.495C69.5987 105.344 69.3557 105.237 69.099 105.181C68.8423 105.125 68.577 105.121 68.3187 105.169C68.0604 105.217 67.8143 105.316 67.5946 105.46V105.46Z" fill="#3A3A3A"/>
<path d="M69.7799 43.2252C69.4619 43.4387 69.2137 43.741 69.0661 44.0944C68.9185 44.4478 68.878 44.8369 68.9497 45.2131C69.0213 45.5894 69.202 45.9363 69.4692 46.2107C69.7365 46.4851 70.0784 46.6749 70.4526 46.7566C70.8269 46.8382 71.2168 46.8081 71.5741 46.6699C71.9313 46.5317 72.24 46.2916 72.4619 45.9794C72.6838 45.6672 72.809 45.2967 72.822 44.9139C72.835 44.5311 72.7353 44.1529 72.5351 43.8263C72.3957 43.6037 72.2132 43.4111 71.9984 43.2599C71.7835 43.1088 71.5407 43.0021 71.284 42.9461C71.0273 42.8901 70.7621 42.8859 70.5038 42.9339C70.2455 42.9818 69.9994 43.0808 69.7799 43.2252V43.2252Z" fill="#3A3A3A"/>
<path d="M76.1495 38.9289C75.8317 39.1427 75.5839 39.4452 75.4366 39.7987C75.2893 40.1522 75.2492 40.5411 75.3211 40.9172C75.3931 41.2934 75.5739 41.64 75.8413 41.9142C76.1086 42.1884 76.4506 42.378 76.8248 42.4594C77.199 42.5409 77.5888 42.5105 77.9459 42.3723C78.303 42.234 78.6116 41.9938 78.8334 41.6816C79.0551 41.3694 79.1802 40.9989 79.1932 40.6162C79.2062 40.2335 79.1064 39.8554 78.9063 39.5289C78.7664 39.3066 78.5836 39.1143 78.3685 38.9634C78.1535 38.8125 77.9105 38.7061 77.6538 38.6502C77.3971 38.5943 77.1319 38.5902 76.8736 38.6381C76.6152 38.6859 76.3691 38.7848 76.1495 38.9289V38.9289Z" fill="#3A3A3A"/>
</svg>
