<svg width="65" height="66" viewBox="0 0 65 66" fill="none" xmlns="http://www.w3.org/2000/svg">
<path d="M64.3223 12.6569L52.8873 1.22493C52.7706 1.10822 52.632 1.01565 52.4794 0.952508C52.3269 0.889366 52.1634 0.85689 51.9983 0.856934H14.6763C13.6768 0.857992 12.7185 1.25553 12.0117 1.96231C11.3049 2.66909 10.9074 3.62739 10.9063 4.62693V7.02693C7.79853 8.24569 5.12957 10.3718 3.24684 13.1284C1.36412 15.8851 0.354828 19.1447 0.350342 22.4829C0.350342 22.8163 0.482775 23.136 0.718509 23.3718C0.954242 23.6075 1.27396 23.7399 1.60734 23.7399H16.9503C17.2837 23.7399 17.6034 23.6075 17.8392 23.3718C18.0749 23.136 18.2073 22.8163 18.2073 22.4829V7.13993C18.2071 6.80673 18.0745 6.48726 17.8388 6.25175C17.6031 6.01623 17.2835 5.88393 16.9503 5.88393C15.7635 5.88365 14.5801 6.01071 13.4203 6.26293V4.62693C13.4206 4.29364 13.5531 3.97407 13.7888 3.73839C14.0245 3.50272 14.344 3.3702 14.6773 3.36993H50.7423V11.0359C50.7434 12.0355 51.1409 12.9938 51.8477 13.7006C52.5545 14.4073 53.5128 14.8049 54.5123 14.8059H62.1783V61.4269C62.1781 61.7602 62.0456 62.0798 61.8099 62.3155C61.5742 62.5512 61.2546 62.6837 60.9213 62.6839H14.6763C14.343 62.6837 14.0235 62.5512 13.7878 62.3155C13.5521 62.0798 13.4196 61.7602 13.4193 61.4269V50.6619C13.4101 50.3348 13.2737 50.0242 13.0391 49.7961C12.8044 49.568 12.4901 49.4404 12.1628 49.4404C11.8356 49.4404 11.5213 49.568 11.2866 49.7961C11.052 50.0242 10.9156 50.3348 10.9063 50.6619V61.4269C10.9074 62.4265 11.3049 63.3848 12.0117 64.0916C12.7185 64.7983 13.6768 65.1959 14.6763 65.1969H60.9203C61.9199 65.1959 62.8782 64.7983 63.585 64.0916C64.2917 63.3848 64.6893 62.4265 64.6903 61.4269V13.5479C64.6907 13.3825 64.6584 13.2186 64.5952 13.0657C64.5321 12.9128 64.4393 12.7739 64.3223 12.6569V12.6569ZM15.6923 8.45693V21.2259H2.91934C3.21918 17.9398 4.66132 14.8628 6.99497 12.5298C9.32861 10.1969 12.4061 8.75574 15.6923 8.45693V8.45693ZM54.5113 12.2969C54.3456 12.2973 54.1815 12.265 54.0283 12.2018C53.8751 12.1385 53.736 12.0457 53.6188 11.9285C53.5016 11.8113 53.4088 11.6721 53.3455 11.519C53.2823 11.3658 53.2499 11.2016 53.2503 11.0359V5.14693L60.3963 12.2919L54.5113 12.2969Z" fill="white"/>
<path d="M13.0513 45.2078C12.8458 45.0024 12.5755 44.8746 12.2863 44.8461C11.9971 44.8177 11.707 44.8904 11.4654 45.0519C11.2238 45.2133 11.0457 45.4536 10.9614 45.7317C10.8771 46.0098 10.8918 46.3085 11.003 46.5769C11.1143 46.8454 11.3152 47.0669 11.5715 47.2039C11.8278 47.3408 12.1236 47.3846 12.4086 47.3279C12.6936 47.2712 12.9501 47.1174 13.1344 46.8927C13.3187 46.668 13.4194 46.3864 13.4194 46.0958C13.4183 45.763 13.2861 45.4439 13.0513 45.2078V45.2078Z" fill="white"/>
<path d="M21.4503 10.385C21.1169 10.385 20.7972 10.5175 20.5615 10.7532C20.3258 10.9889 20.1933 11.3087 20.1933 11.642V25.727H6.10832C5.77494 25.727 5.45522 25.8595 5.21949 26.0952C4.98375 26.3309 4.85132 26.6507 4.85132 26.984C4.85132 30.2672 5.82489 33.4766 7.64892 36.2065C9.47295 38.9364 12.0655 41.064 15.0988 42.3204C18.132 43.5768 21.4697 43.9056 24.6898 43.2651C27.9099 42.6246 30.8677 41.0436 33.1893 38.722C35.5108 36.4005 37.0918 33.4426 37.7324 30.2225C38.3729 27.0024 38.0441 23.6647 36.7877 20.6315C35.5313 17.5982 33.4036 15.0057 30.6738 13.1816C27.9439 11.3576 24.7345 10.384 21.4513 10.384L21.4503 10.385ZM22.7073 12.954C25.5668 13.2085 28.2793 14.3346 30.4783 16.18L22.7073 23.95V12.954ZM21.4503 41.066C17.933 41.0629 14.5438 39.7452 11.948 37.3717C9.35227 34.9981 7.73738 31.7401 7.42032 28.237H21.4503C21.6153 28.2372 21.7786 28.2047 21.931 28.1416C22.0834 28.0784 22.2218 27.9858 22.3383 27.869V27.869L32.2543 17.953C33.9729 20.0073 35.0699 22.5092 35.4165 25.1651C35.7632 27.821 35.345 30.5206 34.2111 32.9472C33.0773 35.3737 31.2748 37.4265 29.0152 38.8646C26.7556 40.3026 24.1327 41.0663 21.4543 41.066H21.4503Z" fill="white"/>
<path d="M55.4004 40.5121C54.778 40.5121 54.1653 40.6661 53.6169 40.9606C53.0686 41.255 52.6017 41.6806 52.2578 42.1994C51.914 42.7182 51.704 43.3141 51.6465 43.9338C51.589 44.5535 51.6858 45.1778 51.9284 45.751L44.6884 52.9911C44.1817 52.7447 43.6262 52.6153 43.0628 52.6124C42.4994 52.6095 41.9426 52.7331 41.4334 52.9741L36.6254 48.166C36.8525 47.5857 36.9323 46.958 36.8575 46.3393C36.7827 45.7205 36.5556 45.13 36.1966 44.6205C35.8377 44.111 35.358 43.6984 34.8005 43.4197C34.2431 43.141 33.6252 43.0049 33.0022 43.0235C32.3793 43.0421 31.7706 43.2149 31.2308 43.5263C30.6909 43.8378 30.2367 44.2782 29.9088 44.8082C29.5808 45.3382 29.3894 45.9413 29.3517 46.5634C29.3139 47.1855 29.4309 47.8073 29.6924 48.373L25.0814 52.984C24.2784 52.6016 23.3662 52.5154 22.5058 52.7406C21.6454 52.9657 20.8924 53.4878 20.3797 54.2145C19.8671 54.9412 19.6278 55.8258 19.7043 56.7119C19.7807 57.5979 20.168 58.4284 20.7975 59.0565C21.4271 59.6847 22.2585 60.07 23.1447 60.1445C24.0309 60.219 24.9149 59.9777 25.6405 59.4634C26.366 58.9491 26.8864 58.1949 27.1096 57.334C27.3329 56.4732 27.2446 55.5611 26.8604 54.759L31.4464 50.173C31.9979 50.4469 32.6083 50.5809 33.2238 50.5635C33.8394 50.5461 34.4412 50.3777 34.9763 50.0731L39.6484 54.7451C39.3714 55.3183 39.244 55.9523 39.2782 56.588C39.3124 57.2237 39.5071 57.8404 39.844 58.3806C40.1809 58.9207 40.6491 59.3668 41.205 59.6771C41.7608 59.9875 42.3862 60.152 43.0228 60.1554C43.6594 60.1587 44.2866 60.0008 44.8457 59.6964C45.4048 59.3919 45.8777 58.9509 46.2203 58.4143C46.5629 57.8777 46.7641 57.2631 46.805 56.6278C46.8459 55.9925 46.7253 55.3571 46.4544 54.781L53.6264 47.609C54.1319 47.8774 54.6919 48.0271 55.2639 48.0468C55.8358 48.0665 56.4048 47.9558 56.9276 47.7229C57.4504 47.4901 57.9134 47.1413 58.2814 46.7029C58.6493 46.2646 58.9127 45.7482 59.0514 45.1929C59.1901 44.6377 59.2006 44.0581 59.0821 43.4982C58.9635 42.9383 58.7191 42.4127 58.3672 41.9613C58.0154 41.5099 57.5654 41.1446 57.0513 40.8929C56.5373 40.6413 55.9727 40.51 55.4004 40.509V40.5121ZM23.4604 57.644C23.2545 57.6446 23.0516 57.5946 22.8696 57.4984C22.6876 57.4021 22.532 57.2627 22.4165 57.0923C22.301 56.9219 22.2291 56.7257 22.2071 56.521C22.1852 56.3163 22.2139 56.1093 22.2907 55.9183C22.3675 55.7272 22.49 55.558 22.6475 55.4254C22.805 55.2928 22.9927 55.2009 23.194 55.1579C23.3953 55.1148 23.6041 55.1218 23.8021 55.1783C24.0001 55.2349 24.1811 55.3392 24.3294 55.4821L24.3444 55.498L24.3634 55.515C24.5351 55.692 24.6508 55.9156 24.6962 56.1579C24.7417 56.4003 24.7147 56.6506 24.6187 56.8777C24.5227 57.1048 24.3619 57.2986 24.1564 57.4349C23.951 57.5712 23.7099 57.6439 23.4633 57.644H23.4604ZM33.1154 48.0521C32.8667 48.0521 32.6237 47.9783 32.417 47.8402C32.2103 47.7021 32.0492 47.5058 31.954 47.2761C31.8589 47.0464 31.834 46.7936 31.8825 46.5498C31.931 46.306 32.0507 46.082 32.2265 45.9062C32.4023 45.7304 32.6263 45.6107 32.8701 45.5622C33.114 45.5137 33.3667 45.5386 33.5964 45.6337C33.8261 45.7289 34.0224 45.89 34.1605 46.0967C34.2986 46.3034 34.3724 46.5464 34.3724 46.795C34.3729 46.9606 34.3407 47.1246 34.2777 47.2777C34.2148 47.4308 34.1222 47.5699 34.0053 47.6872C33.8884 47.8044 33.7496 47.8974 33.5967 47.9609C33.4438 48.0244 33.2799 48.057 33.1144 48.057L33.1154 48.0521ZM43.0434 57.639C42.7947 57.639 42.5517 57.5653 42.345 57.4272C42.1383 57.2891 41.9772 57.0928 41.882 56.8631C41.7869 56.6334 41.762 56.3806 41.8105 56.1368C41.859 55.893 41.9787 55.669 42.1545 55.4932C42.3303 55.3174 42.5543 55.1977 42.7981 55.1492C43.042 55.1007 43.2947 55.1256 43.5244 55.2207C43.7541 55.3159 43.9504 55.477 44.0885 55.6837C44.2266 55.8904 44.3004 56.1334 44.3004 56.382C44.3009 56.5476 44.2687 56.7116 44.2058 56.8647C44.1428 57.0178 44.0502 57.1569 43.9333 57.2742C43.8165 57.3914 43.6776 57.4844 43.5247 57.5479C43.3718 57.6114 43.2079 57.644 43.0424 57.644L43.0434 57.639ZM55.4004 45.5391C55.1517 45.5391 54.9087 45.4653 54.702 45.3272C54.4953 45.1891 54.3342 44.9928 54.239 44.7631C54.1439 44.5334 54.119 44.2807 54.1675 44.0368C54.216 43.793 54.3357 43.569 54.5115 43.3932C54.6873 43.2174 54.9113 43.0977 55.1551 43.0492C55.399 43.0007 55.6517 43.0256 55.8814 43.1207C56.1111 43.2159 56.3074 43.377 56.4455 43.5837C56.5836 43.7904 56.6573 44.0334 56.6573 44.282C56.6577 44.4474 56.6255 44.6113 56.5625 44.7642C56.4996 44.9171 56.4071 45.0561 56.2903 45.1732C56.1736 45.2903 56.0349 45.3832 55.8822 45.4467C55.7294 45.5102 55.5657 45.5429 55.4004 45.5431V45.5391Z" fill="white"/>
<path d="M49.1193 30.388H42.4873C42.3193 30.3832 42.1521 30.4122 41.9955 30.4732C41.8389 30.5342 41.6961 30.626 41.5756 30.7432C41.4551 30.8603 41.3594 31.0004 41.2939 31.1552C41.2285 31.31 41.1948 31.4764 41.1948 31.6445C41.1948 31.8125 41.2285 31.9789 41.2939 32.1337C41.3594 32.2885 41.4551 32.4286 41.5756 32.5457C41.6961 32.6629 41.8389 32.7547 41.9955 32.8157C42.1521 32.8767 42.3193 32.9057 42.4873 32.901H49.1193C49.2873 32.9057 49.4545 32.8767 49.6111 32.8157C49.7677 32.7547 49.9104 32.6629 50.0309 32.5457C50.1514 32.4286 50.2472 32.2885 50.3126 32.1337C50.378 31.9789 50.4117 31.8125 50.4117 31.6445C50.4117 31.4764 50.378 31.31 50.3126 31.1552C50.2472 31.0004 50.1514 30.8603 50.0309 30.7432C49.9104 30.626 49.7677 30.5342 49.6111 30.4732C49.4545 30.4122 49.2873 30.3832 49.1193 30.388V30.388Z" fill="white"/>
<path d="M55.7294 30.7559C55.5238 30.5505 55.2534 30.4227 54.9642 30.3942C54.6751 30.3658 54.385 30.4385 54.1434 30.6C53.9018 30.7614 53.7237 31.0017 53.6394 31.2798C53.555 31.5579 53.5698 31.8566 53.681 32.125C53.7923 32.3935 53.9932 32.615 54.2495 32.752C54.5058 32.8889 54.8016 32.9327 55.0866 32.876C55.3716 32.8193 55.6281 32.6654 55.8124 32.4408C55.9967 32.2161 56.0974 31.9345 56.0973 31.6439C56.0962 31.3111 55.964 30.992 55.7294 30.7559V30.7559Z" fill="white"/>
<path d="M57.8373 18.324H42.4873C42.3193 18.3192 42.1521 18.3482 41.9955 18.4093C41.8389 18.4703 41.6961 18.5621 41.5756 18.6792C41.4551 18.7964 41.3594 18.9365 41.2939 19.0913C41.2285 19.2461 41.1948 19.4124 41.1948 19.5805C41.1948 19.7485 41.2285 19.9149 41.2939 20.0697C41.3594 20.2245 41.4551 20.3646 41.5756 20.4818C41.6961 20.5989 41.8389 20.6907 41.9955 20.7517C42.1521 20.8127 42.3193 20.8417 42.4873 20.837H57.8373C58.1644 20.8278 58.475 20.6913 58.7031 20.4567C58.9312 20.2221 59.0588 19.9077 59.0588 19.5805C59.0588 19.2532 58.9312 18.9389 58.7031 18.7043C58.475 18.4696 58.1644 18.3332 57.8373 18.324V18.324Z" fill="white"/>
<path d="M57.8373 24.356H42.4873C42.3193 24.3512 42.1521 24.3802 41.9955 24.4412C41.8389 24.5022 41.6961 24.594 41.5756 24.7112C41.4551 24.8283 41.3594 24.9685 41.2939 25.1233C41.2285 25.2781 41.1948 25.4444 41.1948 25.6125C41.1948 25.7805 41.2285 25.9469 41.2939 26.1017C41.3594 26.2565 41.4551 26.3966 41.5756 26.5137C41.6961 26.6309 41.8389 26.7227 41.9955 26.7837C42.1521 26.8447 42.3193 26.8737 42.4873 26.869H57.8373C58.0053 26.8737 58.1725 26.8447 58.3291 26.7837C58.4857 26.7227 58.6284 26.6309 58.7489 26.5137C58.8694 26.3966 58.9652 26.2565 59.0306 26.1017C59.096 25.9469 59.1297 25.7805 59.1297 25.6125C59.1297 25.4444 59.096 25.2781 59.0306 25.1233C58.9652 24.9685 58.8694 24.8283 58.7489 24.7112C58.6284 24.594 58.4857 24.5022 58.3291 24.4412C58.1725 24.3802 58.0053 24.3512 57.8373 24.356V24.356Z" fill="white"/>
</svg>
