<svg width="65" height="66" viewBox="0 0 65 66" fill="none" xmlns="http://www.w3.org/2000/svg">
<path d="M64.3223 12.6311L52.8873 1.19905C52.7706 1.08234 52.632 0.989771 52.4794 0.926629C52.3269 0.863487 52.1634 0.831011 51.9983 0.831055H14.6763C13.6768 0.832114 12.7185 1.22965 12.0117 1.93643C11.3049 2.64321 10.9074 3.60151 10.9063 4.60105V7.00105C7.79853 8.21981 5.12957 10.3459 3.24684 13.1026C1.36412 15.8592 0.354828 19.1188 0.350342 22.4571C0.350342 22.7904 0.482775 23.1102 0.718509 23.3459C0.954242 23.5816 1.27396 23.7141 1.60734 23.7141H16.9503C17.2837 23.7141 17.6034 23.5816 17.8392 23.3459C18.0749 23.1102 18.2073 22.7904 18.2073 22.4571V7.11405C18.2071 6.78085 18.0745 6.46138 17.8388 6.22587C17.6031 5.99035 17.2835 5.85805 16.9503 5.85805C15.7635 5.85777 14.5801 5.98483 13.4203 6.23705V4.60105C13.4206 4.26776 13.5531 3.94819 13.7888 3.71251C14.0245 3.47684 14.344 3.34432 14.6773 3.34405H50.7423V11.0101C50.7434 12.0096 51.1409 12.9679 51.8477 13.6747C52.5545 14.3815 53.5128 14.779 54.5123 14.7801H62.1783V61.4011C62.1781 61.7344 62.0456 62.0539 61.8099 62.2896C61.5742 62.5253 61.2546 62.6578 60.9213 62.6581H14.6763C14.343 62.6578 14.0235 62.5253 13.7878 62.2896C13.5521 62.0539 13.4196 61.7344 13.4193 61.4011V50.6361C13.4101 50.3089 13.2737 49.9983 13.0391 49.7702C12.8044 49.5421 12.4901 49.4145 12.1628 49.4145C11.8356 49.4145 11.5213 49.5421 11.2866 49.7702C11.052 49.9983 10.9156 50.3089 10.9063 50.6361V61.4011C10.9074 62.4006 11.3049 63.3589 12.0117 64.0657C12.7185 64.7725 13.6768 65.17 14.6763 65.1711H60.9203C61.9199 65.17 62.8782 64.7725 63.585 64.0657C64.2917 63.3589 64.6893 62.4006 64.6903 61.4011V13.5221C64.6907 13.3566 64.6584 13.1927 64.5952 13.0398C64.5321 12.8869 64.4393 12.748 64.3223 12.6311V12.6311ZM15.6923 8.43105V21.2001H2.91934C3.21918 17.9139 4.66132 14.8369 6.99497 12.504C9.32861 10.171 12.4061 8.72986 15.6923 8.43105V8.43105ZM54.5113 12.2711C54.3456 12.2714 54.1815 12.2391 54.0283 12.1759C53.8751 12.1126 53.736 12.0198 53.6188 11.9026C53.5016 11.7854 53.4088 11.6463 53.3455 11.4931C53.2823 11.3399 53.2499 11.1758 53.2503 11.0101V5.12105L60.3963 12.2661L54.5113 12.2711Z" fill="#0F172A"/>
<path d="M13.0513 45.182C12.8458 44.9765 12.5755 44.8487 12.2863 44.8202C11.9971 44.7918 11.707 44.8645 11.4654 45.026C11.2238 45.1875 11.0457 45.4277 10.9614 45.7058C10.8771 45.9839 10.8918 46.2826 11.003 46.551C11.1143 46.8195 11.3152 47.0411 11.5715 47.178C11.8278 47.3149 12.1236 47.3588 12.4086 47.302C12.6936 47.2453 12.9501 47.0915 13.1344 46.8668C13.3187 46.6421 13.4194 46.3606 13.4194 46.07C13.4183 45.7371 13.2861 45.418 13.0513 45.182V45.182Z" fill="#0F172A"/>
<path d="M21.4503 10.3592C21.1169 10.3592 20.7972 10.4916 20.5615 10.7273C20.3258 10.9631 20.1933 11.2828 20.1933 11.6161V25.7012H6.10832C5.77494 25.7012 5.45522 25.8336 5.21949 26.0693C4.98375 26.3051 4.85132 26.6248 4.85132 26.9582C4.85132 30.2413 5.82489 33.4508 7.64892 36.1806C9.47295 38.9105 12.0655 41.0381 15.0988 42.2946C18.132 43.551 21.4697 43.8797 24.6898 43.2392C27.9099 42.5987 30.8677 41.0177 33.1893 38.6961C35.5108 36.3746 37.0918 33.4167 37.7324 30.1967C38.3729 26.9766 38.0441 23.6389 36.7877 20.6056C35.5313 17.5724 33.4036 14.9798 30.6738 13.1558C27.9439 11.3317 24.7345 10.3582 21.4513 10.3582L21.4503 10.3592ZM22.7073 12.9282C25.5668 13.1826 28.2793 14.3087 30.4783 16.1542L22.7073 23.9242V12.9282ZM21.4503 41.0402C17.933 41.037 14.5438 39.7193 11.948 37.3458C9.35227 34.9722 7.73738 31.7142 7.42032 28.2112H21.4503C21.6153 28.2113 21.7786 28.1788 21.931 28.1157C22.0834 28.0525 22.2218 27.9599 22.3383 27.8432V27.8432L32.2543 17.9272C33.9729 19.9814 35.0699 22.4833 35.4165 25.1392C35.7632 27.7951 35.345 30.4947 34.2111 32.9213C33.0773 35.3478 31.2748 37.4006 29.0152 38.8387C26.7556 40.2768 24.1327 41.0405 21.4543 41.0402H21.4503Z" fill="#0F172A"/>
<path d="M55.4004 40.4862C54.778 40.4862 54.1653 40.6403 53.6169 40.9347C53.0686 41.2291 52.6017 41.6548 52.2578 42.1736C51.914 42.6924 51.704 43.2882 51.6465 43.9079C51.589 44.5277 51.6858 45.152 51.9284 45.7252L44.6884 52.9652C44.1817 52.7189 43.6262 52.5895 43.0628 52.5865C42.4994 52.5836 41.9426 52.7072 41.4334 52.9482L36.6254 48.1402C36.8525 47.5598 36.9323 46.9322 36.8575 46.3134C36.7827 45.6947 36.5556 45.1041 36.1966 44.5946C35.8377 44.0851 35.358 43.6726 34.8005 43.3939C34.2431 43.1152 33.6252 42.979 33.0022 42.9977C32.3793 43.0163 31.7706 43.189 31.2308 43.5005C30.6909 43.8119 30.2367 44.2523 29.9088 44.7823C29.5808 45.3124 29.3894 45.9154 29.3517 46.5375C29.3139 47.1596 29.4309 47.7814 29.6924 48.3472L25.0814 52.9582C24.2784 52.5758 23.3662 52.4895 22.5058 52.7147C21.6454 52.9399 20.8924 53.4619 20.3797 54.1887C19.8671 54.9154 19.6278 55.7999 19.7043 56.686C19.7807 57.572 20.168 58.4025 20.7975 59.0307C21.4271 59.6588 22.2585 60.0442 23.1447 60.1186C24.0309 60.1931 24.9149 59.9519 25.6405 59.4376C26.366 58.9233 26.8864 58.169 27.1096 57.3082C27.3329 56.4473 27.2446 55.5352 26.8604 54.7332L31.4464 50.1472C31.9979 50.421 32.6083 50.5551 33.2238 50.5376C33.8394 50.5202 34.4412 50.3518 34.9763 50.0472L39.6484 54.7192C39.3714 55.2924 39.244 55.9264 39.2782 56.5621C39.3124 57.1978 39.5071 57.8145 39.844 58.3547C40.1809 58.8948 40.6491 59.3409 41.205 59.6512C41.7608 59.9616 42.3862 60.1261 43.0228 60.1295C43.6594 60.1329 44.2866 59.975 44.8457 59.6705C45.4048 59.3661 45.8777 58.925 46.2203 58.3884C46.5629 57.8518 46.7641 57.2372 46.805 56.6019C46.8459 55.9666 46.7253 55.3313 46.4544 54.7552L53.6264 47.5832C54.1319 47.8515 54.6919 48.0012 55.2639 48.0209C55.8358 48.0407 56.4048 47.9299 56.9276 47.6971C57.4504 47.4642 57.9134 47.1154 58.2814 46.677C58.6493 46.2387 58.9127 45.7223 59.0514 45.1671C59.1901 44.6118 59.2006 44.0322 59.0821 43.4723C58.9635 42.9124 58.7191 42.3868 58.3672 41.9354C58.0154 41.484 57.5654 41.1187 57.0513 40.8671C56.5373 40.6154 55.9727 40.4841 55.4004 40.4832V40.4862ZM23.4604 57.6182C23.2545 57.6187 23.0516 57.5687 22.8696 57.4725C22.6876 57.3763 22.532 57.2368 22.4165 57.0664C22.301 56.896 22.2291 56.6998 22.2071 56.4951C22.1852 56.2904 22.2139 56.0834 22.2907 55.8924C22.3675 55.7014 22.49 55.5321 22.6475 55.3995C22.805 55.267 22.9927 55.1751 23.194 55.132C23.3953 55.0889 23.6041 55.0959 23.8021 55.1525C24.0001 55.209 24.1811 55.3133 24.3294 55.4562L24.3444 55.4722L24.3634 55.4892C24.5351 55.6661 24.6508 55.8897 24.6962 56.132C24.7417 56.3744 24.7147 56.6247 24.6187 56.8518C24.5227 57.0789 24.3619 57.2727 24.1564 57.409C23.951 57.5453 23.7099 57.618 23.4633 57.6182H23.4604ZM33.1154 48.0262C32.8667 48.0262 32.6237 47.9525 32.417 47.8143C32.2103 47.6762 32.0492 47.4799 31.954 47.2502C31.8589 47.0205 31.834 46.7678 31.8825 46.5239C31.931 46.2801 32.0507 46.0561 32.2265 45.8803C32.4023 45.7045 32.6263 45.5848 32.8701 45.5363C33.114 45.4878 33.3667 45.5127 33.5964 45.6078C33.8261 45.703 34.0224 45.8641 34.1605 46.0708C34.2986 46.2775 34.3724 46.5206 34.3724 46.7692C34.3729 46.9347 34.3407 47.0987 34.2777 47.2518C34.2148 47.4049 34.1222 47.544 34.0053 47.6613C33.8884 47.7785 33.7496 47.8716 33.5967 47.935C33.4438 47.9985 33.2799 48.0312 33.1144 48.0312L33.1154 48.0262ZM43.0434 57.6132C42.7947 57.6132 42.5517 57.5395 42.345 57.4013C42.1383 57.2632 41.9772 57.0669 41.882 56.8372C41.7869 56.6075 41.762 56.3548 41.8105 56.1109C41.859 55.8671 41.9787 55.6431 42.1545 55.4673C42.3303 55.2916 42.5543 55.1718 42.7981 55.1233C43.042 55.0748 43.2947 55.0997 43.5244 55.1949C43.7541 55.29 43.9504 55.4511 44.0885 55.6578C44.2266 55.8645 44.3004 56.1076 44.3004 56.3562C44.3009 56.5217 44.2687 56.6857 44.2058 56.8388C44.1428 56.9919 44.0502 57.1311 43.9333 57.2483C43.8165 57.3655 43.6776 57.4586 43.5247 57.522C43.3718 57.5855 43.2079 57.6182 43.0424 57.6182L43.0434 57.6132ZM55.4004 45.5132C55.1517 45.5132 54.9087 45.4395 54.702 45.3013C54.4953 45.1632 54.3342 44.9669 54.239 44.7372C54.1439 44.5075 54.119 44.2548 54.1675 44.011C54.216 43.7671 54.3357 43.5431 54.5115 43.3673C54.6873 43.1915 54.9113 43.0718 55.1551 43.0233C55.399 42.9748 55.6517 42.9997 55.8814 43.0948C56.1111 43.19 56.3074 43.3511 56.4455 43.5578C56.5836 43.7645 56.6573 44.0076 56.6573 44.2562C56.6577 44.4215 56.6255 44.5854 56.5625 44.7383C56.4996 44.8912 56.4071 45.0302 56.2903 45.1473C56.1736 45.2644 56.0349 45.3574 55.8822 45.4208C55.7294 45.4843 55.5657 45.5171 55.4004 45.5172V45.5132Z" fill="#0F172A"/>
<path d="M49.1193 30.3621H42.4873C42.3193 30.3573 42.1521 30.3863 41.9955 30.4473C41.8389 30.5084 41.6961 30.6002 41.5756 30.7173C41.4551 30.8344 41.3594 30.9746 41.2939 31.1294C41.2285 31.2842 41.1948 31.4505 41.1948 31.6186C41.1948 31.7866 41.2285 31.953 41.2939 32.1078C41.3594 32.2626 41.4551 32.4027 41.5756 32.5198C41.6961 32.637 41.8389 32.7288 41.9955 32.7898C42.1521 32.8508 42.3193 32.8798 42.4873 32.8751H49.1193C49.2873 32.8798 49.4545 32.8508 49.6111 32.7898C49.7677 32.7288 49.9104 32.637 50.0309 32.5198C50.1514 32.4027 50.2472 32.2626 50.3126 32.1078C50.378 31.953 50.4117 31.7866 50.4117 31.6186C50.4117 31.4505 50.378 31.2842 50.3126 31.1294C50.2472 30.9746 50.1514 30.8344 50.0309 30.7173C49.9104 30.6002 49.7677 30.5084 49.6111 30.4473C49.4545 30.3863 49.2873 30.3573 49.1193 30.3621V30.3621Z" fill="#0F172A"/>
<path d="M55.7294 30.73C55.5238 30.5246 55.2534 30.3968 54.9642 30.3683C54.6751 30.3399 54.385 30.4126 54.1434 30.5741C53.9018 30.7356 53.7237 30.9758 53.6394 31.2539C53.555 31.532 53.5698 31.8307 53.681 32.0992C53.7923 32.3676 53.9932 32.5892 54.2495 32.7261C54.5058 32.863 54.8016 32.9069 55.0866 32.8501C55.3716 32.7934 55.6281 32.6396 55.8124 32.4149C55.9967 32.1902 56.0974 31.9086 56.0973 31.618C56.0962 31.2852 55.964 30.9662 55.7294 30.73V30.73Z" fill="#0F172A"/>
<path d="M57.8373 18.2981H42.4873C42.3193 18.2934 42.1521 18.3224 41.9955 18.3834C41.8389 18.4444 41.6961 18.5362 41.5756 18.6533C41.4551 18.7705 41.3594 18.9106 41.2939 19.0654C41.2285 19.2202 41.1948 19.3866 41.1948 19.5546C41.1948 19.7227 41.2285 19.889 41.2939 20.0438C41.3594 20.1986 41.4551 20.3387 41.5756 20.4559C41.6961 20.573 41.8389 20.6648 41.9955 20.7258C42.1521 20.7869 42.3193 20.8158 42.4873 20.8111H57.8373C58.1644 20.8019 58.475 20.6654 58.7031 20.4308C58.9312 20.1962 59.0588 19.8818 59.0588 19.5546C59.0588 19.2274 58.9312 18.913 58.7031 18.6784C58.475 18.4438 58.1644 18.3073 57.8373 18.2981V18.2981Z" fill="#0F172A"/>
<path d="M57.8373 24.3301H42.4873C42.3193 24.3254 42.1521 24.3543 41.9955 24.4154C41.8389 24.4764 41.6961 24.5682 41.5756 24.6853C41.4551 24.8025 41.3594 24.9426 41.2939 25.0974C41.2285 25.2522 41.1948 25.4185 41.1948 25.5866C41.1948 25.7546 41.2285 25.921 41.2939 26.0758C41.3594 26.2306 41.4551 26.3707 41.5756 26.4879C41.6961 26.605 41.8389 26.6968 41.9955 26.7578C42.1521 26.8188 42.3193 26.8478 42.4873 26.8431H57.8373C58.0053 26.8478 58.1725 26.8188 58.3291 26.7578C58.4857 26.6968 58.6284 26.605 58.7489 26.4879C58.8694 26.3707 58.9652 26.2306 59.0306 26.0758C59.096 25.921 59.1297 25.7546 59.1297 25.5866C59.1297 25.4185 59.096 25.2522 59.0306 25.0974C58.9652 24.9426 58.8694 24.8025 58.7489 24.6853C58.6284 24.5682 58.4857 24.4764 58.3291 24.4154C58.1725 24.3543 58.0053 24.3254 57.8373 24.3301V24.3301Z" fill="#0F172A"/>
</svg>
