<svg width="71" height="72" viewBox="0 0 71 72" fill="none" xmlns="http://www.w3.org/2000/svg">
<path d="M69.7283 44.3875L66.7983 43.7035C66.6435 42.954 66.4455 42.2141 66.2053 41.4875L68.3883 39.4405C68.5668 39.2732 68.6885 39.0542 68.7364 38.8143C68.7842 38.5744 68.7559 38.3255 68.6553 38.1025C68.0119 36.6861 67.2294 35.3372 66.3193 34.0755C66.1766 33.8769 65.9751 33.728 65.7434 33.6498C65.5116 33.5716 65.2612 33.568 65.0273 33.6395L62.1873 34.5015C61.6751 33.9263 61.1298 33.3814 60.5543 32.8695L61.4193 30.0305C61.4903 29.7967 61.4864 29.5466 61.4082 29.3151C61.33 29.0836 61.1815 28.8824 60.9833 28.7395C60.3526 28.2848 59.7013 27.8625 59.0293 27.4725V6.73349C59.0275 5.18025 58.4095 3.69117 57.3111 2.59295C56.2127 1.49473 54.7236 0.877076 53.1703 0.875488H6.30331C4.75024 0.877341 3.26131 1.49512 2.16313 2.5933C1.06494 3.69149 0.447165 5.18042 0.445312 6.73349V37.1975C0.447165 38.7506 1.06494 40.2395 2.16313 41.3377C3.26131 42.4359 4.75024 43.0536 6.30331 43.0555H18.6913L14.8563 53.6005H8.64531C8.49128 53.6006 8.33879 53.6311 8.19657 53.6903C8.05435 53.7494 7.9252 53.8361 7.81652 53.9452C7.70784 54.0544 7.62175 54.1839 7.5632 54.3264C7.50465 54.4688 7.47479 54.6215 7.47531 54.7755C7.47716 56.3286 8.09494 57.8175 9.19313 58.9157C10.2913 60.0139 11.7802 60.6316 13.3333 60.6335H27.7983C27.9693 60.8925 28.1233 61.1635 28.3043 61.4145C28.447 61.6132 28.6484 61.7622 28.8802 61.8404C29.1119 61.9186 29.3624 61.9221 29.5963 61.8505L32.4363 60.9885C32.9486 61.5637 33.4938 62.1086 34.0693 62.6205L33.2043 65.4595C33.1334 65.6933 33.1372 65.9434 33.2154 66.1749C33.2936 66.4063 33.4421 66.6076 33.6403 66.7505C34.9033 67.6618 36.2544 68.4444 37.6733 69.0865C37.8962 69.1878 38.1453 69.2166 38.3853 69.1687C38.6254 69.1208 38.8444 68.9986 39.0113 68.8195L41.0573 66.6355C41.7841 66.8763 42.5244 67.0743 43.2743 67.2285L43.9583 70.1605C44.0139 70.3989 44.1428 70.6138 44.3268 70.7752C44.5108 70.9366 44.7407 71.0364 44.9843 71.0605C45.7743 71.1385 46.5583 71.1785 47.3113 71.1785C48.0643 71.1785 48.8483 71.1385 49.6393 71.0615C49.8829 71.0374 50.1128 70.9376 50.2968 70.7762C50.4808 70.6148 50.6097 70.3999 50.6653 70.1615L51.3493 67.2295C52.0992 67.0751 52.8395 66.8771 53.5663 66.6365L55.6123 68.8205C55.7795 68.9992 55.9984 69.1211 56.2384 69.169C56.4784 69.2169 56.7274 69.1884 56.9503 69.0875C58.3683 68.4447 59.7186 67.6622 60.9813 66.7515C61.1799 66.6087 61.3287 66.4073 61.4071 66.1756C61.4855 65.9439 61.4894 65.6935 61.4183 65.4595L60.5543 62.6195C61.1295 62.1073 61.6748 61.5624 62.1873 60.9875L65.0273 61.8515C65.2612 61.9225 65.5115 61.9187 65.7432 61.8405C65.9748 61.7623 66.1763 61.6137 66.3193 61.4155C67.2305 60.1498 68.0134 58.7964 68.6563 57.3755C68.7573 57.1526 68.7859 56.9036 68.738 56.6635C68.6901 56.4235 68.5682 56.2046 68.3893 56.0375L66.2063 53.9955C66.4467 53.2686 66.6447 52.5283 66.7993 51.7785L69.7293 51.0945C69.9676 51.0391 70.1825 50.9104 70.344 50.7266C70.5054 50.5427 70.6052 50.3129 70.6293 50.0695C70.7053 49.2825 70.7453 48.4985 70.7453 47.7425C70.7453 46.9865 70.7053 46.2025 70.6273 45.4135C70.6033 45.17 70.5036 44.9401 70.3421 44.7563C70.1807 44.5724 69.9657 44.4438 69.7273 44.3885L69.7283 44.3875ZM6.30331 3.21849H53.1703C54.1022 3.21955 54.9957 3.59022 55.6546 4.24918C56.3136 4.90814 56.6843 5.80158 56.6853 6.73349V26.3255C56.4925 26.287 56.293 26.298 56.1055 26.3574C55.9181 26.4169 55.7487 26.5229 55.6133 26.6655L53.5673 28.8495C52.8405 28.6087 52.1003 28.4107 51.3503 28.2565L50.6663 25.3245C50.6107 25.0861 50.4818 24.8711 50.2978 24.7097C50.1138 24.5483 49.8839 24.4486 49.6403 24.4245C48.0919 24.2687 46.5317 24.2687 44.9833 24.4245C44.7397 24.4486 44.5098 24.5483 44.3258 24.7097C44.1418 24.8711 44.0129 25.0861 43.9573 25.3245L43.2733 28.2565C42.5234 28.4108 41.7831 28.6089 41.0563 28.8495L39.0093 26.6655C38.842 26.487 38.623 26.3653 38.3831 26.3174C38.1432 26.2696 37.8943 26.2979 37.6713 26.3985C36.2551 27.0416 34.9064 27.8241 33.6453 28.7345C33.4468 28.8773 33.2979 29.0787 33.2195 29.3104C33.1412 29.5421 33.1372 29.7925 33.2083 30.0265L33.6083 31.3385H9.81831V17.2755H21.5353V14.9355H9.81831V7.90549H49.6553V21.9655H51.9983V6.73349C51.9984 6.57954 51.9682 6.42708 51.9094 6.28483C51.8505 6.14257 51.7642 6.01332 51.6553 5.90447C51.5465 5.79561 51.4172 5.70929 51.275 5.65043C51.1327 5.59158 50.9803 5.56136 50.8263 5.56149H8.64531C8.49153 5.56162 8.33929 5.59204 8.19727 5.65101C8.05524 5.70998 7.92623 5.79634 7.81758 5.90517C7.70894 6.014 7.62279 6.14317 7.56407 6.28529C7.50534 6.42741 7.47518 6.57971 7.47531 6.73349V31.3335H2.78831V6.73349C2.78937 5.80158 3.16004 4.90814 3.819 4.24918C4.47796 3.59022 5.3714 3.21955 6.30331 3.21849V3.21849ZM33.2523 33.6825C32.9803 33.9545 32.6913 34.2105 32.4353 34.4975L29.7513 33.6825H33.2523ZM2.78831 37.1975V33.6825H28.8103C28.6085 33.7621 28.4331 33.8969 28.3043 34.0715C27.3942 35.3348 26.6121 36.6854 25.9693 38.1035C25.8683 38.3264 25.8397 38.5754 25.8876 38.8154C25.9355 39.0555 26.0575 39.2744 26.2363 39.4415L27.5933 40.7125H6.30331C5.3714 40.7114 4.47796 40.3408 3.819 39.6818C3.16004 39.0228 2.78937 38.1294 2.78831 37.1975ZM21.1883 43.0555H27.9883C27.9353 43.2715 27.8793 43.4855 27.8353 43.7035L24.9053 44.3875C24.667 44.4429 24.4521 44.5716 24.2907 44.7554C24.1292 44.9393 24.0295 45.169 24.0053 45.4125C23.9283 46.2025 23.8883 46.9865 23.8883 47.7415C23.8883 48.4965 23.9283 49.2795 24.0063 50.0705C24.0305 50.3139 24.1302 50.5437 24.2917 50.7276C24.4531 50.9114 24.668 51.0401 24.9063 51.0955L27.8363 51.7795C27.9633 52.3945 28.1363 52.9985 28.3223 53.5995H17.3453L21.1883 43.0555ZM13.3383 58.2875C12.6115 58.2867 11.9028 58.0611 11.3093 57.6416C10.7158 57.2221 10.2666 56.6293 10.0233 55.9445H26.3453L26.2383 56.0445C26.0598 56.2118 25.9381 56.4308 25.8903 56.6707C25.8424 56.9106 25.8707 57.1595 25.9713 57.3825C26.1103 57.6905 26.2843 57.9825 26.4373 58.2885L13.3383 58.2875ZM68.3663 49.0105L65.5223 49.6745C65.2968 49.7272 65.092 49.8456 64.9337 50.0147C64.7755 50.1838 64.6709 50.396 64.6333 50.6245C64.4476 51.7485 64.1525 52.8518 63.7523 53.9185C63.6713 54.1357 63.6566 54.372 63.71 54.5975C63.7634 54.8231 63.8825 55.0277 64.0523 55.1855L66.1683 57.1695C65.7896 57.9246 65.3659 58.6563 64.8993 59.3605L62.1443 58.5225C61.9229 58.4545 61.6863 58.454 61.4646 58.521C61.2429 58.5879 61.0461 58.7193 60.8993 58.8985C60.1717 59.7831 59.3599 60.5949 58.4753 61.3225C58.2968 61.4698 58.1659 61.6666 58.099 61.8881C58.0321 62.1096 58.0322 62.346 58.0993 62.5675L58.9373 65.3225C58.2326 65.7886 57.501 66.2127 56.7463 66.5925L54.7553 64.4755C54.5976 64.3056 54.393 64.1864 54.1674 64.133C53.9418 64.0796 53.7055 64.0944 53.4883 64.1755C52.4212 64.5756 51.3177 64.8707 50.1933 65.0565C49.9648 65.0941 49.7526 65.1987 49.5835 65.3569C49.4144 65.5151 49.296 65.72 49.2433 65.9455L48.5803 68.7895C47.7361 68.8422 46.8895 68.8422 46.0453 68.7895L45.3823 65.9455C45.3297 65.7199 45.2114 65.515 45.0423 65.3568C44.8732 65.1985 44.6609 65.094 44.4323 65.0565C43.3081 64.87 42.2046 64.5749 41.1373 64.1755C40.9201 64.0945 40.6838 64.0798 40.4583 64.1332C40.2327 64.1866 40.0281 64.3057 39.8703 64.4755L37.8883 66.5925C37.1327 66.2137 36.4007 65.7896 35.6963 65.3225L36.5353 62.5695C36.6022 62.348 36.6022 62.1117 36.5353 61.8902C36.4684 61.6687 36.3376 61.4719 36.1593 61.3245C35.2747 60.5969 34.4629 59.7851 33.7353 58.9005C33.5882 58.7218 33.3914 58.5907 33.1698 58.5238C32.9482 58.4568 32.7118 58.4571 32.4903 58.5245L29.7353 59.3615C29.2687 58.6571 28.8446 57.9255 28.4653 57.1705L30.5823 55.1865C30.7521 55.0287 30.8712 54.8241 30.9246 54.5985C30.978 54.373 30.9633 54.1367 30.8823 53.9195C30.4823 52.8524 30.1872 51.7488 30.0013 50.6245C29.9638 50.3959 29.8593 50.1836 29.701 50.0145C29.5428 49.8454 29.3379 49.7271 29.1123 49.6745L26.2683 49.0105C26.2403 48.5815 26.2263 48.1575 26.2263 47.7435C26.2263 47.3295 26.2403 46.9055 26.2663 46.4755L29.1103 45.8115C29.3358 45.7588 29.5407 45.6404 29.6989 45.4713C29.8571 45.3022 29.9617 45.09 29.9993 44.8615C30.1847 43.7374 30.4798 42.6341 30.8803 41.5675C30.9615 41.3502 30.9764 41.1137 30.923 40.8879C30.8696 40.6622 30.7503 40.4574 30.5803 40.2995L28.4633 38.3155C28.8422 37.5605 29.266 36.8289 29.7323 36.1245L32.4873 36.9615C32.7088 37.0285 32.9451 37.0285 33.1666 36.9616C33.3881 36.8947 33.5849 36.7639 33.7323 36.5855C34.4602 35.7012 35.272 34.8894 36.1563 34.1615C36.3348 34.0142 36.4657 33.8174 36.5327 33.5959C36.5996 33.3743 36.5994 33.138 36.5323 32.9165L35.6943 30.1615C36.399 29.6954 37.1306 29.2713 37.8853 28.8915L39.8673 31.0085C40.0251 31.1783 40.2297 31.2974 40.4553 31.3508C40.6808 31.4042 40.9171 31.3895 41.1343 31.3085C42.2014 30.9084 43.3049 30.6133 44.4293 30.4275C44.6578 30.3899 44.87 30.2853 45.0391 30.1271C45.2082 29.9688 45.3266 29.764 45.3793 29.5385L46.0423 26.6945C46.8865 26.6418 47.7331 26.6418 48.5773 26.6945L49.2403 29.5385C49.2929 29.7641 49.4112 29.969 49.5803 30.1272C49.7495 30.2855 49.9617 30.39 50.1903 30.4275C51.3145 30.614 52.418 30.909 53.4853 31.3085C53.7025 31.3891 53.9388 31.4036 54.1642 31.3502C54.3897 31.2968 54.5943 31.1779 54.7523 31.0085L56.7343 28.8915C57.4899 29.2702 58.2219 29.6944 58.9263 30.1615L58.0873 32.9145C58.0205 33.136 58.0205 33.3723 58.0874 33.5938C58.1542 33.8152 58.285 34.012 58.4633 34.1595C59.3479 34.8871 60.1597 35.6989 60.8873 36.5835C61.0343 36.7624 61.231 36.8937 61.4527 36.9606C61.6743 37.0275 61.9109 37.0272 62.1323 36.9595L64.8873 36.1225C65.3539 36.8269 65.778 37.5585 66.1573 38.3135L64.0453 40.2975C63.8755 40.4553 63.7564 40.6599 63.703 40.8854C63.6496 41.111 63.6643 41.3473 63.7453 41.5645C64.1454 42.6316 64.4404 43.7351 64.6263 44.8595C64.6638 45.0881 64.7683 45.3003 64.9266 45.4695C65.0848 45.6386 65.2897 45.7569 65.5153 45.8095L68.3593 46.4735C68.3873 46.9045 68.4013 47.3285 68.4013 47.7425C68.4013 48.1565 68.3873 48.5805 68.3613 49.0105H68.3663Z" fill="white"/>
<path d="M55.5104 47.7405C55.5104 46.1187 55.0294 44.5333 54.1284 43.1849C53.2274 41.8364 51.9467 40.7854 50.4484 40.1647C48.95 39.5441 47.3013 39.3817 45.7106 39.6981C44.12 40.0145 42.6589 40.7955 41.5121 41.9423C40.3653 43.089 39.5843 44.5501 39.2679 46.1408C38.9515 47.7314 39.1139 49.3802 39.7345 50.8785C40.3552 52.3769 41.4062 53.6576 42.7547 54.5586C44.1032 55.4596 45.6885 55.9405 47.3104 55.9405C49.4842 55.9376 51.5682 55.0728 53.1054 53.5356C54.6426 51.9984 55.5074 49.9144 55.5104 47.7405ZM47.3104 53.6005C46.1519 53.6001 45.0196 53.2563 44.0566 52.6124C43.0935 51.9686 42.343 51.0537 41.8999 49.9834C41.4568 48.913 41.3409 47.7354 41.567 46.5992C41.7931 45.463 42.351 44.4194 43.1701 43.6003C43.9893 42.7812 45.0329 42.2233 46.169 41.9972C47.3052 41.7711 48.4829 41.8869 49.5532 42.3301C50.6235 42.7732 51.5384 43.5237 52.1823 44.4868C52.8261 45.4498 53.17 46.5821 53.1704 47.7405C53.169 49.2943 52.5512 50.784 51.4525 51.8827C50.3539 52.9814 48.8641 53.5992 47.3104 53.6005Z" fill="white"/>
<path d="M37.8152 40.8784L35.9152 39.5044C35.4211 40.1859 34.9894 40.9105 34.6252 41.6694L36.7382 42.6824C37.0426 42.0501 37.403 41.4463 37.8152 40.8784Z" fill="white"/>
<path d="M46.7472 36.0395L46.6372 33.6985C45.7954 33.738 44.9587 33.8525 44.1372 34.0405L44.6632 36.3245C45.3481 36.1679 46.0455 36.0726 46.7472 36.0395V36.0395Z" fill="white"/>
<path d="M56.0422 36.7205L54.5842 38.5555C55.1347 38.9921 55.6454 39.4766 56.1102 40.0035L57.8672 38.4545C57.3109 37.8241 56.7002 37.2439 56.0422 36.7205V36.7205Z" fill="white"/>
<path d="M36.0212 50.8835L33.7622 51.5065C33.986 52.3183 34.2836 53.1079 34.6512 53.8655L36.7612 52.8445C36.4559 52.2145 36.2083 51.5582 36.0212 50.8835V50.8835Z" fill="white"/>
<path d="M41.7324 37.4365L40.6134 35.3765C39.8736 35.7782 39.1709 36.2447 38.5134 36.7705L39.9804 38.5985C40.5272 38.1597 41.1122 37.7708 41.7284 37.4365H41.7324Z" fill="white"/>
<path d="M58.8423 49.8344L61.1493 50.2504C61.2978 49.4223 61.3724 48.5827 61.3723 47.7414V47.6914L59.0293 47.7414C59.0291 48.4432 58.9665 49.1437 58.8423 49.8344V49.8344Z" fill="white"/>
<path d="M47.8494 59.4465L47.9544 61.7875C48.7961 61.7497 49.6327 61.6369 50.4544 61.4505L49.9334 59.1655C49.2491 59.3208 48.5523 59.4148 47.8514 59.4465H47.8494Z" fill="white"/>
<path d="M56.7954 54.6255L58.6904 56.0045C59.1856 55.3237 59.6187 54.5998 59.9844 53.8415L57.8744 52.8245C57.5685 53.4554 57.2074 54.0581 56.7954 54.6255Z" fill="white"/>
<path d="M58.5962 44.5795L60.8562 43.9535C60.6291 43.1413 60.3278 42.3516 59.9562 41.5945L57.8562 42.6205C58.1622 43.2495 58.4099 43.9052 58.5962 44.5795V44.5795Z" fill="white"/>
<path d="M52.8713 58.0584L53.9833 60.1204C54.7237 59.7208 55.4266 59.2552 56.0833 58.7294L54.6263 56.8994C54.0784 57.3367 53.4928 57.7246 52.8763 58.0584H52.8713Z" fill="white"/>
<path d="M41.7993 60.6804C42.5743 61.011 43.3775 61.2707 44.1993 61.4564L44.7133 59.1704C44.0284 59.0164 43.3589 58.8002 42.7133 58.5244L41.7993 60.6804Z" fill="white"/>
<path d="M38.4993 55.4634L36.7373 57.0074C37.2927 57.6402 37.9034 58.2222 38.5623 58.7464L40.0203 56.9124C39.4709 56.4763 38.9622 55.9913 38.5003 55.4634H38.4993Z" fill="white"/>
<path d="M52.7983 34.7925C52.0233 34.4633 51.22 34.2052 50.3983 34.0215L49.8853 36.3075C50.5701 36.4602 51.2395 36.6751 51.8853 36.9495L52.7983 34.7925Z" fill="white"/>
<path d="M35.7772 45.6725L33.4702 45.2615C33.3247 46.0801 33.2518 46.91 33.2522 47.7415V47.7675L35.5952 47.7415C35.5957 47.0478 35.6566 46.3556 35.7772 45.6725V45.6725Z" fill="white"/>
<path d="M42.2823 11.7634L40.6253 13.4204L43.3073 16.1064H28.5653C27.012 16.1083 25.523 16.7262 24.4247 17.8246C23.3265 18.923 22.7089 20.4122 22.7073 21.9654V28.9954H25.0503V21.9654C25.0513 21.0335 25.422 20.1401 26.081 19.4811C26.7399 18.8222 27.6334 18.4515 28.5653 18.4504H43.3073L40.6203 21.1374L42.2773 22.7944L46.9643 18.1074C47.0733 17.9987 47.1598 17.8696 47.2188 17.7274C47.2778 17.5853 47.3081 17.4329 47.3081 17.2789C47.3081 17.125 47.2778 16.9726 47.2188 16.8304C47.1598 16.6882 47.0733 16.5591 46.9643 16.4504L42.2823 11.7634Z" fill="white"/>
<path d="M12.1624 10.2485H14.5054V12.5915H12.1624V10.2485Z" fill="white"/>
<path d="M16.8484 10.2485H19.1914V12.5915H16.8484V10.2485Z" fill="white"/>
<path d="M21.5354 10.2485H23.8784V12.5915H21.5354V10.2485Z" fill="white"/>
</svg>
