<svg width="71" height="72" viewBox="0 0 71 72" fill="none" xmlns="http://www.w3.org/2000/svg">
<path d="M69.7283 44.3616L66.7983 43.6776C66.6435 42.9281 66.4455 42.1882 66.2053 41.4616L68.3883 39.4146C68.5668 39.2473 68.6885 39.0283 68.7364 38.7884C68.7842 38.5485 68.7559 38.2996 68.6553 38.0766C68.0119 36.6603 67.2294 35.3113 66.3193 34.0496C66.1766 33.851 65.9751 33.7021 65.7434 33.6239C65.5116 33.5457 65.2612 33.5421 65.0273 33.6136L62.1873 34.4756C61.6751 33.9004 61.1298 33.3555 60.5543 32.8436L61.4193 30.0046C61.4903 29.7708 61.4864 29.5207 61.4082 29.2892C61.33 29.0578 61.1815 28.8565 60.9833 28.7136C60.3526 28.2589 59.7013 27.8366 59.0293 27.4466V6.70761C59.0275 5.15437 58.4095 3.66529 57.3111 2.56707C56.2127 1.46886 54.7236 0.851197 53.1703 0.849609H6.30331C4.75024 0.851462 3.26131 1.46924 2.16313 2.56742C1.06494 3.66561 0.447165 5.15454 0.445312 6.70761V37.1716C0.447165 38.7247 1.06494 40.2136 2.16313 41.3118C3.26131 42.41 4.75024 43.0278 6.30331 43.0296H18.6913L14.8563 53.5746H8.64531C8.49128 53.5747 8.33879 53.6053 8.19657 53.6644C8.05435 53.7236 7.9252 53.8102 7.81652 53.9194C7.70784 54.0285 7.62175 54.158 7.5632 54.3005C7.50465 54.443 7.47479 54.5956 7.47531 54.7496C7.47716 56.3027 8.09494 57.7916 9.19313 58.8898C10.2913 59.988 11.7802 60.6058 13.3333 60.6076H27.7983C27.9693 60.8666 28.1233 61.1376 28.3043 61.3886C28.447 61.5873 28.6484 61.7363 28.8802 61.8145C29.1119 61.8927 29.3624 61.8963 29.5963 61.8246L32.4363 60.9626C32.9486 61.5378 33.4938 62.0827 34.0693 62.5946L33.2043 65.4336C33.1334 65.6674 33.1372 65.9175 33.2154 66.149C33.2936 66.3805 33.4421 66.5817 33.6403 66.7246C34.9033 67.6359 36.2544 68.4185 37.6733 69.0606C37.8962 69.1619 38.1453 69.1907 38.3853 69.1428C38.6254 69.0949 38.8444 68.9727 39.0113 68.7936L41.0573 66.6096C41.7841 66.8504 42.5244 67.0484 43.2743 67.2026L43.9583 70.1346C44.0139 70.373 44.1428 70.5879 44.3268 70.7494C44.5108 70.9108 44.7407 71.0105 44.9843 71.0346C45.7743 71.1126 46.5583 71.1526 47.3113 71.1526C48.0643 71.1526 48.8483 71.1126 49.6393 71.0356C49.8829 71.0115 50.1128 70.9118 50.2968 70.7504C50.4808 70.5889 50.6097 70.374 50.6653 70.1356L51.3493 67.2036C52.0992 67.0492 52.8395 66.8512 53.5663 66.6106L55.6123 68.7946C55.7795 68.9733 55.9984 69.0952 56.2384 69.1431C56.4784 69.191 56.7274 69.1625 56.9503 69.0616C58.3683 68.4188 59.7186 67.6363 60.9813 66.7256C61.1799 66.5828 61.3287 66.3814 61.4071 66.1497C61.4855 65.918 61.4894 65.6676 61.4183 65.4336L60.5543 62.5936C61.1295 62.0814 61.6748 61.5365 62.1873 60.9616L65.0273 61.8256C65.2612 61.8966 65.5115 61.8928 65.7432 61.8146C65.9748 61.7365 66.1763 61.5879 66.3193 61.3896C67.2305 60.1239 68.0134 58.7705 68.6563 57.3496C68.7573 57.1267 68.7859 56.8777 68.738 56.6377C68.6901 56.3976 68.5682 56.1787 68.3893 56.0116L66.2063 53.9696C66.4467 53.2427 66.6447 52.5024 66.7993 51.7526L69.7293 51.0686C69.9676 51.0132 70.1825 50.8845 70.344 50.7007C70.5054 50.5168 70.6052 50.2871 70.6293 50.0436C70.7053 49.2566 70.7453 48.4726 70.7453 47.7166C70.7453 46.9606 70.7053 46.1766 70.6273 45.3876C70.6033 45.1441 70.5036 44.9143 70.3421 44.7304C70.1807 44.5465 69.9657 44.4179 69.7273 44.3626L69.7283 44.3616ZM6.30331 3.19261H53.1703C54.1022 3.19367 54.9957 3.56434 55.6546 4.2233C56.3136 4.88226 56.6843 5.7757 56.6853 6.70761V26.2996C56.4925 26.2611 56.293 26.2721 56.1055 26.3316C55.9181 26.391 55.7487 26.497 55.6133 26.6396L53.5673 28.8236C52.8405 28.5828 52.1003 28.3848 51.3503 28.2306L50.6663 25.2986C50.6107 25.0602 50.4818 24.8453 50.2978 24.6839C50.1138 24.5224 49.8839 24.4227 49.6403 24.3986C48.0919 24.2428 46.5317 24.2428 44.9833 24.3986C44.7397 24.4227 44.5098 24.5224 44.3258 24.6839C44.1418 24.8453 44.0129 25.0602 43.9573 25.2986L43.2733 28.2306C42.5234 28.385 41.7831 28.583 41.0563 28.8236L39.0093 26.6396C38.842 26.4611 38.623 26.3394 38.3831 26.2916C38.1432 26.2437 37.8943 26.272 37.6713 26.3726C36.2551 27.0157 34.9064 27.7982 33.6453 28.7086C33.4468 28.8514 33.2979 29.0528 33.2195 29.2845C33.1412 29.5162 33.1372 29.7666 33.2083 30.0006L33.6083 31.3126H9.81831V17.2496H21.5353V14.9096H9.81831V7.87961H49.6553V21.9396H51.9983V6.70761C51.9984 6.55366 51.9682 6.4012 51.9094 6.25895C51.8505 6.1167 51.7642 5.98744 51.6553 5.87859C51.5465 5.76973 51.4172 5.68341 51.275 5.62455C51.1327 5.5657 50.9803 5.53548 50.8263 5.53561H8.64531C8.49153 5.53574 8.33929 5.56616 8.19727 5.62513C8.05524 5.6841 7.92623 5.77046 7.81758 5.87929C7.70894 5.98812 7.62279 6.11729 7.56407 6.25941C7.50534 6.40153 7.47518 6.55383 7.47531 6.70761V31.3076H2.78831V6.70761C2.78937 5.7757 3.16004 4.88226 3.819 4.2233C4.47796 3.56434 5.3714 3.19367 6.30331 3.19261V3.19261ZM33.2523 33.6566C32.9803 33.9286 32.6913 34.1846 32.4353 34.4716L29.7513 33.6566H33.2523ZM2.78831 37.1716V33.6566H28.8103C28.6085 33.7362 28.4331 33.871 28.3043 34.0456C27.3942 35.3089 26.6121 36.6595 25.9693 38.0776C25.8683 38.3005 25.8397 38.5495 25.8876 38.7896C25.9355 39.0296 26.0575 39.2485 26.2363 39.4156L27.5933 40.6866H6.30331C5.3714 40.6856 4.47796 40.3149 3.819 39.6559C3.16004 38.997 2.78937 38.1035 2.78831 37.1716ZM21.1883 43.0296H27.9883C27.9353 43.2456 27.8793 43.4596 27.8353 43.6776L24.9053 44.3616C24.667 44.417 24.4521 44.5457 24.2907 44.7295C24.1292 44.9134 24.0295 45.1432 24.0053 45.3866C23.9283 46.1766 23.8883 46.9606 23.8883 47.7156C23.8883 48.4706 23.9283 49.2536 24.0063 50.0446C24.0305 50.2881 24.1302 50.5178 24.2917 50.7017C24.4531 50.8855 24.668 51.0142 24.9063 51.0696L27.8363 51.7536C27.9633 52.3686 28.1363 52.9726 28.3223 53.5736H17.3453L21.1883 43.0296ZM13.3383 58.2616C12.6115 58.2608 11.9028 58.0352 11.3093 57.6157C10.7158 57.1963 10.2666 56.6035 10.0233 55.9186H26.3453L26.2383 56.0186C26.0598 56.1859 25.9381 56.4049 25.8903 56.6448C25.8424 56.8847 25.8707 57.1336 25.9713 57.3566C26.1103 57.6646 26.2843 57.9566 26.4373 58.2626L13.3383 58.2616ZM68.3663 48.9846L65.5223 49.6486C65.2968 49.7013 65.092 49.8197 64.9337 49.9888C64.7755 50.1579 64.6709 50.3701 64.6333 50.5986C64.4476 51.7227 64.1525 52.8259 63.7523 53.8926C63.6713 54.1098 63.6566 54.3461 63.71 54.5716C63.7634 54.7972 63.8825 55.0018 64.0523 55.1596L66.1683 57.1436C65.7896 57.8987 65.3659 58.6304 64.8993 59.3346L62.1443 58.4966C61.9229 58.4287 61.6863 58.4281 61.4646 58.4951C61.2429 58.5621 61.0461 58.6935 60.8993 58.8726C60.1717 59.7572 59.3599 60.569 58.4753 61.2966C58.2968 61.4439 58.1659 61.6407 58.099 61.8622C58.0321 62.0838 58.0322 62.3201 58.0993 62.5416L58.9373 65.2966C58.2326 65.7627 57.501 66.1868 56.7463 66.5666L54.7553 64.4496C54.5976 64.2797 54.393 64.1605 54.1674 64.1071C53.9418 64.0537 53.7055 64.0685 53.4883 64.1496C52.4212 64.5497 51.3177 64.8448 50.1933 65.0306C49.9648 65.0682 49.7526 65.1728 49.5835 65.331C49.4144 65.4893 49.296 65.6941 49.2433 65.9196L48.5803 68.7636C47.7361 68.8163 46.8895 68.8163 46.0453 68.7636L45.3823 65.9196C45.3297 65.694 45.2114 65.4891 45.0423 65.3309C44.8732 65.1726 44.6609 65.0681 44.4323 65.0306C43.3081 64.8441 42.2046 64.5491 41.1373 64.1496C40.9201 64.0686 40.6838 64.0539 40.4583 64.1073C40.2327 64.1607 40.0281 64.2798 39.8703 64.4496L37.8883 66.5666C37.1327 66.1879 36.4007 65.7637 35.6963 65.2966L36.5353 62.5436C36.6022 62.3221 36.6022 62.0858 36.5353 61.8643C36.4684 61.6429 36.3376 61.4461 36.1593 61.2986C35.2747 60.571 34.4629 59.7592 33.7353 58.8746C33.5882 58.6959 33.3914 58.5648 33.1698 58.4979C32.9482 58.431 32.7118 58.4312 32.4903 58.4986L29.7353 59.3356C29.2687 58.6312 28.8446 57.8996 28.4653 57.1446L30.5823 55.1606C30.7521 55.0028 30.8712 54.7982 30.9246 54.5726C30.978 54.3471 30.9633 54.1108 30.8823 53.8936C30.4823 52.8265 30.1872 51.723 30.0013 50.5986C29.9638 50.37 29.8593 50.1578 29.701 49.9886C29.5428 49.8195 29.3379 49.7012 29.1123 49.6486L26.2683 48.9846C26.2403 48.5556 26.2263 48.1316 26.2263 47.7176C26.2263 47.3036 26.2403 46.8796 26.2663 46.4496L29.1103 45.7856C29.3358 45.7329 29.5407 45.6145 29.6989 45.4454C29.8571 45.2763 29.9617 45.0641 29.9993 44.8356C30.1847 43.7115 30.4798 42.6082 30.8803 41.5416C30.9615 41.3243 30.9764 41.0878 30.923 40.862C30.8696 40.6363 30.7503 40.4315 30.5803 40.2736L28.4633 38.2896C28.8422 37.5346 29.266 36.803 29.7323 36.0986L32.4873 36.9356C32.7088 37.0026 32.9451 37.0027 33.1666 36.9358C33.3881 36.8689 33.5849 36.738 33.7323 36.5596C34.4602 35.6753 35.272 34.8635 36.1563 34.1356C36.3348 33.9883 36.4657 33.7915 36.5327 33.57C36.5996 33.3485 36.5994 33.1121 36.5323 32.8906L35.6943 30.1356C36.399 29.6695 37.1306 29.2454 37.8853 28.8656L39.8673 30.9826C40.0251 31.1524 40.2297 31.2715 40.4553 31.3249C40.6808 31.3783 40.9171 31.3636 41.1343 31.2826C42.2014 30.8825 43.3049 30.5874 44.4293 30.4016C44.6578 30.364 44.87 30.2594 45.0391 30.1012C45.2082 29.943 45.3266 29.7381 45.3793 29.5126L46.0423 26.6686C46.8865 26.6159 47.7331 26.6159 48.5773 26.6686L49.2403 29.5126C49.2929 29.7382 49.4112 29.9431 49.5803 30.1013C49.7495 30.2596 49.9617 30.3641 50.1903 30.4016C51.3145 30.5881 52.418 30.8832 53.4853 31.2826C53.7025 31.3632 53.9388 31.3777 54.1642 31.3243C54.3897 31.271 54.5943 31.1521 54.7523 30.9826L56.7343 28.8656C57.4899 29.2444 58.2219 29.6685 58.9263 30.1356L58.0873 32.8886C58.0205 33.1101 58.0205 33.3464 58.0874 33.5679C58.1542 33.7894 58.285 33.9862 58.4633 34.1336C59.3479 34.8612 60.1597 35.673 60.8873 36.5576C61.0343 36.7365 61.231 36.8678 61.4527 36.9347C61.6743 37.0017 61.9109 37.0013 62.1323 36.9336L64.8873 36.0966C65.3539 36.801 65.778 37.5326 66.1573 38.2876L64.0453 40.2716C63.8755 40.4294 63.7564 40.634 63.703 40.8596C63.6496 41.0851 63.6643 41.3214 63.7453 41.5386C64.1454 42.6057 64.4404 43.7093 64.6263 44.8336C64.6638 45.0622 64.7683 45.2745 64.9266 45.4436C65.0848 45.6127 65.2897 45.731 65.5153 45.7836L68.3593 46.4476C68.3873 46.8786 68.4013 47.3026 68.4013 47.7166C68.4013 48.1306 68.3873 48.5546 68.3613 48.9846H68.3663Z" fill="#0F172A"/>
<path d="M55.5104 47.7147C55.5104 46.0928 55.0294 44.5075 54.1284 43.159C53.2274 41.8105 51.9467 40.7595 50.4484 40.1388C48.95 39.5182 47.3013 39.3558 45.7106 39.6722C44.12 39.9886 42.6589 40.7696 41.5121 41.9164C40.3653 43.0632 39.5843 44.5243 39.2679 46.1149C38.9515 47.7056 39.1139 49.3543 39.7345 50.8527C40.3552 52.351 41.4062 53.6317 42.7547 54.5327C44.1032 55.4337 45.6885 55.9147 47.3104 55.9147C49.4842 55.9117 51.5682 55.0469 53.1054 53.5097C54.6426 51.9725 55.5074 49.8885 55.5104 47.7147ZM47.3104 53.5747C46.1519 53.5743 45.0196 53.2304 44.0566 52.5866C43.0935 51.9427 42.343 51.0278 41.8999 49.9575C41.4568 48.8872 41.3409 47.7095 41.567 46.5733C41.7931 45.4372 42.351 44.3936 43.1701 43.5744C43.9893 42.7553 45.0329 42.1974 46.169 41.9713C47.3052 41.7452 48.4829 41.8611 49.5532 42.3042C50.6235 42.7473 51.5384 43.4978 52.1823 44.4609C52.8261 45.4239 53.17 46.5562 53.1704 47.7147C53.169 49.2684 52.5512 50.7582 51.4525 51.8568C50.3539 52.9555 48.8641 53.5733 47.3104 53.5747Z" fill="#0F172A"/>
<path d="M37.8152 40.8525L35.9152 39.4785C35.4211 40.16 34.9894 40.8846 34.6252 41.6435L36.7382 42.6565C37.0426 42.0242 37.403 41.4204 37.8152 40.8525Z" fill="#0F172A"/>
<path d="M46.7472 36.0136L46.6372 33.6726C45.7954 33.7122 44.9587 33.8266 44.1372 34.0146L44.6632 36.2986C45.3481 36.142 46.0455 36.0467 46.7472 36.0136V36.0136Z" fill="#0F172A"/>
<path d="M56.0422 36.6946L54.5842 38.5296C55.1347 38.9662 55.6454 39.4507 56.1102 39.9776L57.8672 38.4286C57.3109 37.7982 56.7002 37.218 56.0422 36.6946V36.6946Z" fill="#0F172A"/>
<path d="M36.0212 50.8577L33.7622 51.4807C33.986 52.2924 34.2836 53.0821 34.6512 53.8397L36.7612 52.8187C36.4559 52.1886 36.2083 51.5323 36.0212 50.8577V50.8577Z" fill="#0F172A"/>
<path d="M41.7324 37.4106L40.6134 35.3506C39.8736 35.7523 39.1709 36.2188 38.5134 36.7446L39.9804 38.5726C40.5272 38.1338 41.1122 37.7449 41.7284 37.4106H41.7324Z" fill="#0F172A"/>
<path d="M58.8423 49.8085L61.1493 50.2245C61.2978 49.3964 61.3724 48.5568 61.3723 47.7155V47.6655L59.0293 47.7155C59.0291 48.4174 58.9665 49.1178 58.8423 49.8085V49.8085Z" fill="#0F172A"/>
<path d="M47.8494 59.4206L47.9544 61.7617C48.7961 61.7238 49.6327 61.611 50.4544 61.4246L49.9334 59.1396C49.2491 59.2949 48.5523 59.389 47.8514 59.4206H47.8494Z" fill="#0F172A"/>
<path d="M56.7954 54.5996L58.6904 55.9786C59.1856 55.2978 59.6187 54.5739 59.9844 53.8156L57.8744 52.7986C57.5685 53.4295 57.2074 54.0322 56.7954 54.5996Z" fill="#0F172A"/>
<path d="M58.5962 44.5536L60.8562 43.9276C60.6291 43.1154 60.3278 42.3257 59.9562 41.5686L57.8562 42.5946C58.1622 43.2236 58.4099 43.8794 58.5962 44.5536V44.5536Z" fill="#0F172A"/>
<path d="M52.8713 58.0325L53.9833 60.0945C54.7237 59.6949 55.4266 59.2294 56.0833 58.7035L54.6263 56.8735C54.0784 57.3108 53.4928 57.6987 52.8763 58.0325H52.8713Z" fill="#0F172A"/>
<path d="M41.7993 60.6545C42.5743 60.9851 43.3775 61.2448 44.1993 61.4305L44.7133 59.1445C44.0284 58.9906 43.3589 58.7743 42.7133 58.4985L41.7993 60.6545Z" fill="#0F172A"/>
<path d="M38.4993 55.4375L36.7373 56.9815C37.2927 57.6143 37.9034 58.1963 38.5623 58.7205L40.0203 56.8865C39.4709 56.4504 38.9622 55.9654 38.5003 55.4375H38.4993Z" fill="#0F172A"/>
<path d="M52.7983 34.7666C52.0233 34.4374 51.22 34.1794 50.3983 33.9956L49.8853 36.2816C50.5701 36.4343 51.2395 36.6492 51.8853 36.9236L52.7983 34.7666Z" fill="#0F172A"/>
<path d="M35.7772 45.6466L33.4702 45.2356C33.3247 46.0542 33.2518 46.8841 33.2522 47.7156V47.7416L35.5952 47.7156C35.5957 47.022 35.6566 46.3297 35.7772 45.6466V45.6466Z" fill="#0F172A"/>
<path d="M42.2823 11.7375L40.6253 13.3945L43.3073 16.0805H28.5653C27.012 16.0824 25.523 16.7003 24.4247 17.7987C23.3265 18.8971 22.7089 20.3863 22.7073 21.9395V28.9695H25.0503V21.9395C25.0513 21.0076 25.422 20.1142 26.081 19.4552C26.7399 18.7963 27.6334 18.4256 28.5653 18.4245H43.3073L40.6203 21.1115L42.2773 22.7685L46.9643 18.0815C47.0733 17.9729 47.1598 17.8437 47.2188 17.7016C47.2778 17.5594 47.3081 17.407 47.3081 17.253C47.3081 17.0991 47.2778 16.9467 47.2188 16.8045C47.1598 16.6624 47.0733 16.5332 46.9643 16.4245L42.2823 11.7375Z" fill="#0F172A"/>
<path d="M12.1624 10.2227H14.5054V12.5657H12.1624V10.2227Z" fill="#0F172A"/>
<path d="M16.8484 10.2227H19.1914V12.5657H16.8484V10.2227Z" fill="#0F172A"/>
<path d="M21.5354 10.2227H23.8784V12.5657H21.5354V10.2227Z" fill="#0F172A"/>
</svg>
