<svg width="71" height="72" viewBox="0 0 71 72" fill="none" xmlns="http://www.w3.org/2000/svg">
<path d="M69.6505 20.0589H65.6845C65.2188 18.1077 64.4484 16.2421 63.4015 14.5309L66.2015 11.7309C66.3072 11.6252 66.3911 11.4998 66.4484 11.3616C66.5056 11.2235 66.5351 11.0755 66.5351 10.9259C66.5351 10.7764 66.5056 10.6284 66.4484 10.4902C66.3911 10.3521 66.3072 10.2266 66.2015 10.1209L61.3695 5.28893C61.1519 5.0833 60.8638 4.96873 60.5645 4.96873C60.2651 4.96873 59.977 5.0833 59.7595 5.28893L56.9595 8.08893C55.2482 7.04112 53.3827 6.26902 51.4315 5.80093V1.83993C51.4316 1.69007 51.4021 1.54165 51.3447 1.40321C51.2874 1.26476 51.2032 1.13901 51.0971 1.03318C50.991 0.927351 50.865 0.843521 50.7264 0.786504C50.5878 0.729488 50.4393 0.700408 50.2895 0.700935H43.4605C43.3108 0.700803 43.1627 0.730175 43.0244 0.787368C42.8862 0.844562 42.7606 0.928455 42.6548 1.03425C42.549 1.14004 42.4651 1.26565 42.4079 1.4039C42.3507 1.54215 42.3213 1.69032 42.3215 1.83993V5.80093C40.3686 6.26781 38.5016 7.03998 36.7895 8.08893L33.9895 5.28893C33.8838 5.18317 33.7583 5.09926 33.6202 5.04202C33.482 4.98477 33.334 4.95531 33.1845 4.95531C33.0349 4.95531 32.8869 4.98477 32.7488 5.04202C32.6106 5.09926 32.4851 5.18317 32.3795 5.28893L27.5525 10.1199C27.4467 10.2256 27.3628 10.3511 27.3055 10.4892C27.2483 10.6274 27.2188 10.7754 27.2188 10.9249C27.2188 11.0745 27.2483 11.2225 27.3055 11.3606C27.3628 11.4988 27.4467 11.6243 27.5525 11.7299L30.3525 14.5299C29.3055 16.2411 28.5351 18.1067 28.0695 20.0579H24.1025C23.9525 20.0578 23.804 20.0873 23.6655 20.1447C23.527 20.2022 23.4012 20.2864 23.2953 20.3927C23.1895 20.4989 23.1057 20.625 23.0487 20.7637C22.9918 20.9024 22.9628 21.051 22.9635 21.2009V23.4779H5.88245C4.9774 23.4793 4.10975 23.8392 3.46949 24.4789C2.82924 25.1185 2.46857 25.9859 2.46645 26.8909V59.9139H1.32845C1.17892 59.9138 1.03084 59.9431 0.892652 60.0003C0.754468 60.0574 0.628898 60.1412 0.523119 60.2469C0.41734 60.3526 0.333426 60.4781 0.276174 60.6162C0.218921 60.7543 0.189453 60.9024 0.189453 61.0519L0.189453 65.6069C0.191041 67.1164 0.791315 68.5636 1.85859 69.6311C2.92586 70.6986 4.37297 71.2991 5.88245 71.3009H55.9895C57.4991 71.2993 58.9465 70.6989 60.014 69.6314C61.0815 68.564 61.6819 67.1166 61.6835 65.6069V61.0519C61.6836 60.9023 61.6542 60.7542 61.597 60.6159C61.5398 60.4777 61.4559 60.352 61.3501 60.2462C61.2443 60.1405 61.1187 60.0566 60.9805 59.9994C60.8422 59.9422 60.6941 59.9128 60.5445 59.9129H59.4025V43.5809L59.7585 43.9389C59.8641 44.0447 59.9896 44.1286 60.1278 44.1859C60.2659 44.2431 60.4139 44.2726 60.5635 44.2726C60.713 44.2726 60.861 44.2431 60.9991 44.1859C61.1373 44.1286 61.2628 44.0447 61.3685 43.9389L66.2005 39.1069C66.3062 39.0012 66.3901 38.8758 66.4474 38.7376C66.5046 38.5995 66.5341 38.4515 66.5341 38.3019C66.5341 38.1524 66.5046 38.0044 66.4474 37.8662C66.3901 37.7281 66.3062 37.6026 66.2005 37.4969L63.4005 34.6969C64.4474 32.9858 65.2178 31.1202 65.6835 29.1689H69.6505C69.8001 29.1691 69.9482 29.1397 70.0865 29.0825C70.2247 29.0253 70.3503 28.9414 70.4561 28.8356C70.5619 28.7298 70.6458 28.6042 70.703 28.466C70.7602 28.3277 70.7896 28.1795 70.7895 28.0299V21.2009C70.7896 21.0513 70.7602 20.9032 70.703 20.7649C70.6458 20.6267 70.5619 20.501 70.4561 20.3952C70.3503 20.2895 70.2247 20.2056 70.0865 20.1484C69.9482 20.0912 69.8001 20.0618 69.6505 20.0619V20.0589ZM59.4025 65.6069C59.4011 66.512 59.0412 67.3796 58.4015 68.0199C57.7618 68.6601 56.8945 69.0208 55.9895 69.0229H5.88245C4.97688 69.0216 4.10877 68.6613 3.46844 68.021C2.8281 67.3806 2.46778 66.5125 2.46645 65.6069V62.1909H16.1315V63.3299C16.1328 64.2355 16.4931 65.1036 17.1334 65.7439C17.7738 66.3843 18.6419 66.7446 19.5475 66.7459H42.3215C43.227 66.7446 44.0951 66.3843 44.7355 65.7439C45.3758 65.1036 45.7361 64.2355 45.7375 63.3299V62.1909H59.4025V65.6069ZM18.4085 62.1909H43.4605V63.3299C43.4602 63.6319 43.3401 63.9215 43.1266 64.135C42.913 64.3486 42.6235 64.4687 42.3215 64.4689H19.5475C19.2455 64.4687 18.9559 64.3486 18.7424 64.135C18.5288 63.9215 18.4087 63.6319 18.4085 63.3299V62.1909ZM57.1245 59.9139H4.74445V26.8909C4.74472 26.5889 4.8648 26.2994 5.07835 26.0858C5.2919 25.8723 5.58145 25.7522 5.88345 25.7519H22.9635V28.0289C22.9633 28.1785 22.9927 28.3267 23.0499 28.465C23.1071 28.6032 23.191 28.7288 23.2968 28.8346C23.4026 28.9404 23.5282 29.0243 23.6664 29.0815C23.8047 29.1387 23.9528 29.1681 24.1025 29.1679H28.0685C28.5336 31.1209 29.3041 32.9882 30.3515 34.7009L27.5515 37.5009C27.4457 37.6066 27.3618 37.7321 27.3045 37.8702C27.2473 38.0084 27.2178 38.1564 27.2178 38.3059C27.2178 38.4555 27.2473 38.6035 27.3045 38.7416C27.3618 38.8798 27.4457 39.0053 27.5515 39.1109L32.3835 43.9429C32.601 44.1486 32.8891 44.2631 33.1885 44.2631C33.4878 44.2631 33.7759 44.1486 33.9935 43.9429L36.7935 41.1429C38.5043 42.1897 40.3696 42.9602 42.3205 43.4259V47.3919C42.3203 47.5415 42.3497 47.6897 42.4069 47.828C42.4641 47.9662 42.548 48.0918 42.6538 48.1976C42.7596 48.3034 42.8852 48.3873 43.0234 48.4445C43.1617 48.5017 43.3098 48.5311 43.4595 48.5309H50.2895C50.439 48.5309 50.5871 48.5015 50.7253 48.4442C50.8635 48.387 50.9891 48.3031 51.0948 48.1973C51.2006 48.0916 51.2845 47.966 51.3418 47.8278C51.399 47.6896 51.4285 47.5415 51.4285 47.3919V43.4219C53.3793 42.9561 55.2445 42.1857 56.9555 41.1389L57.1225 41.3039L57.1245 59.9139ZM68.5115 26.8909H64.7645C64.4994 26.891 64.2427 26.9835 64.0386 27.1525C63.8345 27.3216 63.6958 27.5566 63.6465 27.8169C63.2166 30.1075 62.3178 32.2844 61.0065 34.2109C60.857 34.4299 60.7887 34.6943 60.8133 34.9583C60.838 35.2223 60.954 35.4694 61.1415 35.6569L63.7895 38.3009L60.5675 41.5229L57.9235 38.8779C57.7356 38.691 57.4887 38.5753 57.2249 38.5504C56.9611 38.5256 56.6968 38.5933 56.4775 38.7419C54.5511 40.0541 52.3742 40.9536 50.0835 41.3839C49.8229 41.4331 49.5877 41.5717 49.4184 41.7758C49.2492 41.98 49.1565 42.2368 49.1565 42.5019V46.2489H44.5985V42.5009C44.5984 42.2359 44.5059 41.9792 44.3369 41.7751C44.1678 41.571 43.9328 41.4323 43.6725 41.3829C41.3817 40.9526 39.2048 40.0531 37.2785 38.7409C37.0591 38.5921 36.7949 38.5243 36.531 38.5492C36.2672 38.574 36.0202 38.6899 35.8325 38.8769L33.1895 41.5239L29.9675 38.3009L32.6125 35.6559C32.7999 35.4684 32.916 35.2213 32.9406 34.9573C32.9652 34.6933 32.8969 34.4289 32.7475 34.2099C31.4357 32.2836 30.5368 30.1066 30.1075 27.8159C30.0575 27.5559 29.9186 27.3214 29.7146 27.1526C29.5106 26.9838 29.2542 26.8913 28.9895 26.8909H25.2405V22.3359H28.9895C29.2545 22.3359 29.5112 22.2434 29.7153 22.0744C29.9194 21.9053 30.0581 21.6703 30.1075 21.4099C30.5373 19.1194 31.4361 16.9425 32.7475 15.0159C32.8969 14.7969 32.9652 14.5326 32.9406 14.2686C32.916 14.0046 32.7999 13.7575 32.6125 13.5699L29.9675 10.9249L33.1895 7.70093L35.8335 10.3459C36.021 10.5334 36.268 10.6495 36.532 10.6743C36.7959 10.6991 37.0603 10.6311 37.2795 10.4819C39.2058 9.16977 41.3827 8.27026 43.6735 7.83993C43.934 7.79077 44.1692 7.65216 44.3385 7.44804C44.5077 7.24391 44.6004 6.9871 44.6005 6.72193V2.97793H49.1555V6.72593C49.1555 6.99096 49.248 7.24766 49.417 7.45176C49.5861 7.65586 49.8211 7.79456 50.0815 7.84394C52.3722 8.27426 54.5491 9.17377 56.4755 10.4859C56.6944 10.6357 56.9589 10.704 57.223 10.6792C57.4871 10.6544 57.7342 10.5379 57.9215 10.3499L60.5635 7.70093L63.7895 10.9249L61.1395 13.5699C60.952 13.7575 60.836 14.0046 60.8113 14.2686C60.7867 14.5326 60.855 14.7969 61.0045 15.0159C62.3162 16.9423 63.2151 19.1193 63.6445 21.4099C63.6942 21.6703 63.8332 21.9052 64.0374 22.0742C64.2416 22.2432 64.4984 22.3358 64.7635 22.3359H68.5105L68.5115 26.8909Z" fill="#0F172A"/>
<path d="M46.8735 9.81104C43.9463 9.81104 41.0849 10.679 38.6511 12.3053C36.2172 13.9315 34.3203 16.243 33.2001 18.9473C32.0799 21.6517 31.7868 24.6275 32.3579 27.4984C32.9289 30.3693 34.3385 33.0064 36.4083 35.0762C38.4781 37.146 41.1152 38.5556 43.9862 39.1267C46.8571 39.6977 49.8329 39.4046 52.5372 38.2845C55.2416 37.1643 57.553 35.2673 59.1792 32.8335C60.8055 30.3996 61.6735 27.5382 61.6735 24.611C61.6682 20.6875 60.1072 16.9261 57.3328 14.1517C54.5584 11.3773 50.7971 9.81633 46.8735 9.81104V9.81104ZM45.7345 37.082V31.193C45.7344 30.9603 45.6631 30.7332 45.5301 30.5423C45.3971 30.3514 45.2088 30.2057 44.9905 30.125C43.8577 29.6853 42.886 28.9105 42.2052 27.9039C41.5244 26.8974 41.1669 25.7071 41.1805 24.492C41.1755 23.5748 41.3776 22.6683 41.7719 21.8401C42.1662 21.0119 42.7424 20.2834 43.4575 19.709V24.492C43.4578 24.7858 43.5709 25.0683 43.7735 25.281L46.0505 27.653C46.27 27.8683 46.5651 27.9888 46.8725 27.9888C47.1799 27.9888 47.475 27.8683 47.6945 27.653L49.9735 25.281C50.1768 25.0686 50.2903 24.786 50.2905 24.492V19.711C51.0056 20.2854 51.5818 21.0139 51.9761 21.8421C52.3703 22.6703 52.5725 23.5768 52.5675 24.494C52.5811 25.7091 52.2236 26.8994 51.5428 27.9059C50.862 28.9125 49.8903 29.6873 48.7575 30.127C48.539 30.2076 48.3505 30.3531 48.2173 30.5441C48.0841 30.735 48.0126 30.9622 48.0125 31.195V37.084C47.6365 37.118 47.2585 37.142 46.8735 37.142C46.4885 37.142 46.1105 37.118 45.7345 37.084V37.082ZM50.2895 36.655V31.943C51.7227 31.21 52.9138 30.0789 53.72 28.6855C54.5263 27.2922 54.9133 25.6958 54.8346 24.088C54.7559 22.4801 54.215 20.9291 53.2766 19.6211C52.3383 18.3131 51.0424 17.3037 49.5445 16.714C49.3724 16.6506 49.1875 16.6296 49.0055 16.653C48.8236 16.6763 48.6499 16.7433 48.4994 16.8482C48.3489 16.953 48.2259 17.0927 48.141 17.2553C48.056 17.4179 48.0116 17.5986 48.0115 17.782V24.034L46.8735 25.219L45.7345 24.034V17.782C45.7344 17.5986 45.69 17.4179 45.605 17.2553C45.5201 17.0927 45.3971 16.953 45.2466 16.8482C45.0961 16.7433 44.9224 16.6763 44.7405 16.653C44.5585 16.6296 44.3736 16.6506 44.2015 16.714C42.7037 17.3038 41.4079 18.3133 40.4696 19.6214C39.5313 20.9294 38.9905 22.4805 38.9119 24.0883C38.8334 25.6961 39.2205 27.2925 40.0268 28.6858C40.8331 30.079 42.0243 31.21 43.4575 31.943V36.655C40.5487 35.8305 38.0363 33.9818 36.3839 31.4499C34.7315 28.9181 34.0505 25.874 34.4668 22.8794C34.883 19.8848 36.3682 17.1418 38.6485 15.1566C40.9288 13.1713 43.8501 12.0778 46.8735 12.0778C49.8969 12.0778 52.8182 13.1713 55.0985 15.1566C57.3787 17.1418 58.864 19.8848 59.2802 22.8794C59.6965 25.874 59.0155 28.9181 57.3631 31.4499C55.7107 33.9818 53.1983 35.8305 50.2895 36.655V36.655Z" fill="#0F172A"/>
<path d="M52.5695 55.359H9.29849V30.307H20.6855V28.03H8.16048C8.01087 28.0299 7.8627 28.0593 7.72445 28.1165C7.5862 28.1736 7.46059 28.2576 7.3548 28.3633C7.24901 28.4691 7.16511 28.5948 7.10792 28.733C7.05072 28.8713 7.02135 29.0194 7.02148 29.169V56.498C7.02135 56.6476 7.05072 56.7958 7.10792 56.9341C7.16511 57.0723 7.24901 57.1979 7.3548 57.3037C7.46059 57.4095 7.5862 57.4934 7.72445 57.5506C7.8627 57.6078 8.01087 57.6372 8.16048 57.637H53.7085C53.8581 57.6372 54.0063 57.6078 54.1445 57.5506C54.2828 57.4934 54.4084 57.4095 54.5142 57.3037C54.62 57.1979 54.7039 57.0723 54.761 56.9341C54.8182 56.7958 54.8476 56.6476 54.8475 56.498V50.804H52.5695V55.359Z" fill="#0F172A"/>
</svg>
