<svg width="71" height="72" viewBox="0 0 71 72" fill="none" xmlns="http://www.w3.org/2000/svg">
<path d="M69.6505 20.0848H65.6845C65.2188 18.1336 64.4484 16.268 63.4015 14.5568L66.2015 11.7568C66.3072 11.6511 66.3911 11.5256 66.4484 11.3875C66.5056 11.2494 66.5351 11.1013 66.5351 10.9518C66.5351 10.8023 66.5056 10.6542 66.4484 10.5161C66.3911 10.378 66.3072 10.2525 66.2015 10.1468L61.3695 5.31481C61.1519 5.10918 60.8638 4.99461 60.5645 4.99461C60.2651 4.99461 59.977 5.10918 59.7595 5.31481L56.9595 8.11481C55.2482 7.067 53.3827 6.2949 51.4315 5.82681V1.86581C51.4316 1.71595 51.4021 1.56753 51.3447 1.42909C51.2874 1.29064 51.2032 1.16489 51.0971 1.05906C50.991 0.95323 50.865 0.869399 50.7264 0.812383C50.5878 0.755366 50.4393 0.726287 50.2895 0.726814H43.4605C43.3108 0.726682 43.1627 0.756053 43.0244 0.813247C42.8862 0.870441 42.7606 0.954334 42.6548 1.06013C42.549 1.16592 42.4651 1.29153 42.4079 1.42978C42.3507 1.56803 42.3213 1.7162 42.3215 1.86581V5.82681C40.3686 6.29369 38.5016 7.06586 36.7895 8.11481L33.9895 5.31481C33.8838 5.20905 33.7583 5.12514 33.6202 5.0679C33.482 5.01065 33.334 4.98119 33.1845 4.98119C33.0349 4.98119 32.8869 5.01065 32.7488 5.0679C32.6106 5.12514 32.4851 5.20905 32.3795 5.31481L27.5525 10.1458C27.4467 10.2515 27.3628 10.377 27.3055 10.5151C27.2483 10.6532 27.2188 10.8013 27.2188 10.9508C27.2188 11.1003 27.2483 11.2484 27.3055 11.3865C27.3628 11.5246 27.4467 11.6501 27.5525 11.7558L30.3525 14.5558C29.3055 16.267 28.5351 18.1326 28.0695 20.0838H24.1025C23.9525 20.0837 23.804 20.1132 23.6655 20.1706C23.527 20.2281 23.4012 20.3123 23.2953 20.4185C23.1895 20.5248 23.1057 20.6508 23.0487 20.7896C22.9918 20.9283 22.9628 21.0769 22.9635 21.2268V23.5038H5.88245C4.9774 23.5051 4.10975 23.865 3.46949 24.5047C2.82924 25.1444 2.46857 26.0118 2.46645 26.9168V59.9398H1.32845C1.17892 59.9397 1.03084 59.969 0.892652 60.0262C0.754468 60.0833 0.628898 60.1671 0.523119 60.2728C0.41734 60.3785 0.333426 60.504 0.276174 60.6421C0.218921 60.7802 0.189453 60.9283 0.189453 61.0778L0.189453 65.6328C0.191041 67.1423 0.791315 68.5895 1.85859 69.657C2.92586 70.7244 4.37297 71.325 5.88245 71.3268H55.9895C57.4991 71.3252 58.9465 70.7248 60.014 69.6573C61.0815 68.5898 61.6819 67.1425 61.6835 65.6328V61.0778C61.6836 60.9282 61.6542 60.78 61.597 60.6418C61.5398 60.5035 61.4559 60.3779 61.3501 60.2721C61.2443 60.1663 61.1187 60.0824 60.9805 60.0252C60.8422 59.9681 60.6941 59.9387 60.5445 59.9388H59.4025V43.6068L59.7585 43.9648C59.8641 44.0706 59.9896 44.1545 60.1278 44.2117C60.2659 44.269 60.4139 44.2984 60.5635 44.2984C60.713 44.2984 60.861 44.269 60.9991 44.2117C61.1373 44.1545 61.2628 44.0706 61.3685 43.9648L66.2005 39.1328C66.3062 39.0271 66.3901 38.9016 66.4474 38.7635C66.5046 38.6254 66.5341 38.4773 66.5341 38.3278C66.5341 38.1783 66.5046 38.0302 66.4474 37.8921C66.3901 37.754 66.3062 37.6285 66.2005 37.5228L63.4005 34.7228C64.4474 33.0116 65.2178 31.1461 65.6835 29.1948H69.6505C69.8001 29.1949 69.9482 29.1656 70.0865 29.1084C70.2247 29.0512 70.3503 28.9673 70.4561 28.8615C70.5619 28.7557 70.6458 28.6301 70.703 28.4918C70.7602 28.3536 70.7896 28.2054 70.7895 28.0558V21.2268C70.7896 21.0772 70.7602 20.929 70.703 20.7908C70.6458 20.6525 70.5619 20.5269 70.4561 20.4211C70.3503 20.3153 70.2247 20.2314 70.0865 20.1742C69.9482 20.1171 69.8001 20.0877 69.6505 20.0878V20.0848ZM59.4025 65.6328C59.4011 66.5379 59.0412 67.4055 58.4015 68.0458C57.7618 68.686 56.8945 69.0467 55.9895 69.0488H5.88245C4.97688 69.0475 4.10877 68.6872 3.46844 68.0468C2.8281 67.4065 2.46778 66.5384 2.46645 65.6328V62.2168H16.1315V63.3558C16.1328 64.2614 16.4931 65.1295 17.1334 65.7698C17.7738 66.4102 18.6419 66.7705 19.5475 66.7718H42.3215C43.227 66.7705 44.0951 66.4102 44.7355 65.7698C45.3758 65.1295 45.7361 64.2614 45.7375 63.3558V62.2168H59.4025V65.6328ZM18.4085 62.2168H43.4605V63.3558C43.4602 63.6578 43.3401 63.9474 43.1266 64.1609C42.913 64.3745 42.6235 64.4946 42.3215 64.4948H19.5475C19.2455 64.4946 18.9559 64.3745 18.7424 64.1609C18.5288 63.9474 18.4087 63.6578 18.4085 63.3558V62.2168ZM57.1245 59.9398H4.74445V26.9168C4.74472 26.6148 4.8648 26.3253 5.07835 26.1117C5.2919 25.8982 5.58145 25.7781 5.88345 25.7778H22.9635V28.0548C22.9633 28.2044 22.9927 28.3526 23.0499 28.4908C23.1071 28.6291 23.191 28.7547 23.2968 28.8605C23.4026 28.9663 23.5282 29.0502 23.6664 29.1074C23.8047 29.1646 23.9528 29.1939 24.1025 29.1938H28.0685C28.5336 31.1468 29.3041 33.0141 30.3515 34.7268L27.5515 37.5268C27.4457 37.6325 27.3618 37.758 27.3045 37.8961C27.2473 38.0342 27.2178 38.1823 27.2178 38.3318C27.2178 38.4813 27.2473 38.6294 27.3045 38.7675C27.3618 38.9056 27.4457 39.0311 27.5515 39.1368L32.3835 43.9688C32.601 44.1744 32.8891 44.289 33.1885 44.289C33.4878 44.289 33.7759 44.1744 33.9935 43.9688L36.7935 41.1688C38.5043 42.2156 40.3696 42.9861 42.3205 43.4518V47.4178C42.3203 47.5674 42.3497 47.7156 42.4069 47.8538C42.4641 47.9921 42.548 48.1177 42.6538 48.2235C42.7596 48.3293 42.8852 48.4132 43.0234 48.4704C43.1617 48.5276 43.3098 48.5569 43.4595 48.5568H50.2895C50.439 48.5568 50.5871 48.5274 50.7253 48.4701C50.8635 48.4129 50.9891 48.329 51.0948 48.2232C51.2006 48.1174 51.2845 47.9919 51.3418 47.8537C51.399 47.7155 51.4285 47.5674 51.4285 47.4178V43.4478C53.3793 42.982 55.2445 42.2115 56.9555 41.1648L57.1225 41.3298L57.1245 59.9398ZM68.5115 26.9168H64.7645C64.4994 26.9168 64.2427 27.0093 64.0386 27.1784C63.8345 27.3474 63.6958 27.5824 63.6465 27.8428C63.2166 30.1333 62.3178 32.3102 61.0065 34.2368C60.857 34.4558 60.7887 34.7201 60.8133 34.9841C60.838 35.2482 60.954 35.4953 61.1415 35.6828L63.7895 38.3268L60.5675 41.5488L57.9235 38.9038C57.7356 38.7169 57.4887 38.6011 57.2249 38.5763C56.9611 38.5515 56.6968 38.6192 56.4775 38.7678C54.5511 40.08 52.3742 40.9795 50.0835 41.4098C49.8229 41.459 49.5877 41.5976 49.4184 41.8017C49.2492 42.0058 49.1565 42.2627 49.1565 42.5278V46.2748H44.5985V42.5268C44.5984 42.2618 44.5059 42.0051 44.3369 41.801C44.1678 41.5969 43.9328 41.4582 43.6725 41.4088C41.3817 40.9785 39.2048 40.079 37.2785 38.7668C37.0591 38.618 36.7949 38.5502 36.531 38.575C36.2672 38.5999 36.0202 38.7157 35.8325 38.9028L33.1895 41.5498L29.9675 38.3268L32.6125 35.6818C32.7999 35.4943 32.916 35.2472 32.9406 34.9832C32.9652 34.7191 32.8969 34.4548 32.7475 34.2358C31.4357 32.3095 30.5368 30.1325 30.1075 27.8418C30.0575 27.5818 29.9186 27.3473 29.7146 27.1785C29.5106 27.0097 29.2542 26.9172 28.9895 26.9168H25.2405V22.3618H28.9895C29.2545 22.3618 29.5112 22.2693 29.7153 22.1002C29.9194 21.9312 30.0581 21.6962 30.1075 21.4358C30.5373 19.1453 31.4361 16.9684 32.7475 15.0418C32.8969 14.8228 32.9652 14.5585 32.9406 14.2945C32.916 14.0305 32.7999 13.7834 32.6125 13.5958L29.9675 10.9508L33.1895 7.72681L35.8335 10.3718C36.021 10.5592 36.268 10.6754 36.532 10.7002C36.7959 10.725 37.0603 10.657 37.2795 10.5078C39.2058 9.19565 41.3827 8.29614 43.6735 7.86581C43.934 7.81665 44.1692 7.67804 44.3385 7.47392C44.5077 7.26979 44.6004 7.01298 44.6005 6.74781V3.00381H49.1555V6.75181C49.1555 7.01683 49.248 7.27354 49.417 7.47764C49.5861 7.68174 49.8211 7.82044 50.0815 7.86981C52.3722 8.30014 54.5491 9.19965 56.4755 10.5118C56.6944 10.6615 56.9589 10.7299 57.223 10.7051C57.4871 10.6802 57.7342 10.5638 57.9215 10.3758L60.5635 7.72681L63.7895 10.9508L61.1395 13.5958C60.952 13.7834 60.836 14.0305 60.8113 14.2945C60.7867 14.5585 60.855 14.8228 61.0045 15.0418C62.3162 16.9682 63.2151 19.1452 63.6445 21.4358C63.6942 21.6962 63.8332 21.9311 64.0374 22.1001C64.2416 22.2691 64.4984 22.3616 64.7635 22.3618H68.5105L68.5115 26.9168Z" fill="white"/>
<path d="M46.8735 9.83691C43.9463 9.83691 41.0849 10.7049 38.6511 12.3312C36.2172 13.9574 34.3203 16.2689 33.2001 18.9732C32.0799 21.6775 31.7868 24.6533 32.3579 27.5243C32.9289 30.3952 34.3385 33.0323 36.4083 35.1021C38.4781 37.1719 41.1152 38.5815 43.9862 39.1525C46.8571 39.7236 49.8329 39.4305 52.5372 38.3103C55.2416 37.1902 57.553 35.2932 59.1792 32.8594C60.8055 30.4255 61.6735 27.5641 61.6735 24.6369C61.6682 20.7133 60.1072 16.952 57.3328 14.1776C54.5584 11.4032 50.7971 9.84221 46.8735 9.83691V9.83691ZM45.7345 37.1079V31.2189C45.7344 30.9862 45.6631 30.7591 45.5301 30.5682C45.3971 30.3772 45.2088 30.2316 44.9905 30.1509C43.8577 29.7112 42.886 28.9363 42.2052 27.9298C41.5244 26.9233 41.1669 25.733 41.1805 24.5179C41.1755 23.6007 41.3776 22.6942 41.7719 21.866C42.1662 21.0378 42.7424 20.3093 43.4575 19.7349V24.5179C43.4578 24.8117 43.5709 25.0941 43.7735 25.3069L46.0505 27.6789C46.27 27.8941 46.5651 28.0147 46.8725 28.0147C47.1799 28.0147 47.475 27.8941 47.6945 27.6789L49.9735 25.3069C50.1768 25.0945 50.2903 24.8119 50.2905 24.5179V19.7369C51.0056 20.3113 51.5818 21.0398 51.9761 21.868C52.3703 22.6962 52.5725 23.6027 52.5675 24.5199C52.5811 25.735 52.2236 26.9253 51.5428 27.9318C50.862 28.9383 49.8903 29.7132 48.7575 30.1529C48.539 30.2335 48.3505 30.379 48.2173 30.57C48.0841 30.7609 48.0126 30.9881 48.0125 31.2209V37.1099C47.6365 37.1439 47.2585 37.1679 46.8735 37.1679C46.4885 37.1679 46.1105 37.1439 45.7345 37.1099V37.1079ZM50.2895 36.6809V31.9689C51.7227 31.2358 52.9138 30.1048 53.72 28.7114C54.5263 27.3181 54.9133 25.7217 54.8346 24.1138C54.7559 22.506 54.215 20.955 53.2766 19.647C52.3383 18.339 51.0424 17.3296 49.5445 16.7399C49.3724 16.6765 49.1875 16.6555 49.0055 16.6789C48.8236 16.7022 48.6499 16.7692 48.4994 16.874C48.3489 16.9789 48.2259 17.1186 48.141 17.2812C48.056 17.4438 48.0116 17.6245 48.0115 17.8079V24.0599L46.8735 25.2449L45.7345 24.0599V17.8079C45.7344 17.6245 45.69 17.4438 45.605 17.2812C45.5201 17.1186 45.3971 16.9789 45.2466 16.874C45.0961 16.7692 44.9224 16.7022 44.7405 16.6789C44.5585 16.6555 44.3736 16.6765 44.2015 16.7399C42.7037 17.3297 41.4079 18.3392 40.4696 19.6473C39.5313 20.9553 38.9905 22.5063 38.9119 24.1142C38.8334 25.722 39.2205 27.3184 40.0268 28.7116C40.8331 30.1049 42.0243 31.2359 43.4575 31.9689V36.6809C40.5487 35.8564 38.0363 34.0076 36.3839 31.4758C34.7315 28.9439 34.0505 25.8999 34.4668 22.9053C34.883 19.9107 36.3682 17.1677 38.6485 15.1825C40.9288 13.1972 43.8501 12.1037 46.8735 12.1037C49.8969 12.1037 52.8182 13.1972 55.0985 15.1825C57.3787 17.1677 58.864 19.9107 59.2802 22.9053C59.6965 25.8999 59.0155 28.9439 57.3631 31.4758C55.7107 34.0076 53.1983 35.8564 50.2895 36.6809V36.6809Z" fill="white"/>
<path d="M52.5695 55.3849H9.29849V30.3329H20.6855V28.0559H8.16048C8.01087 28.0558 7.8627 28.0851 7.72445 28.1423C7.5862 28.1995 7.46059 28.2834 7.3548 28.3892C7.24901 28.495 7.16511 28.6206 7.10792 28.7589C7.05072 28.8971 7.02135 29.0453 7.02148 29.1949V56.5239C7.02135 56.6735 7.05072 56.8217 7.10792 56.9599C7.16511 57.0982 7.24901 57.2238 7.3548 57.3296C7.46059 57.4354 7.5862 57.5193 7.72445 57.5765C7.8627 57.6337 8.01087 57.663 8.16048 57.6629H53.7085C53.8581 57.663 54.0063 57.6337 54.1445 57.5765C54.2828 57.5193 54.4084 57.4354 54.5142 57.3296C54.62 57.2238 54.7039 57.0982 54.761 56.9599C54.8182 56.8217 54.8476 56.6735 54.8475 56.5239V50.8299H52.5695V55.3849Z" fill="white"/>
</svg>
