<svg width="71" height="68" viewBox="0 0 71 68" fill="none" xmlns="http://www.w3.org/2000/svg">
<path d="M1.37923 29.446H7.69623C8.06834 30.7931 8.60576 32.089 9.29623 33.304L4.82923 37.773C4.72344 37.8788 4.63951 38.0044 4.58225 38.1426C4.52499 38.2808 4.49552 38.4289 4.49552 38.5785C4.49552 38.7281 4.52499 38.8763 4.58225 39.0145C4.63951 39.1527 4.72344 39.2783 4.82923 39.384L9.65923 44.216C9.87294 44.4291 10.1624 44.5488 10.4642 44.5488C10.766 44.5488 11.0555 44.4291 11.2692 44.216L15.7402 39.746C16.9549 40.4365 18.2504 40.974 19.5972 41.346V47.663C19.597 47.8131 19.6264 47.9618 19.6837 48.1004C19.7411 48.2391 19.8253 48.3651 19.9315 48.4711C20.0378 48.5772 20.1639 48.6612 20.3027 48.7183C20.4414 48.7754 20.5902 48.8046 20.7402 48.804H27.5722C27.8743 48.804 28.164 48.684 28.3776 48.4704C28.5912 48.2568 28.7112 47.9671 28.7112 47.665V41.346C30.058 40.974 31.3535 40.4365 32.5682 39.746L37.0402 44.216C37.2578 44.4217 37.5459 44.5362 37.8452 44.5362C38.1446 44.5362 38.4326 44.4217 38.6502 44.216L43.4812 39.384C43.587 39.2783 43.671 39.1527 43.7282 39.0145C43.7855 38.8763 43.8149 38.7281 43.8149 38.5785C43.8149 38.4289 43.7855 38.2808 43.7282 38.1426C43.671 38.0044 43.587 37.8788 43.4812 37.773L39.0092 33.304C39.6997 32.089 40.2371 30.7931 40.6092 29.446H46.9262C47.2283 29.446 47.518 29.326 47.7316 29.1124C47.9452 28.8988 48.0652 28.6091 48.0652 28.307V21.475C48.0652 21.1729 47.9452 20.8832 47.7316 20.6696C47.518 20.456 47.2283 20.336 46.9262 20.336H40.6102C40.2381 18.989 39.7007 17.6931 39.0102 16.478L43.4812 12.009C43.587 11.9033 43.671 11.7777 43.7282 11.6395C43.7855 11.5013 43.8149 11.3531 43.8149 11.2035C43.8149 11.0539 43.7855 10.9058 43.7282 10.7676C43.671 10.6294 43.587 10.5038 43.4812 10.398L38.6462 5.56603C38.4327 5.35267 38.1431 5.23282 37.8412 5.23282C37.5393 5.23282 37.2498 5.35267 37.0362 5.56603L32.5642 10.038C31.3493 9.34797 30.0539 8.81057 28.7072 8.43803V2.11703C28.7072 1.81495 28.5872 1.52524 28.3736 1.31164C28.16 1.09803 27.8703 0.978031 27.5682 0.978031H20.7402C20.5904 0.977637 20.442 1.00681 20.3034 1.06387C20.1649 1.12093 20.039 1.20477 19.9329 1.31057C19.8268 1.41638 19.7427 1.54208 19.6852 1.68046C19.6278 1.81885 19.5982 1.9672 19.5982 2.11703V8.43403C18.2516 8.80657 16.9561 9.34397 15.7412 10.034L11.2692 5.56603C11.0516 5.3604 10.7636 5.24583 10.4642 5.24583C10.1649 5.24583 9.87682 5.3604 9.65923 5.56603L4.82823 10.398C4.72244 10.5038 4.63851 10.6294 4.58125 10.7676C4.52399 10.9058 4.49452 11.0539 4.49452 11.2035C4.49452 11.3531 4.52399 11.5013 4.58125 11.6395C4.63851 11.7777 4.72244 11.9033 4.82823 12.009L9.30023 16.478C8.6098 17.6931 8.07238 18.989 7.70023 20.336H1.37923C1.07715 20.336 0.787444 20.456 0.57384 20.6696C0.360236 20.8832 0.240234 21.1729 0.240234 21.475L0.240234 28.307C0.240234 28.6091 0.360236 28.8988 0.57384 29.1124C0.787444 29.326 1.07715 29.446 1.37923 29.446ZM2.51823 22.614H8.58723C8.84683 22.6139 9.0986 22.5251 9.30083 22.3623C9.50306 22.1996 9.64362 21.9726 9.69923 21.719C10.0728 20.0129 10.7484 18.3873 11.6942 16.919C11.8344 16.7003 11.8955 16.4402 11.8675 16.1819C11.8395 15.9236 11.724 15.6827 11.5402 15.499L7.24023 11.203L10.4612 7.98103L14.7612 12.281C14.9449 12.465 15.1861 12.5807 15.4446 12.6087C15.7031 12.6367 15.9634 12.5754 16.1822 12.435C17.6508 11.4897 19.2763 10.8141 20.9822 10.44C21.2359 10.3842 21.4629 10.2435 21.6256 10.0411C21.7884 9.83866 21.8772 9.58675 21.8772 9.32703V3.25503H26.4302V9.32503C26.4303 9.58475 26.5191 9.83666 26.6818 10.0391C26.8446 10.2415 27.0716 10.3822 27.3252 10.438C29.0312 10.8121 30.6567 11.4877 32.1252 12.433C32.3441 12.5734 32.6044 12.6347 32.8629 12.6067C33.1214 12.5787 33.3625 12.463 33.5462 12.279L37.8462 7.97903L41.0662 11.201L36.7662 15.501C36.5822 15.6847 36.4666 15.9259 36.4386 16.1844C36.4106 16.4429 36.4719 16.7032 36.6122 16.922C37.5578 18.3903 38.2331 20.0159 38.6062 21.722C38.661 21.9764 38.8012 22.2044 39.0035 22.3682C39.2058 22.5319 39.458 22.6215 39.7182 22.622H45.7892V27.177H39.7172C39.4576 27.1772 39.2059 27.266 39.0036 27.4287C38.8014 27.5915 38.6608 27.8185 38.6052 28.072C38.2324 29.7782 37.557 31.4039 36.6112 32.872C36.4713 33.0909 36.4103 33.3509 36.4383 33.6091C36.4663 33.8674 36.5816 34.1083 36.7652 34.292L41.0652 38.592L37.8402 41.801L33.5402 37.501C33.3564 37.3172 33.1153 37.2017 32.8569 37.1737C32.5984 37.1457 32.3382 37.2068 32.1192 37.347C30.6511 38.293 29.0254 38.9687 27.3192 39.342C27.0647 39.3966 26.8366 39.5368 26.6729 39.7391C26.5091 39.9414 26.4196 40.1937 26.4192 40.454V46.526H21.8752V40.457C21.8749 40.1967 21.7853 39.9444 21.6216 39.7421C21.4578 39.5398 21.2297 39.3996 20.9752 39.345C19.269 38.9717 17.6434 38.296 16.1752 37.35C15.9563 37.2098 15.6961 37.1487 15.4376 37.1767C15.1792 37.2047 14.938 37.3202 14.7542 37.504L10.4542 41.804L7.24023 38.579L11.5402 34.279C11.7242 34.0953 11.8399 33.8542 11.8679 33.5957C11.8959 33.3372 11.8346 33.0769 11.6942 32.858C10.7485 31.3897 10.0729 29.7641 9.69923 28.058C9.64359 27.8046 9.50299 27.5777 9.30074 27.4151C9.09849 27.2525 8.84674 27.1639 8.58723 27.164H2.51723L2.51823 22.614Z" fill="#0F172A"/>
<path d="M24.1532 34C25.955 34 27.7163 33.4657 29.2145 32.4647C30.7126 31.4637 31.8802 30.0409 32.5697 28.3763C33.2593 26.7116 33.4397 24.8799 33.0882 23.1128C32.7367 21.3456 31.869 19.7223 30.595 18.4483C29.3209 17.1742 27.6976 16.3066 25.9305 15.9551C24.1633 15.6036 22.3316 15.784 20.667 16.4735C19.0023 17.163 17.5795 18.3307 16.5785 19.8288C15.5775 21.3269 15.0432 23.0882 15.0432 24.89C15.0431 26.0864 15.2786 27.2711 15.7364 28.3764C16.1942 29.4818 16.8652 30.4861 17.7112 31.3321C18.5571 32.178 19.5615 32.8491 20.6668 33.3068C21.7721 33.7646 22.9568 34.0002 24.1532 34ZM24.1532 18.058C25.5045 18.058 26.8254 18.4587 27.9489 19.2094C29.0724 19.9602 29.9481 21.0272 30.4652 22.2755C30.9823 23.5239 31.1176 24.8976 30.8539 26.2229C30.5903 27.5482 29.9396 28.7655 28.9842 29.721C28.0287 30.6765 26.8113 31.3271 25.4861 31.5908C24.1608 31.8544 22.7871 31.7191 21.5387 31.202C20.2903 30.6849 19.2233 29.8092 18.4726 28.6857C17.7219 27.5622 17.3212 26.2413 17.3212 24.89C17.3215 23.0782 18.0414 21.3406 19.3226 20.0594C20.6037 18.7782 22.3413 18.0583 24.1532 18.058V18.058Z" fill="#0F172A"/>
<path d="M24.1532 37.416C26.6306 37.416 29.0525 36.6814 31.1124 35.3049C33.1723 33.9285 34.7778 31.9722 35.7258 29.6833C36.6738 27.3944 36.9218 24.8758 36.4384 22.446C35.955 20.0161 34.762 17.7842 33.0101 16.0324C31.2582 14.2807 29.0262 13.0878 26.5963 12.6046C24.1664 12.1214 21.6478 12.3696 19.359 13.3178C17.0702 14.266 15.114 15.8716 13.7377 17.9317C12.3615 19.9917 11.627 22.4136 11.6272 24.891C11.6275 28.2129 12.9473 31.3987 15.2963 33.7476C17.6454 36.0965 20.8313 37.416 24.1532 37.416V37.416ZM24.1532 14.642C26.1801 14.642 28.1614 15.2431 29.8467 16.3691C31.532 17.4952 32.8455 19.0957 33.6211 20.9683C34.3968 22.8409 34.5997 24.9014 34.2043 26.8893C33.8089 28.8772 32.8328 30.7032 31.3996 32.1364C29.9664 33.5697 28.1404 34.5457 26.1525 34.9411C24.1646 35.3365 22.104 35.1336 20.2315 34.3579C18.3589 33.5823 16.7584 32.2688 15.6323 30.5835C14.5062 28.8982 13.9052 26.9169 13.9052 24.89C13.9052 23.5442 14.1703 22.2116 14.6853 20.9683C15.2003 19.7249 15.9552 18.5952 16.9068 17.6436C17.8584 16.692 18.9881 15.9371 20.2315 15.4221C21.4748 14.9071 22.8074 14.642 24.1532 14.642V14.642Z" fill="#0F172A"/>
<path d="M65.1462 53.3591V44.2491C65.1462 43.947 65.0262 43.6573 64.8126 43.4437C64.599 43.2301 64.3093 43.1101 64.0072 43.1101H61.7302V34.0001C61.7302 33.8505 61.7008 33.7024 61.6435 33.5642C61.5863 33.426 61.5024 33.3005 61.3966 33.1947C61.2909 33.0889 61.1653 33.005 61.0271 32.9478C60.8889 32.8905 60.7408 32.8611 60.5912 32.8611H50.3402C50.1907 32.8611 50.0425 32.8905 49.9044 32.9478C49.7662 33.005 49.6406 33.0889 49.5348 33.1947C49.4291 33.3005 49.3452 33.426 49.2879 33.5642C49.2307 33.7024 49.2012 33.8505 49.2012 34.0001V43.1101H43.5112C43.2092 43.1101 42.9194 43.2301 42.7058 43.4437C42.4922 43.6573 42.3722 43.947 42.3722 44.2491V53.3591H5.93423C4.42475 53.3607 2.97753 53.961 1.91008 55.0282C0.842616 56.0955 0.242087 57.5426 0.240234 59.0521L0.240234 61.3301C0.241823 62.8397 0.842234 64.2871 1.90972 65.3546C2.97721 66.4221 4.42458 67.0225 5.93423 67.0241H65.1462C66.6559 67.0225 68.1033 66.4221 69.1707 65.3546C70.2382 64.2871 70.8386 62.8397 70.8402 61.3301V59.0531C70.8386 57.5434 70.2382 56.0961 69.1707 55.0286C68.1033 53.9611 66.6559 53.3607 65.1462 53.3591V53.3591ZM62.8692 53.3591H54.8982V45.3881H62.8692V53.3591ZM51.4822 35.1391H59.4532V43.1101H51.4822V35.1391ZM44.6502 45.3871H52.6202V53.3581H44.6492L44.6502 45.3871ZM68.5622 61.3301C68.5622 62.2361 68.2023 63.105 67.5617 63.7456C66.9211 64.3862 66.0522 64.7461 65.1462 64.7461H5.93423C5.48555 64.7462 5.04124 64.658 4.62668 64.4864C4.21212 64.3147 3.83542 64.0631 3.51811 63.7459C3.2008 63.4287 2.94909 63.0521 2.77736 62.6376C2.60562 62.2231 2.51723 61.7788 2.51723 61.3301V59.0531C2.51723 58.1471 2.87713 57.2782 3.51776 56.6376C4.15838 55.997 5.02725 55.6371 5.93323 55.6371H65.1462C66.0522 55.6371 66.9211 55.997 67.5617 56.6376C68.2023 57.2782 68.5622 58.1471 68.5622 59.0531V61.3301Z" fill="#0F172A"/>
<path d="M35.5402 56.7751C34.8646 56.7751 34.2042 56.9755 33.6424 57.3509C33.0807 57.7262 32.6429 58.2597 32.3843 58.8839C32.1258 59.5081 32.0581 60.1949 32.1899 60.8576C32.3217 61.5202 32.647 62.1289 33.1248 62.6066C33.6025 63.0844 34.2112 63.4097 34.8738 63.5415C35.5365 63.6733 36.2233 63.6057 36.8475 63.3471C37.4717 63.0886 38.0052 62.6507 38.3805 62.089C38.7559 61.5272 38.9563 60.8668 38.9563 60.1911C38.9563 59.2852 38.5964 58.4163 37.9557 57.7757C37.3151 57.135 36.4462 56.7751 35.5402 56.7751V56.7751ZM35.5402 61.3301C35.315 61.3301 35.0948 61.2633 34.9075 61.1382C34.7202 61.013 34.5742 60.8351 34.488 60.627C34.4018 60.4189 34.3792 60.1899 34.4232 59.9689C34.4671 59.748 34.5756 59.545 34.7349 59.3857C34.8941 59.2265 35.0971 59.118 35.318 59.074C35.539 59.0301 35.768 59.0526 35.9761 59.1389C36.1843 59.2251 36.3621 59.371 36.4873 59.5583C36.6125 59.7457 36.6793 59.9659 36.6793 60.1911C36.6793 60.3407 36.6498 60.4888 36.5926 60.627C36.5353 60.7652 36.4514 60.8908 36.3457 60.9966C36.2399 61.1023 36.1143 61.1862 35.9761 61.2434C35.8379 61.3007 35.6898 61.3301 35.5402 61.3301V61.3301Z" fill="#0F172A"/>
<path d="M24.1533 56.7751C23.4777 56.7751 22.8172 56.9755 22.2555 57.3509C21.6937 57.7262 21.2559 58.2597 20.9973 58.8839C20.7388 59.5081 20.6711 60.1949 20.8029 60.8576C20.9348 61.5202 21.2601 62.1289 21.7378 62.6066C22.2156 63.0844 22.8242 63.4097 23.4869 63.5415C24.1495 63.6733 24.8364 63.6057 25.4606 63.3471C26.0847 63.0886 26.6182 62.6507 26.9936 62.089C27.369 61.5272 27.5693 60.8668 27.5693 60.1911C27.5693 59.2852 27.2094 58.4163 26.5688 57.7757C25.9282 57.135 25.0593 56.7751 24.1533 56.7751V56.7751ZM24.1533 61.3301C23.928 61.3301 23.7078 61.2633 23.5205 61.1382C23.3332 61.013 23.1872 60.8351 23.101 60.627C23.0148 60.4189 22.9922 60.1899 23.0362 59.9689C23.0801 59.748 23.1886 59.545 23.3479 59.3857C23.5072 59.2265 23.7101 59.118 23.9311 59.074C24.152 59.0301 24.3811 59.0526 24.5892 59.1389C24.7973 59.2251 24.9752 59.371 25.1003 59.5583C25.2255 59.7457 25.2923 59.9659 25.2923 60.1911C25.2923 60.3407 25.2628 60.4888 25.2056 60.627C25.1484 60.7652 25.0645 60.8908 24.9587 60.9966C24.8529 61.1023 24.7274 61.1862 24.5892 61.2434C24.451 61.3007 24.3029 61.3301 24.1533 61.3301Z" fill="#0F172A"/>
<path d="M46.9272 56.7751C46.2516 56.7751 45.5911 56.9755 45.0294 57.3509C44.4676 57.7262 44.0298 58.2597 43.7713 58.8839C43.5127 59.5081 43.4451 60.1949 43.5769 60.8576C43.7087 61.5202 44.034 62.1289 44.5117 62.6066C44.9895 63.0844 45.5982 63.4097 46.2608 63.5415C46.9234 63.6733 47.6103 63.6057 48.2345 63.3471C48.8587 63.0886 49.3922 62.6507 49.7675 62.089C50.1429 61.5272 50.3432 60.8668 50.3432 60.1911C50.3432 59.2852 49.9833 58.4163 49.3427 57.7757C48.7021 57.135 47.8332 56.7751 46.9272 56.7751V56.7751ZM46.9272 61.3301C46.7019 61.3301 46.4817 61.2633 46.2944 61.1382C46.1071 61.013 45.9611 60.8351 45.8749 60.627C45.7887 60.4189 45.7662 60.1899 45.8101 59.9689C45.8541 59.748 45.9625 59.545 46.1218 59.3857C46.2811 59.2265 46.4841 59.118 46.705 59.074C46.926 59.0301 47.155 59.0526 47.3631 59.1389C47.5712 59.2251 47.7491 59.371 47.8743 59.5583C47.9994 59.7457 48.0662 59.9659 48.0662 60.1911C48.0662 60.3407 48.0368 60.4888 47.9795 60.627C47.9223 60.7652 47.8384 60.8908 47.7326 60.9966C47.6269 61.1023 47.5013 61.1862 47.3631 61.2434C47.2249 61.3007 47.0768 61.3301 46.9272 61.3301V61.3301Z" fill="#0F172A"/>
<path d="M12.7663 56.7751C12.0907 56.7751 11.4303 56.9755 10.8685 57.3509C10.3068 57.7262 9.86892 58.2597 9.61037 58.8839C9.35182 59.5081 9.28417 60.1949 9.41598 60.8576C9.54779 61.5202 9.87314 62.1289 10.3509 62.6066C10.8286 63.0844 11.4373 63.4097 12.0999 63.5415C12.7626 63.6733 13.4494 63.6057 14.0736 63.3471C14.6978 63.0886 15.2313 62.6507 15.6066 62.089C15.982 61.5272 16.1823 60.8668 16.1823 60.1911C16.1823 59.2852 15.8224 58.4163 15.1818 57.7757C14.5412 57.135 13.6723 56.7751 12.7663 56.7751V56.7751ZM12.7663 61.3301C12.5411 61.3301 12.3209 61.2633 12.1335 61.1382C11.9462 61.013 11.8003 60.8351 11.714 60.627C11.6278 60.4189 11.6053 60.1899 11.6492 59.9689C11.6932 59.748 11.8017 59.545 11.9609 59.3857C12.1202 59.2265 12.3232 59.118 12.5441 59.074C12.7651 59.0301 12.9941 59.0526 13.2022 59.1389C13.4103 59.2251 13.5882 59.371 13.7134 59.5583C13.8385 59.7457 13.9053 59.9659 13.9053 60.1911C13.9053 60.3407 13.8759 60.4888 13.8186 60.627C13.7614 60.7652 13.6775 60.8908 13.5717 60.9966C13.466 61.1023 13.3404 61.1862 13.2022 61.2434C13.064 61.3007 12.9159 61.3301 12.7663 61.3301Z" fill="#0F172A"/>
<path d="M58.3142 56.7751C57.6386 56.7751 56.9781 56.9755 56.4163 57.3509C55.8546 57.7262 55.4168 58.2597 55.1582 58.8839C54.8997 59.5081 54.832 60.1949 54.9638 60.8576C55.0956 61.5202 55.421 62.1289 55.8987 62.6066C56.3764 63.0844 56.9851 63.4097 57.6478 63.5415C58.3104 63.6733 58.9972 63.6057 59.6214 63.3471C60.2456 63.0886 60.7791 62.6507 61.1545 62.089C61.5298 61.5272 61.7302 60.8668 61.7302 60.1911C61.7302 59.2852 61.3703 58.4163 60.7297 57.7757C60.089 57.135 59.2202 56.7751 58.3142 56.7751V56.7751ZM58.3142 61.3301C58.0889 61.3301 57.8687 61.2633 57.6814 61.1382C57.4941 61.013 57.3481 60.8351 57.2619 60.627C57.1757 60.4189 57.1531 60.1899 57.1971 59.9689C57.241 59.748 57.3495 59.545 57.5088 59.3857C57.6681 59.2265 57.871 59.118 58.092 59.074C58.3129 59.0301 58.5419 59.0526 58.7501 59.1389C58.9582 59.2251 59.1361 59.371 59.2612 59.5583C59.3864 59.7457 59.4532 59.9659 59.4532 60.1911C59.4532 60.3407 59.4237 60.4888 59.3665 60.627C59.3092 60.7652 59.2254 60.8908 59.1196 60.9966C59.0138 61.1023 58.8882 61.1862 58.7501 61.2434C58.6119 61.3007 58.4637 61.3301 58.3142 61.3301Z" fill="#0F172A"/>
</svg>
