<svg width="71" height="67" viewBox="0 0 71 67" fill="none" xmlns="http://www.w3.org/2000/svg">
<path d="M1.37923 28.4719H7.69623C8.06834 29.819 8.60576 31.1149 9.29623 32.3299L4.82923 36.7989C4.72344 36.9047 4.63951 37.0303 4.58225 37.1685C4.52499 37.3067 4.49552 37.4548 4.49552 37.6044C4.49552 37.754 4.52499 37.9021 4.58225 38.0404C4.63951 38.1786 4.72344 38.3041 4.82923 38.4099L9.65923 43.2419C9.87294 43.455 10.1624 43.5747 10.4642 43.5747C10.766 43.5747 11.0555 43.455 11.2692 43.2419L15.7402 38.7719C16.9549 39.4624 18.2504 39.9998 19.5972 40.3719V46.6889C19.597 46.839 19.6264 46.9876 19.6837 47.1263C19.7411 47.265 19.8253 47.391 19.9315 47.497C20.0378 47.603 20.1639 47.687 20.3027 47.7442C20.4414 47.8013 20.5902 47.8304 20.7402 47.8299H27.5722C27.8743 47.8299 28.164 47.7099 28.3776 47.4963C28.5912 47.2827 28.7112 46.993 28.7112 46.6909V40.3719C30.058 39.9998 31.3535 39.4624 32.5682 38.7719L37.0402 43.2419C37.2578 43.4475 37.5459 43.5621 37.8452 43.5621C38.1446 43.5621 38.4326 43.4475 38.6502 43.2419L43.4812 38.4099C43.587 38.3041 43.671 38.1786 43.7282 38.0404C43.7855 37.9021 43.8149 37.754 43.8149 37.6044C43.8149 37.4548 43.7855 37.3067 43.7282 37.1685C43.671 37.0303 43.587 36.9047 43.4812 36.7989L39.0092 32.3299C39.6997 31.1149 40.2371 29.819 40.6092 28.4719H46.9262C47.2283 28.4719 47.518 28.3519 47.7316 28.1383C47.9452 27.9247 48.0652 27.635 48.0652 27.3329V20.5009C48.0652 20.1988 47.9452 19.9091 47.7316 19.6955C47.518 19.4819 47.2283 19.3619 46.9262 19.3619H40.6102C40.2381 18.0148 39.7007 16.719 39.0102 15.5039L43.4812 11.0349C43.587 10.9291 43.671 10.8036 43.7282 10.6654C43.7855 10.5271 43.8149 10.379 43.8149 10.2294C43.8149 10.0798 43.7855 9.93167 43.7282 9.79346C43.671 9.65526 43.587 9.52968 43.4812 9.42391L38.6462 4.59191C38.4327 4.37855 38.1431 4.2587 37.8412 4.2587C37.5393 4.2587 37.2498 4.37855 37.0362 4.59191L32.5642 9.06391C31.3493 8.37385 30.0539 7.83645 28.7072 7.46391V1.14291C28.7072 0.840829 28.5872 0.551119 28.3736 0.337516C28.16 0.123912 27.8703 0.0039102 27.5682 0.0039102H20.7402C20.5904 0.00351557 20.442 0.0326855 20.3034 0.0897489C20.1649 0.146812 20.039 0.230648 19.9329 0.336453C19.8268 0.442258 19.7427 0.567954 19.6852 0.70634C19.6278 0.844725 19.5982 0.993082 19.5982 1.14291V7.45991C18.2516 7.83245 16.9561 8.36985 15.7412 9.05991L11.2692 4.59191C11.0516 4.38628 10.7636 4.27171 10.4642 4.27171C10.1649 4.27171 9.87682 4.38628 9.65923 4.59191L4.82823 9.42391C4.72244 9.52968 4.63851 9.65526 4.58125 9.79346C4.52399 9.93167 4.49452 10.0798 4.49452 10.2294C4.49452 10.379 4.52399 10.5271 4.58125 10.6654C4.63851 10.8036 4.72244 10.9291 4.82823 11.0349L9.30023 15.5039C8.6098 16.719 8.07238 18.0148 7.70023 19.3619H1.37923C1.07715 19.3619 0.787444 19.4819 0.57384 19.6955C0.360236 19.9091 0.240234 20.1988 0.240234 20.5009L0.240234 27.3329C0.240234 27.635 0.360236 27.9247 0.57384 28.1383C0.787444 28.3519 1.07715 28.4719 1.37923 28.4719ZM2.51823 21.6399H8.58723C8.84683 21.6398 9.0986 21.551 9.30083 21.3882C9.50306 21.2254 9.64362 20.9985 9.69923 20.7449C10.0728 19.0388 10.7484 17.4132 11.6942 15.9449C11.8344 15.7261 11.8955 15.4661 11.8675 15.2078C11.8395 14.9495 11.724 14.7085 11.5402 14.5249L7.24023 10.2289L10.4612 7.00691L14.7612 11.3069C14.9449 11.4909 15.1861 11.6065 15.4446 11.6345C15.7031 11.6626 15.9634 11.6013 16.1822 11.4609C17.6508 10.5155 19.2763 9.83994 20.9822 9.46591C21.2359 9.41009 21.4629 9.26934 21.6256 9.06694C21.7884 8.86454 21.8772 8.61263 21.8772 8.35291V2.28091H26.4302V8.35091C26.4303 8.61063 26.5191 8.86254 26.6818 9.06494C26.8446 9.26734 27.0716 9.40809 27.3252 9.46391C29.0312 9.83794 30.6567 10.5135 32.1252 11.4589C32.3441 11.5993 32.6044 11.6606 32.8629 11.6325C33.1214 11.6045 33.3625 11.4889 33.5462 11.3049L37.8462 7.00491L41.0662 10.2269L36.7662 14.5269C36.5822 14.7106 36.4666 14.9517 36.4386 15.2102C36.4106 15.4687 36.4719 15.729 36.6122 15.9479C37.5578 17.4162 38.2331 19.0418 38.6062 20.7479C38.661 21.0023 38.8012 21.2303 39.0035 21.394C39.2058 21.5578 39.458 21.6473 39.7182 21.6479H45.7892V26.2029H39.7172C39.4576 26.203 39.2059 26.2918 39.0036 26.4546C38.8014 26.6174 38.6608 26.8443 38.6052 27.0979C38.2324 28.8041 37.557 30.4297 36.6112 31.8979C36.4713 32.1167 36.4103 32.3768 36.4383 32.635C36.4663 32.8932 36.5816 33.1342 36.7652 33.3179L41.0652 37.6179L37.8402 40.8269L33.5402 36.5269C33.3564 36.3431 33.1153 36.2276 32.8569 36.1996C32.5984 36.1715 32.3382 36.2327 32.1192 36.3729C30.6511 37.3189 29.0254 37.9946 27.3192 38.3679C27.0647 38.4225 26.8366 38.5627 26.6729 38.765C26.5091 38.9673 26.4196 39.2196 26.4192 39.4799V45.5519H21.8752V39.4829C21.8749 39.2226 21.7853 38.9703 21.6216 38.768C21.4578 38.5657 21.2297 38.4255 20.9752 38.3709C19.269 37.9976 17.6434 37.3219 16.1752 36.3759C15.9563 36.2357 15.6961 36.1745 15.4376 36.2026C15.1792 36.2306 14.938 36.3461 14.7542 36.5299L10.4542 40.8299L7.24023 37.6049L11.5402 33.3049C11.7242 33.1212 11.8399 32.8801 11.8679 32.6216C11.8959 32.3631 11.8346 32.1028 11.6942 31.8839C10.7485 30.4156 10.0729 28.79 9.69923 27.0839C9.64359 26.8304 9.50299 26.6036 9.30074 26.441C9.09849 26.2784 8.84674 26.1898 8.58723 26.1899H2.51723L2.51823 21.6399Z" fill="white"/>
<path d="M24.1532 33.0259C25.955 33.0259 27.7163 32.4916 29.2145 31.4906C30.7126 30.4896 31.8802 29.0668 32.5697 27.4022C33.2593 25.7375 33.4397 23.9058 33.0882 22.1386C32.7367 20.3715 31.869 18.7482 30.595 17.4742C29.3209 16.2001 27.6976 15.3325 25.9305 14.981C24.1633 14.6294 22.3316 14.8099 20.667 15.4994C19.0023 16.1889 17.5795 17.3565 16.5785 18.8547C15.5775 20.3528 15.0432 22.1141 15.0432 23.9159C15.0431 25.1123 15.2786 26.297 15.7364 27.4023C16.1942 28.5076 16.8652 29.512 17.7112 30.358C18.5571 31.2039 19.5615 31.8749 20.6668 32.3327C21.7721 32.7905 22.9568 33.026 24.1532 33.0259ZM24.1532 17.0839C25.5045 17.0839 26.8254 17.4846 27.9489 18.2353C29.0724 18.986 29.9481 20.053 30.4652 21.3014C30.9823 22.5498 31.1176 23.9235 30.8539 25.2488C30.5903 26.574 29.9396 27.7914 28.9842 28.7469C28.0287 29.7023 26.8113 30.353 25.4861 30.6166C24.1608 30.8803 22.7871 30.745 21.5387 30.2279C20.2903 29.7108 19.2233 28.8351 18.4726 27.7116C17.7219 26.588 17.3212 25.2672 17.3212 23.9159C17.3215 22.104 18.0414 20.3664 19.3226 19.0853C20.6037 17.8041 22.3413 17.0842 24.1532 17.0839V17.0839Z" fill="white"/>
<path d="M24.1532 36.4419C26.6306 36.4419 29.0525 35.7072 31.1124 34.3308C33.1723 32.9544 34.7778 30.998 35.7258 28.7092C36.6738 26.4203 36.9218 23.9017 36.4384 21.4718C35.955 19.042 34.762 16.8101 33.0101 15.0583C31.2582 13.3066 29.0262 12.1137 26.5963 11.6305C24.1664 11.1473 21.6478 11.3955 19.359 12.3437C17.0702 13.2919 15.114 14.8975 13.7377 16.9575C12.3615 19.0176 11.627 21.4394 11.6272 23.9169C11.6275 27.2388 12.9473 30.4246 15.2963 32.7735C17.6454 35.1223 20.8313 36.4419 24.1532 36.4419V36.4419ZM24.1532 13.6679C26.1801 13.6679 28.1614 14.2689 29.8467 15.395C31.532 16.5211 32.8455 18.1216 33.6211 19.9942C34.3968 21.8667 34.5997 23.9273 34.2043 25.9152C33.8089 27.9031 32.8328 29.7291 31.3996 31.1623C29.9664 32.5955 28.1404 33.5716 26.1525 33.967C24.1646 34.3624 22.104 34.1595 20.2315 33.3838C18.3589 32.6082 16.7584 31.2947 15.6323 29.6094C14.5062 27.9241 13.9052 25.9428 13.9052 23.9159C13.9052 22.5701 14.1703 21.2375 14.6853 19.9942C15.2003 18.7508 15.9552 17.6211 16.9068 16.6695C17.8584 15.7179 18.9881 14.963 20.2315 14.448C21.4748 13.933 22.8074 13.6679 24.1532 13.6679V13.6679Z" fill="white"/>
<path d="M65.1462 52.385V43.275C65.1462 42.9729 65.0262 42.6832 64.8126 42.4696C64.599 42.256 64.3093 42.136 64.0072 42.136H61.7302V33.026C61.7302 32.8764 61.7008 32.7283 61.6435 32.5901C61.5863 32.4519 61.5024 32.3263 61.3966 32.2206C61.2909 32.1148 61.1653 32.0309 61.0271 31.9737C60.8889 31.9164 60.7408 31.887 60.5912 31.887H50.3402C50.1907 31.887 50.0425 31.9164 49.9044 31.9737C49.7662 32.0309 49.6406 32.1148 49.5348 32.2206C49.4291 32.3263 49.3452 32.4519 49.2879 32.5901C49.2307 32.7283 49.2012 32.8764 49.2012 33.026V42.136H43.5112C43.2092 42.136 42.9194 42.256 42.7058 42.4696C42.4922 42.6832 42.3722 42.9729 42.3722 43.275V52.385H5.93423C4.42475 52.3866 2.97753 52.9868 1.91008 54.0541C0.842616 55.1214 0.242087 56.5685 0.240234 58.078L0.240234 60.356C0.241823 61.8656 0.842234 63.313 1.90972 64.3805C2.97721 65.448 4.42458 66.0484 5.93423 66.05H65.1462C66.6559 66.0484 68.1033 65.448 69.1707 64.3805C70.2382 63.313 70.8386 61.8656 70.8402 60.356V58.079C70.8386 56.5693 70.2382 55.1219 69.1707 54.0544C68.1033 52.987 66.6559 52.3866 65.1462 52.385V52.385ZM62.8692 52.385H54.8982V44.414H62.8692V52.385ZM51.4822 34.165H59.4532V42.136H51.4822V34.165ZM44.6502 44.413H52.6202V52.384H44.6492L44.6502 44.413ZM68.5622 60.356C68.5622 61.2619 68.2023 62.1308 67.5617 62.7715C66.9211 63.4121 66.0522 63.772 65.1462 63.772H5.93423C5.48555 63.7721 5.04124 63.6838 4.62668 63.5122C4.21212 63.3406 3.83542 63.089 3.51811 62.7718C3.2008 62.4546 2.94909 62.078 2.77736 61.6635C2.60562 61.2489 2.51723 60.8046 2.51723 60.356V58.079C2.51723 57.173 2.87713 56.3041 3.51776 55.6635C4.15838 55.0229 5.02725 54.663 5.93323 54.663H65.1462C66.0522 54.663 66.9211 55.0229 67.5617 55.6635C68.2023 56.3041 68.5622 57.173 68.5622 58.079V60.356Z" fill="white"/>
<path d="M35.5402 55.801C34.8646 55.801 34.2042 56.0014 33.6424 56.3767C33.0807 56.7521 32.6429 57.2856 32.3843 57.9098C32.1258 58.534 32.0581 59.2208 32.1899 59.8835C32.3217 60.5461 32.647 61.1548 33.1248 61.6325C33.6025 62.1102 34.2112 62.4356 34.8738 62.5674C35.5365 62.6992 36.2233 62.6315 36.8475 62.373C37.4717 62.1144 38.0052 61.6766 38.3805 61.1148C38.7559 60.5531 38.9563 59.8926 38.9563 59.217C38.9563 58.311 38.5964 57.4422 37.9557 56.8015C37.3151 56.1609 36.4462 55.801 35.5402 55.801V55.801ZM35.5402 60.356C35.315 60.356 35.0948 60.2892 34.9075 60.1641C34.7202 60.0389 34.5742 59.861 34.488 59.6529C34.4018 59.4448 34.3792 59.2158 34.4232 58.9948C34.4671 58.7739 34.5756 58.5709 34.7349 58.4116C34.8941 58.2523 35.0971 58.1439 35.318 58.0999C35.539 58.056 35.768 58.0785 35.9761 58.1647C36.1843 58.2509 36.3621 58.3969 36.4873 58.5842C36.6125 58.7715 36.6793 58.9917 36.6793 59.217C36.6793 59.3666 36.6498 59.5147 36.5926 59.6529C36.5353 59.7911 36.4514 59.9167 36.3457 60.0224C36.2399 60.1282 36.1143 60.2121 35.9761 60.2693C35.8379 60.3266 35.6898 60.356 35.5402 60.356V60.356Z" fill="white"/>
<path d="M24.1533 55.801C23.4777 55.801 22.8172 56.0014 22.2555 56.3767C21.6937 56.7521 21.2559 57.2856 20.9973 57.9098C20.7388 58.534 20.6711 59.2208 20.8029 59.8835C20.9348 60.5461 21.2601 61.1548 21.7378 61.6325C22.2156 62.1102 22.8242 62.4356 23.4869 62.5674C24.1495 62.6992 24.8364 62.6315 25.4606 62.373C26.0847 62.1144 26.6182 61.6766 26.9936 61.1148C27.369 60.5531 27.5693 59.8926 27.5693 59.217C27.5693 58.311 27.2094 57.4422 26.5688 56.8015C25.9282 56.1609 25.0593 55.801 24.1533 55.801V55.801ZM24.1533 60.356C23.928 60.356 23.7078 60.2892 23.5205 60.1641C23.3332 60.0389 23.1872 59.861 23.101 59.6529C23.0148 59.4448 22.9922 59.2158 23.0362 58.9948C23.0801 58.7739 23.1886 58.5709 23.3479 58.4116C23.5072 58.2523 23.7101 58.1439 23.9311 58.0999C24.152 58.056 24.3811 58.0785 24.5892 58.1647C24.7973 58.2509 24.9752 58.3969 25.1003 58.5842C25.2255 58.7715 25.2923 58.9917 25.2923 59.217C25.2923 59.3666 25.2628 59.5147 25.2056 59.6529C25.1484 59.7911 25.0645 59.9167 24.9587 60.0224C24.8529 60.1282 24.7274 60.2121 24.5892 60.2693C24.451 60.3266 24.3029 60.356 24.1533 60.356Z" fill="white"/>
<path d="M46.9272 55.801C46.2516 55.801 45.5911 56.0014 45.0294 56.3767C44.4676 56.7521 44.0298 57.2856 43.7713 57.9098C43.5127 58.534 43.4451 59.2208 43.5769 59.8835C43.7087 60.5461 44.034 61.1548 44.5117 61.6325C44.9895 62.1102 45.5982 62.4356 46.2608 62.5674C46.9234 62.6992 47.6103 62.6315 48.2345 62.373C48.8587 62.1144 49.3922 61.6766 49.7675 61.1148C50.1429 60.5531 50.3432 59.8926 50.3432 59.217C50.3432 58.311 49.9833 57.4422 49.3427 56.8015C48.7021 56.1609 47.8332 55.801 46.9272 55.801V55.801ZM46.9272 60.356C46.7019 60.356 46.4817 60.2892 46.2944 60.1641C46.1071 60.0389 45.9611 59.861 45.8749 59.6529C45.7887 59.4448 45.7662 59.2158 45.8101 58.9948C45.8541 58.7739 45.9625 58.5709 46.1218 58.4116C46.2811 58.2523 46.4841 58.1439 46.705 58.0999C46.926 58.056 47.155 58.0785 47.3631 58.1647C47.5712 58.2509 47.7491 58.3969 47.8743 58.5842C47.9994 58.7715 48.0662 58.9917 48.0662 59.217C48.0662 59.3666 48.0368 59.5147 47.9795 59.6529C47.9223 59.7911 47.8384 59.9167 47.7326 60.0224C47.6269 60.1282 47.5013 60.2121 47.3631 60.2693C47.2249 60.3266 47.0768 60.356 46.9272 60.356V60.356Z" fill="white"/>
<path d="M12.7663 55.801C12.0907 55.801 11.4303 56.0014 10.8685 56.3767C10.3068 56.7521 9.86892 57.2856 9.61037 57.9098C9.35182 58.534 9.28417 59.2208 9.41598 59.8835C9.54779 60.5461 9.87314 61.1548 10.3509 61.6325C10.8286 62.1102 11.4373 62.4356 12.0999 62.5674C12.7626 62.6992 13.4494 62.6315 14.0736 62.373C14.6978 62.1144 15.2313 61.6766 15.6066 61.1148C15.982 60.5531 16.1823 59.8926 16.1823 59.217C16.1823 58.311 15.8224 57.4422 15.1818 56.8015C14.5412 56.1609 13.6723 55.801 12.7663 55.801V55.801ZM12.7663 60.356C12.5411 60.356 12.3209 60.2892 12.1335 60.1641C11.9462 60.0389 11.8003 59.861 11.714 59.6529C11.6278 59.4448 11.6053 59.2158 11.6492 58.9948C11.6932 58.7739 11.8017 58.5709 11.9609 58.4116C12.1202 58.2523 12.3232 58.1439 12.5441 58.0999C12.7651 58.056 12.9941 58.0785 13.2022 58.1647C13.4103 58.2509 13.5882 58.3969 13.7134 58.5842C13.8385 58.7715 13.9053 58.9917 13.9053 59.217C13.9053 59.3666 13.8759 59.5147 13.8186 59.6529C13.7614 59.7911 13.6775 59.9167 13.5717 60.0224C13.466 60.1282 13.3404 60.2121 13.2022 60.2693C13.064 60.3266 12.9159 60.356 12.7663 60.356Z" fill="white"/>
<path d="M58.3142 55.801C57.6386 55.801 56.9781 56.0014 56.4163 56.3767C55.8546 56.7521 55.4168 57.2856 55.1582 57.9098C54.8997 58.534 54.832 59.2208 54.9638 59.8835C55.0956 60.5461 55.421 61.1548 55.8987 61.6325C56.3764 62.1102 56.9851 62.4356 57.6478 62.5674C58.3104 62.6992 58.9972 62.6315 59.6214 62.373C60.2456 62.1144 60.7791 61.6766 61.1545 61.1148C61.5298 60.5531 61.7302 59.8926 61.7302 59.217C61.7302 58.311 61.3703 57.4422 60.7297 56.8015C60.089 56.1609 59.2202 55.801 58.3142 55.801V55.801ZM58.3142 60.356C58.0889 60.356 57.8687 60.2892 57.6814 60.1641C57.4941 60.0389 57.3481 59.861 57.2619 59.6529C57.1757 59.4448 57.1531 59.2158 57.1971 58.9948C57.241 58.7739 57.3495 58.5709 57.5088 58.4116C57.6681 58.2523 57.871 58.1439 58.092 58.0999C58.3129 58.056 58.5419 58.0785 58.7501 58.1647C58.9582 58.2509 59.1361 58.3969 59.2612 58.5842C59.3864 58.7715 59.4532 58.9917 59.4532 59.217C59.4532 59.3666 59.4237 59.5147 59.3665 59.6529C59.3092 59.7911 59.2254 59.9167 59.1196 60.0224C59.0138 60.1282 58.8882 60.2121 58.7501 60.2693C58.6119 60.3266 58.4637 60.356 58.3142 60.356Z" fill="white"/>
</svg>
