<svg width="71" height="72" viewBox="0 0 71 72" fill="none" xmlns="http://www.w3.org/2000/svg">
<path d="M24.0989 48.3968C24.0972 47.4024 23.7609 46.4376 23.1441 45.6576C22.5274 44.8776 21.6661 44.3278 20.6989 44.0968V41.6968H18.4279V44.0968C17.491 44.3179 16.6518 44.8389 16.0379 45.5806C15.424 46.3222 15.069 47.2439 15.0268 48.2057C14.9846 49.1675 15.2575 50.1168 15.8041 50.9094C16.3506 51.7019 17.1409 52.2944 18.0549 52.5968L20.3549 53.3628C20.842 53.5245 21.2555 53.8542 21.5215 54.2931C21.7876 54.7319 21.8886 55.2511 21.8067 55.7577C21.7248 56.2643 21.4651 56.7251 21.0743 57.0577C20.6835 57.3903 20.1871 57.5729 19.6739 57.5728H19.4599C18.8871 57.5725 18.3377 57.3449 17.9325 56.9399C17.5273 56.5349 17.2995 55.9857 17.2989 55.4128V54.1698H15.0279V55.4118C15.0297 56.4061 15.366 57.371 15.9827 58.151C16.5995 58.931 17.4608 59.4808 18.4279 59.7118V62.1118H20.6959V59.7118C21.6329 59.4906 22.4721 58.9696 23.0859 58.228C23.6998 57.4864 24.0548 56.5646 24.097 55.6028C24.1392 54.641 23.8663 53.6918 23.3198 52.8992C22.7732 52.1067 21.9829 51.5142 21.0689 51.2118L18.7689 50.4458C18.2819 50.2841 17.8683 49.9543 17.6023 49.5155C17.3363 49.0767 17.2352 48.5574 17.3172 48.0509C17.3991 47.5443 17.6587 47.0834 18.0495 46.7508C18.4403 46.4183 18.9368 46.2357 19.4499 46.2358H19.6639C19.9479 46.2355 20.2292 46.2912 20.4917 46.3997C20.7541 46.5082 20.9927 46.6673 21.1936 46.868C21.3946 47.0686 21.554 47.3069 21.6629 47.5693C21.7717 47.8316 21.8278 48.1128 21.8279 48.3968V48.4968L24.0989 48.3968Z" fill="white"/>
<path d="M19.563 37.1616C16.6477 37.1616 13.7979 38.0261 11.3739 39.6458C8.94992 41.2654 7.06066 43.5675 5.94502 46.2609C4.82938 48.9543 4.53748 51.918 5.10623 54.7773C5.67498 57.6365 7.07883 60.2629 9.14025 62.3244C11.2017 64.3858 13.8281 65.7896 16.6874 66.3584C19.5467 66.9271 22.5104 66.6352 25.2038 65.5196C27.8971 64.404 30.1992 62.5147 31.8189 60.0907C33.4385 57.6667 34.303 54.8169 34.303 51.9016C34.2985 47.9937 32.7441 44.2471 29.9808 41.4838C27.2175 38.7205 23.4709 37.1661 19.563 37.1616V37.1616ZM19.563 64.3746C17.0961 64.3746 14.6846 63.6431 12.6334 62.2725C10.5822 60.902 8.98351 58.954 8.03946 56.6748C7.0954 54.3957 6.8484 51.8878 7.32967 49.4683C7.81094 47.0487 8.99888 44.8263 10.7433 43.0819C12.4876 41.3375 14.7101 40.1496 17.1296 39.6683C19.5492 39.187 22.0571 39.434 24.3362 40.3781C26.6154 41.3221 28.5634 42.9208 29.9339 44.972C31.3045 47.0232 32.036 49.4347 32.036 51.9016C32.0323 55.2085 30.717 58.3789 28.3787 60.7173C26.0403 63.0556 22.8699 64.3709 19.563 64.3746V64.3746Z" fill="white"/>
<path d="M47.9099 51.9017C47.9126 52.6028 48.132 53.2859 48.538 53.8575C48.944 54.4291 49.5168 54.8612 50.1779 55.0947V57.5707H52.4479V55.0947C53.2049 54.8293 53.8435 54.3043 54.2502 53.6129C54.6569 52.9214 54.8055 52.1083 54.6695 51.3177C54.5336 50.5271 54.1219 49.8102 53.5076 49.2943C52.8933 48.7784 52.1161 48.4969 51.3139 48.4997C50.8087 48.5019 50.3106 48.6185 49.8569 48.8407L46.4479 45.4307L44.8479 47.0307L48.2479 50.4447C48.0267 50.8986 47.9112 51.3967 47.9099 51.9017V51.9017ZM51.3099 50.7677C51.5342 50.7677 51.7534 50.8342 51.9399 50.9588C52.1264 51.0834 52.2718 51.2605 52.3576 51.4677C52.4434 51.6749 52.4659 51.9029 52.4221 52.1229C52.3784 52.3429 52.2704 52.5449 52.1118 52.7035C51.9532 52.8621 51.7511 52.9701 51.5311 53.0139C51.3112 53.0576 51.0831 53.0352 50.8759 52.9493C50.6687 52.8635 50.4916 52.7182 50.367 52.5317C50.2424 52.3452 50.1759 52.1259 50.1759 51.9017C50.1759 51.7526 50.2053 51.605 50.2624 51.4672C50.3195 51.3295 50.4032 51.2044 50.5087 51.0991C50.6143 50.9938 50.7395 50.9103 50.8773 50.8534C51.0151 50.7965 51.1628 50.7674 51.3119 50.7677H51.3099Z" fill="white"/>
<path d="M59.5079 34.4777C59.6169 34.0697 59.7399 33.6577 59.8249 33.2567L62.6509 32.3027V23.8777L59.8269 22.9257C59.2008 19.9232 58.0192 17.0642 56.3429 14.4957L57.6629 11.8327L51.6999 5.86669L49.0369 7.18669C46.4682 5.50975 43.6089 4.32747 40.6059 3.70069L39.6539 0.877686H31.2219L30.2699 3.70169C27.2667 4.32855 24.407 5.51082 21.8379 7.18769L19.1759 5.86669L13.2139 11.8297L14.5339 14.4927C12.857 17.0608 11.6754 19.92 11.0499 22.9227L8.22495 23.8777V32.3077L11.0509 33.2597C11.1359 33.6597 11.2599 34.0727 11.3679 34.4807C8.68881 35.739 6.33574 37.5979 4.49141 39.913C2.64709 42.2281 1.36114 44.9371 0.733412 47.8297C0.105684 50.7223 0.153066 53.7207 0.871878 56.592C1.59069 59.4633 2.96159 62.1303 4.87815 64.386C6.7947 66.6416 9.20534 68.4252 11.9229 69.5983C14.6404 70.7714 17.5918 71.3023 20.5478 71.1499C23.5038 70.9976 26.3849 70.166 28.9675 68.7197C31.55 67.2735 33.7645 65.2514 35.4389 62.8107C37.1136 65.2517 39.3283 67.2739 41.9112 68.7202C44.494 70.1666 47.3754 70.9982 50.3318 71.1504C53.2881 71.3027 56.2397 70.7715 58.9575 69.5981C61.6752 68.4247 64.086 66.6408 66.0025 64.3847C67.919 62.1286 69.2898 59.4612 70.0084 56.5895C70.7269 53.7178 70.7739 50.7191 70.1457 47.8263C69.5175 44.9335 68.231 42.2244 66.3861 39.9093C64.5412 37.5943 62.1876 35.7357 59.5079 34.4777V34.4777ZM13.1509 32.1877L13.0319 31.5297L10.4879 30.6777V25.5037L13.0259 24.6477L13.1449 23.9897C13.7135 20.8421 14.9495 17.8527 16.7699 15.2227L17.1489 14.6737L15.9679 12.2777L19.6269 8.61869L22.0199 9.80769L22.5689 9.42769C25.1994 7.60812 28.1886 6.37215 31.3359 5.80269L31.9939 5.68269L32.8509 3.14469H38.0259L38.8799 5.67769L39.5379 5.79769C42.6855 6.36644 45.6748 7.60247 48.3049 9.42269L48.8539 9.80269L51.2459 8.61769L54.9049 12.2777L53.7199 14.6777L54.0989 15.2267C55.9196 17.8566 57.1556 20.846 57.7239 23.9937L57.8429 24.6517L60.3829 25.5077V30.6777L57.8449 31.5337L57.7259 32.1917C57.6399 32.6637 57.5259 33.1437 57.4069 33.6307C56.8969 33.4607 56.3759 33.3167 55.8479 33.1887V30.1497C56.5535 29.9023 57.1575 29.4284 57.5658 28.802C57.974 28.1756 58.1636 27.4317 58.1051 26.6863C58.0465 25.9408 57.7431 25.2357 57.2421 24.6807C56.741 24.1257 56.0705 23.7519 55.3349 23.6177C54.763 20.9645 53.6673 18.4522 52.1121 16.2278C50.557 14.0034 48.5736 12.1117 46.2781 10.6635C43.9827 9.21535 41.4213 8.23976 38.744 7.79394C36.0668 7.34811 33.3275 7.44101 30.6866 8.06718C28.0457 8.69335 25.5563 9.84021 23.3643 11.4406C21.1722 13.041 19.3215 15.0627 17.9206 17.3873C16.5197 19.7119 15.5967 22.2927 15.2058 24.9785C14.8149 27.6643 14.9638 30.4012 15.6439 33.0287C14.9076 33.185 14.1813 33.3854 13.4689 33.6287C13.3449 33.1437 13.2349 32.6617 13.1489 32.1897L13.1509 32.1877ZM22.7279 32.9057C22.0736 31.2203 21.7618 29.4213 21.8109 27.6139C21.8601 25.8066 22.269 24.0272 23.014 22.3798C23.759 20.7324 24.8249 19.25 26.1495 18.0195C27.4741 16.7889 29.0308 15.8348 30.7286 15.213C32.4263 14.5912 34.2309 14.3141 36.037 14.398C37.843 14.4819 39.6142 14.9251 41.247 15.7016C42.8798 16.4781 44.3413 17.5724 45.5461 18.9205C46.751 20.2686 47.6749 21.8433 48.2639 23.5527H47.9109C47.1088 23.5499 46.3315 23.8315 45.7172 24.3473C45.1029 24.8632 44.6912 25.5801 44.5553 26.3707C44.4194 27.1613 44.5679 27.9745 44.9746 28.6659C45.3814 29.3574 46.0199 29.8823 46.7769 30.1477V33.1777C42.1655 34.2994 38.1291 37.0809 35.4389 40.9907C33.9706 38.8595 32.0884 37.0455 29.9045 35.6567C27.7207 34.2679 25.2797 33.3327 22.7269 32.9067L22.7279 32.9057ZM17.9079 32.7057C17.3068 30.4015 17.1654 28.0015 17.4918 25.6427C17.8182 23.2839 18.606 21.0124 19.8103 18.9581C22.2423 14.8091 26.223 11.7962 30.8764 10.5822C35.5299 9.36816 40.4751 10.0524 44.6241 12.4845C48.773 14.9166 51.7859 18.8972 52.9999 23.5507H50.6419C50.0676 21.5278 49.097 19.6393 47.7864 17.9948C46.4759 16.3504 44.8515 14.9828 43.0078 13.9716C41.1641 12.9604 39.1378 12.3258 37.0466 12.1046C34.9555 11.8833 32.8413 12.0799 30.8268 12.683C28.8123 13.286 26.9377 14.2834 25.3121 15.6172C23.6865 16.951 22.3421 18.5946 21.3573 20.4526C20.3724 22.3105 19.7666 24.3456 19.5751 26.4397C19.3837 28.5337 19.6103 30.645 20.2419 32.6507C20.0159 32.6427 19.7939 32.6167 19.5659 32.6167C19.0069 32.6167 18.4569 32.6537 17.9089 32.7007L17.9079 32.7057ZM54.7139 28.0867H47.9139C47.6132 28.0867 47.3248 27.9672 47.1121 27.7545C46.8994 27.5419 46.7799 27.2534 46.7799 26.9527C46.7799 26.6519 46.8994 26.3635 47.1121 26.1508C47.3248 25.9382 47.6132 25.8187 47.9139 25.8187H54.7139C55.0147 25.8187 55.3031 25.9382 55.5158 26.1508C55.7285 26.3635 55.8479 26.6519 55.8479 26.9527C55.8479 27.2534 55.7285 27.5419 55.5158 27.7545C55.3031 27.9672 55.0147 28.0867 54.7139 28.0867ZM49.0449 30.3547H53.5799V32.7677C52.8274 32.6751 52.0701 32.6267 51.3119 32.6227C50.5538 32.6252 49.7964 32.6729 49.0439 32.7657L49.0449 30.3547ZM19.5639 68.9097C16.2001 68.9097 12.9118 67.9122 10.1148 66.0433C7.31786 64.1745 5.1379 61.5182 3.8506 58.4104C2.56331 55.3026 2.22649 51.8828 2.88275 48.5836C3.53901 45.2844 5.15886 42.2538 7.53747 39.8752C9.91609 37.4966 12.9466 35.8767 16.2458 35.2205C19.5451 34.5642 22.9648 34.901 26.0726 36.1883C29.1804 37.4756 31.8367 39.6556 33.7056 42.4525C35.5744 45.2495 36.5719 48.5378 36.5719 51.9017C36.5669 56.4109 34.7734 60.7341 31.5849 63.9226C28.3963 67.1111 24.0732 68.9047 19.5639 68.9097V68.9097ZM41.7329 43.9257L43.2939 45.4867L44.8939 43.8867L43.3329 42.3257C45.2717 40.7058 47.6587 39.7164 50.1749 39.4897V41.6997H52.4429V39.4897C54.9597 39.7157 57.3476 40.704 59.2879 42.3227L57.7269 43.8837L59.3269 45.4837L60.8879 43.9257C62.5078 45.8644 63.4972 48.2515 63.7239 50.7677H61.5139V53.0357H63.7239C63.4965 55.5517 62.5071 57.9385 60.8879 59.8777L59.3269 58.3167L57.7269 59.9167L59.2879 61.4777C57.3492 63.0975 54.9621 64.0869 52.4459 64.3137V62.1037H50.1779V64.3137C47.6619 64.0862 45.2751 63.0969 43.3359 61.4777L44.8969 59.9167L43.2969 58.3167L41.7329 59.8777C40.1131 57.9389 39.1237 55.5519 38.8969 53.0357H41.1069V50.7677H38.8969C39.1239 48.2515 40.1133 45.8646 41.7329 43.9257V43.9257ZM51.3119 68.9097C48.3729 68.9061 45.4849 68.1414 42.9293 66.69C40.3736 65.2386 38.2375 63.15 36.7289 60.6277C37.1774 59.7536 37.5579 58.8462 37.8669 57.9137C39.2437 60.9954 41.6364 63.5112 44.6452 65.0406C47.654 66.5701 51.0966 67.0205 54.3976 66.3167C57.6987 65.6128 60.6581 63.7973 62.7814 61.1736C64.9046 58.5499 66.0631 55.2769 66.0631 51.9017C66.0631 48.5265 64.9046 45.2535 62.7814 42.6298C60.6581 40.0061 57.6987 38.1906 54.3976 37.4867C51.0966 36.7829 47.654 37.2333 44.6452 38.7628C41.6364 40.2922 39.2437 42.808 37.8669 45.8897C37.5576 44.9577 37.1768 44.051 36.7279 43.1777C38.2549 40.627 40.4241 38.5214 43.0189 37.0708C45.6138 35.6202 48.5437 34.8755 51.5163 34.9109C54.4889 34.9463 57.4003 35.7605 59.9599 37.2725C62.5195 38.7844 64.6379 40.9411 66.1037 43.5274C67.5696 46.1137 68.3315 49.0391 68.3137 52.0119C68.2958 54.9846 67.4987 57.9007 66.0019 60.4692C64.5051 63.0377 62.3609 65.1688 59.7833 66.6498C57.2057 68.1308 54.2847 68.91 51.3119 68.9097V68.9097Z" fill="white"/>
<path d="M24.0989 28.0907H26.3669C26.3609 26.3996 26.8302 24.7408 27.7214 23.3035C28.6125 21.8662 29.8896 20.7083 31.4069 19.9617L30.3989 17.9307C28.5025 18.864 26.9065 20.3113 25.7926 22.1076C24.6788 23.9039 24.0919 25.977 24.0989 28.0907V28.0907Z" fill="white"/>
<path d="M33.421 19.2437C34.0826 19.0943 34.7587 19.0189 35.437 19.0187V16.7517C34.5895 16.7513 33.7446 16.8455 32.918 17.0327L33.421 19.2437Z" fill="white"/>
</svg>
