<svg width="71" height="72" viewBox="0 0 71 72" fill="none" xmlns="http://www.w3.org/2000/svg">
<path d="M24.0989 48.3709C24.0972 47.3765 23.7609 46.4117 23.1441 45.6317C22.5274 44.8517 21.6661 44.3019 20.6989 44.0709V41.6709H18.4279V44.0709C17.491 44.2921 16.6518 44.813 16.0379 45.5547C15.424 46.2963 15.069 47.218 15.0268 48.1798C14.9846 49.1416 15.2575 50.0909 15.8041 50.8835C16.3506 51.676 17.1409 52.2685 18.0549 52.5709L20.3549 53.3369C20.842 53.4986 21.2555 53.8284 21.5215 54.2672C21.7876 54.706 21.8886 55.2252 21.8067 55.7318C21.7248 56.2384 21.4651 56.6992 21.0743 57.0318C20.6835 57.3644 20.1871 57.547 19.6739 57.5469H19.4599C18.8871 57.5466 18.3377 57.319 17.9325 56.914C17.5273 56.509 17.2995 55.9598 17.2989 55.3869V54.1439H15.0279V55.3859C15.0297 56.3803 15.366 57.3451 15.9827 58.1251C16.5995 58.9051 17.4608 59.4549 18.4279 59.6859V62.0859H20.6959V59.6859C21.6329 59.4647 22.4721 58.9438 23.0859 58.2021C23.6998 57.4605 24.0548 56.5388 24.097 55.577C24.1392 54.6152 23.8663 53.6659 23.3198 52.8733C22.7732 52.0808 21.9829 51.4883 21.0689 51.1859L18.7689 50.4199C18.2819 50.2582 17.8683 49.9284 17.6023 49.4896C17.3363 49.0508 17.2352 48.5316 17.3172 48.025C17.3991 47.5184 17.6587 47.0575 18.0495 46.725C18.4403 46.3924 18.9368 46.2098 19.4499 46.2099H19.6639C19.9479 46.2096 20.2292 46.2653 20.4917 46.3738C20.7541 46.4823 20.9927 46.6414 21.1936 46.8421C21.3946 47.0428 21.554 47.2811 21.6629 47.5434C21.7717 47.8057 21.8278 48.0869 21.8279 48.3709V48.4709L24.0989 48.3709Z" fill="#0F172A"/>
<path d="M19.563 37.1357C16.6477 37.1357 13.7979 38.0002 11.3739 39.6199C8.94992 41.2395 7.06066 43.5416 5.94502 46.235C4.82938 48.9284 4.53748 51.8921 5.10623 54.7514C5.67498 57.6107 7.07883 60.2371 9.14025 62.2985C11.2017 64.3599 13.8281 65.7638 16.6874 66.3325C19.5467 66.9013 22.5104 66.6094 25.2038 65.4937C27.8971 64.3781 30.1992 62.4888 31.8189 60.0648C33.4385 57.6409 34.303 54.791 34.303 51.8757C34.2985 47.9678 32.7441 44.2213 29.9808 41.458C27.2175 38.6946 23.4709 37.1402 19.563 37.1357V37.1357ZM19.563 64.3487C17.0961 64.3487 14.6846 63.6172 12.6334 62.2467C10.5822 60.8761 8.98351 58.9281 8.03946 56.649C7.0954 54.3698 6.8484 51.8619 7.32967 49.4424C7.81094 47.0229 8.99888 44.8004 10.7433 43.056C12.4876 41.3116 14.7101 40.1237 17.1296 39.6424C19.5492 39.1611 22.0571 39.4081 24.3362 40.3522C26.6154 41.2962 28.5634 42.8949 29.9339 44.9461C31.3045 46.9973 32.036 49.4088 32.036 51.8757C32.0323 55.1827 30.717 58.3531 28.3787 60.6914C26.0403 63.0297 22.8699 64.345 19.563 64.3487V64.3487Z" fill="#0F172A"/>
<path d="M47.9099 51.8758C47.9126 52.5769 48.132 53.26 48.538 53.8316C48.944 54.4033 49.5168 54.8354 50.1779 55.0688V57.5448H52.4479V55.0688C53.2049 54.8034 53.8435 54.2785 54.2502 53.587C54.6569 52.8956 54.8055 52.0824 54.6695 51.2918C54.5336 50.5012 54.1219 49.7843 53.5076 49.2684C52.8933 48.7526 52.1161 48.471 51.3139 48.4738C50.8087 48.476 50.3106 48.5926 49.8569 48.8148L46.4479 45.4048L44.8479 47.0048L48.2479 50.4188C48.0267 50.8727 47.9112 51.3708 47.9099 51.8758V51.8758ZM51.3099 50.7418C51.5342 50.7418 51.7534 50.8083 51.9399 50.9329C52.1264 51.0575 52.2718 51.2346 52.3576 51.4418C52.4434 51.649 52.4659 51.877 52.4221 52.097C52.3784 52.317 52.2704 52.5191 52.1118 52.6776C51.9532 52.8362 51.7511 52.9442 51.5311 52.988C51.3112 53.0318 51.0831 53.0093 50.8759 52.9235C50.6687 52.8376 50.4916 52.6923 50.367 52.5058C50.2424 52.3193 50.1759 52.1001 50.1759 51.8758C50.1759 51.7267 50.2053 51.5791 50.2624 51.4414C50.3195 51.3036 50.4032 51.1785 50.5087 51.0732C50.6143 50.9679 50.7395 50.8844 50.8773 50.8275C51.0151 50.7707 51.1628 50.7415 51.3119 50.7418H51.3099Z" fill="#0F172A"/>
<path d="M59.5079 34.4518C59.6169 34.0438 59.7399 33.6318 59.8249 33.2308L62.6509 32.2768V23.8518L59.8269 22.8998C59.2008 19.8973 58.0192 17.0383 56.3429 14.4698L57.6629 11.8068L51.6999 5.84081L49.0369 7.16081C46.4682 5.48387 43.6089 4.30159 40.6059 3.67481L39.6539 0.851807H31.2219L30.2699 3.67581C27.2667 4.30267 24.407 5.48494 21.8379 7.16181L19.1759 5.84081L13.2139 11.8038L14.5339 14.4668C12.857 17.0349 11.6754 19.8941 11.0499 22.8968L8.22495 23.8518V32.2818L11.0509 33.2338C11.1359 33.6338 11.2599 34.0468 11.3679 34.4548C8.68881 35.7131 6.33574 37.572 4.49141 39.8871C2.64709 42.2022 1.36114 44.9112 0.733412 47.8038C0.105684 50.6964 0.153066 53.6948 0.871878 56.5661C1.59069 59.4374 2.96159 62.1044 4.87815 64.3601C6.7947 66.6158 9.20534 68.3994 11.9229 69.5724C14.6404 70.7455 17.5918 71.2764 20.5478 71.1241C23.5038 70.9717 26.3849 70.1401 28.9675 68.6938C31.55 67.2476 33.7645 65.2256 35.4389 62.7848C37.1136 65.2258 39.3283 67.248 41.9112 68.6944C44.494 70.1407 47.3754 70.9723 50.3318 71.1245C53.2881 71.2768 56.2397 70.7456 58.9575 69.5722C61.6752 68.3989 64.086 66.6149 66.0025 64.3588C67.919 62.1027 69.2898 59.4353 70.0084 56.5636C70.7269 53.6919 70.7739 50.6932 70.1457 47.8004C69.5175 44.9076 68.231 42.1985 66.3861 39.8835C64.5412 37.5684 62.1876 35.7098 59.5079 34.4518V34.4518ZM13.1509 32.1618L13.0319 31.5038L10.4879 30.6518V25.4778L13.0259 24.6218L13.1449 23.9638C13.7135 20.8162 14.9495 17.8268 16.7699 15.1968L17.1489 14.6478L15.9679 12.2518L19.6269 8.59281L22.0199 9.78181L22.5689 9.40181C25.1994 7.58225 28.1886 6.34627 31.3359 5.77681L31.9939 5.65681L32.8509 3.11881H38.0259L38.8799 5.65181L39.5379 5.77181C42.6855 6.34056 45.6748 7.57659 48.3049 9.39681L48.8539 9.77681L51.2459 8.59181L54.9049 12.2518L53.7199 14.6518L54.0989 15.2008C55.9196 17.8307 57.1556 20.8201 57.7239 23.9678L57.8429 24.6258L60.3829 25.4818V30.6518L57.8449 31.5078L57.7259 32.1658C57.6399 32.6378 57.5259 33.1178 57.4069 33.6048C56.8969 33.4348 56.3759 33.2908 55.8479 33.1628V30.1238C56.5535 29.8764 57.1575 29.4025 57.5658 28.7761C57.974 28.1497 58.1636 27.4058 58.1051 26.6604C58.0465 25.915 57.7431 25.2098 57.2421 24.6548C56.741 24.0998 56.0705 23.7261 55.3349 23.5918C54.763 20.9386 53.6673 18.4263 52.1121 16.2019C50.557 13.9775 48.5736 12.0859 46.2781 10.6377C43.9827 9.18947 41.4213 8.21389 38.744 7.76806C36.0668 7.32223 33.3275 7.41513 30.6866 8.0413C28.0457 8.66747 25.5563 9.81434 23.3643 11.4147C21.1722 13.0151 19.3215 15.0368 17.9206 17.3614C16.5197 19.686 15.5967 22.2668 15.2058 24.9527C14.8149 27.6385 14.9638 30.3753 15.6439 33.0028C14.9076 33.1591 14.1813 33.3595 13.4689 33.6028C13.3449 33.1178 13.2349 32.6358 13.1489 32.1638L13.1509 32.1618ZM22.7279 32.8798C22.0736 31.1944 21.7618 29.3954 21.8109 27.588C21.8601 25.7807 22.269 24.0013 23.014 22.3539C23.759 20.7065 24.8249 19.2242 26.1495 17.9936C27.4741 16.763 29.0308 15.809 30.7286 15.1871C32.4263 14.5653 34.2309 14.2883 36.037 14.3722C37.843 14.456 39.6142 14.8992 41.247 15.6757C42.8798 16.4523 44.3413 17.5466 45.5461 18.8946C46.751 20.2427 47.6749 21.8174 48.2639 23.5268H47.9109C47.1088 23.524 46.3315 23.8056 45.7172 24.3215C45.1029 24.8374 44.6912 25.5542 44.5553 26.3448C44.4194 27.1354 44.5679 27.9486 44.9746 28.64C45.3814 29.3315 46.0199 29.8565 46.7769 30.1218V33.1518C42.1655 34.2736 38.1291 37.055 35.4389 40.9648C33.9706 38.8336 32.0884 37.0197 29.9045 35.6309C27.7207 34.2421 25.2797 33.3068 22.7269 32.8808L22.7279 32.8798ZM17.9079 32.6798C17.3068 30.3756 17.1654 27.9756 17.4918 25.6168C17.8182 23.258 18.606 20.9865 19.8103 18.9322C22.2423 14.7832 26.223 11.7703 30.8764 10.5563C35.5299 9.34228 40.4751 10.0266 44.6241 12.4586C48.773 14.8907 51.7859 18.8713 52.9999 23.5248H50.6419C50.0676 21.5019 49.097 19.6134 47.7864 17.969C46.4759 16.3245 44.8515 14.957 43.0078 13.9458C41.1641 12.9346 39.1378 12.2999 37.0466 12.0787C34.9555 11.8575 32.8413 12.0541 30.8268 12.6571C28.8123 13.2601 26.9377 14.2575 25.3121 15.5913C23.6865 16.9251 22.3421 18.5688 21.3573 20.4267C20.3724 22.2846 19.7666 24.3197 19.5751 26.4138C19.3837 28.5079 19.6103 30.6191 20.2419 32.6248C20.0159 32.6168 19.7939 32.5908 19.5659 32.5908C19.0069 32.5908 18.4569 32.6278 17.9089 32.6748L17.9079 32.6798ZM54.7139 28.0608H47.9139C47.6132 28.0608 47.3248 27.9413 47.1121 27.7287C46.8994 27.516 46.7799 27.2276 46.7799 26.9268C46.7799 26.6261 46.8994 26.3376 47.1121 26.1249C47.3248 25.9123 47.6132 25.7928 47.9139 25.7928H54.7139C55.0147 25.7928 55.3031 25.9123 55.5158 26.1249C55.7285 26.3376 55.8479 26.6261 55.8479 26.9268C55.8479 27.2276 55.7285 27.516 55.5158 27.7287C55.3031 27.9413 55.0147 28.0608 54.7139 28.0608ZM49.0449 30.3288H53.5799V32.7418C52.8274 32.6493 52.0701 32.6009 51.3119 32.5968C50.5538 32.5993 49.7964 32.6471 49.0439 32.7398L49.0449 30.3288ZM19.5639 68.8838C16.2001 68.8838 12.9118 67.8863 10.1148 66.0174C7.31786 64.1486 5.1379 61.4923 3.8506 58.3845C2.56331 55.2767 2.22649 51.8569 2.88275 48.5577C3.53901 45.2585 5.15886 42.2279 7.53747 39.8493C9.91609 37.4707 12.9466 35.8509 16.2458 35.1946C19.5451 34.5384 22.9648 34.8752 26.0726 36.1625C29.1804 37.4498 31.8367 39.6297 33.7056 42.4267C35.5744 45.2236 36.5719 48.5119 36.5719 51.8758C36.5669 56.3851 34.7734 60.7082 31.5849 63.8967C28.3963 67.0853 24.0732 68.8788 19.5639 68.8838V68.8838ZM41.7329 43.8998L43.2939 45.4608L44.8939 43.8608L43.3329 42.2998C45.2717 40.68 47.6587 39.6905 50.1749 39.4638V41.6738H52.4429V39.4638C54.9597 39.6898 57.3476 40.6781 59.2879 42.2968L57.7269 43.8578L59.3269 45.4578L60.8879 43.8998C62.5078 45.8386 63.4972 48.2256 63.7239 50.7418H61.5139V53.0098H63.7239C63.4965 55.5258 62.5071 57.9126 60.8879 59.8518L59.3269 58.2908L57.7269 59.8908L59.2879 61.4518C57.3492 63.0716 54.9621 64.0611 52.4459 64.2878V62.0778H50.1779V64.2878C47.6619 64.0603 45.2751 63.071 43.3359 61.4518L44.8969 59.8908L43.2969 58.2908L41.7329 59.8518C40.1131 57.913 39.1237 55.526 38.8969 53.0098H41.1069V50.7418H38.8969C39.1239 48.2257 40.1133 45.8387 41.7329 43.8998V43.8998ZM51.3119 68.8838C48.3729 68.8803 45.4849 68.1156 42.9293 66.6641C40.3736 65.2127 38.2375 63.1241 36.7289 60.6018C37.1774 59.7277 37.5579 58.8203 37.8669 57.8878C39.2437 60.9695 41.6364 63.4853 44.6452 65.0147C47.654 66.5442 51.0966 66.9946 54.3976 66.2908C57.6987 65.5869 60.6581 63.7714 62.7814 61.1477C64.9046 58.524 66.0631 55.251 66.0631 51.8758C66.0631 48.5006 64.9046 45.2276 62.7814 42.6039C60.6581 39.9802 57.6987 38.1647 54.3976 37.4608C51.0966 36.757 47.654 37.2074 44.6452 38.7369C41.6364 40.2663 39.2437 42.7821 37.8669 45.8638C37.5576 44.9318 37.1768 44.0251 36.7279 43.1518C38.2549 40.6011 40.4241 38.4955 43.0189 37.0449C45.6138 35.5944 48.5437 34.8496 51.5163 34.885C54.4889 34.9204 57.4003 35.7347 59.9599 37.2466C62.5195 38.7585 64.6379 40.9152 66.1037 43.5015C67.5696 46.0878 68.3315 49.0132 68.3137 51.986C68.2958 54.9587 67.4987 57.8748 66.0019 60.4433C64.5051 63.0118 62.3609 65.1429 59.7833 66.6239C57.2057 68.105 54.2847 68.8842 51.3119 68.8838V68.8838Z" fill="#0F172A"/>
<path d="M24.0989 28.0648H26.3669C26.3609 26.3737 26.8302 24.7149 27.7214 23.2776C28.6125 21.8403 29.8896 20.6824 31.4069 19.9358L30.3989 17.9048C28.5025 18.8381 26.9065 20.2854 25.7926 22.0817C24.6788 23.8781 24.0919 25.9512 24.0989 28.0648V28.0648Z" fill="#0F172A"/>
<path d="M33.421 19.2178C34.0826 19.0685 34.7587 18.993 35.437 18.9928V16.7258C34.5895 16.7254 33.7446 16.8197 32.918 17.0068L33.421 19.2178Z" fill="#0F172A"/>
</svg>
