<svg width="71" height="72" viewBox="0 0 71 72" fill="none" xmlns="http://www.w3.org/2000/svg">
<path d="M70.6352 30.3328H68.0762L64.2622 32.3398C63.8359 32.0957 63.3798 31.9082 62.9052 31.7818L58.1052 30.5818V30.0368C59.1572 29.3015 60.0168 28.3239 60.6116 27.1865C61.2063 26.0491 61.5186 24.7853 61.5222 23.5018V21.5098C61.5442 19.4041 60.7534 17.3709 59.3143 15.8335C57.8752 14.2961 55.8988 13.3728 53.7962 13.2558C53.5802 13.2498 53.3672 13.2558 53.1532 13.2688L54.3992 10.3568L48.3692 4.32681L44.8152 6.64181C43.4705 5.88382 42.0395 5.29023 40.5532 4.87381L39.6742 0.726807H30.9962L30.1182 4.87481C28.6317 5.29103 27.2008 5.88463 25.8562 6.64281L22.3012 4.32681L16.2762 10.3548L17.4992 13.2688C17.4522 13.2688 17.4082 13.2578 17.3612 13.2568C16.2941 13.2243 15.2313 13.4063 14.2359 13.7922C13.2405 14.1781 12.3327 14.76 11.5664 15.5033C10.8 16.2466 10.1908 17.1362 9.77469 18.1193C9.35861 19.1025 9.1442 20.1592 9.14416 21.2268V23.5038C9.14718 24.7872 9.45917 26.0509 10.0538 27.1882C10.6483 28.3255 11.508 29.3029 12.5602 30.0378V30.5848L9.43516 31.3638L3.75916 28.0558H0.0351562V51.6558L11.2352 55.3898H13.4172L13.6892 54.4358L17.1232 56.4968C17.1518 57.3959 17.5212 58.2504 18.1564 58.8873C18.7916 59.5242 19.6452 59.8958 20.5442 59.9268C20.5762 60.8226 20.9464 61.673 21.5802 62.3068C22.214 62.9406 23.0644 63.3108 23.9602 63.3428C23.9922 64.2386 24.3624 65.089 24.9962 65.7228C25.63 66.3566 26.4804 66.7268 27.3762 66.7588C27.3962 67.3934 27.5864 68.0109 27.927 68.5467C28.2676 69.0825 28.7459 69.5169 29.312 69.8044C29.8781 70.0918 30.511 70.2218 31.1446 70.1807C31.7781 70.1397 32.389 69.929 32.9132 69.5708L33.9222 70.4618C34.5552 71.0192 35.3697 71.3268 36.2132 71.3268H36.4242C37.3347 71.3253 38.2081 70.9657 38.8557 70.3256C39.5033 69.6855 39.8731 68.8163 39.8852 67.9058C40.7873 67.8934 41.649 67.5295 42.2869 66.8916C42.9249 66.2536 43.2887 65.3919 43.3012 64.4898C44.2038 64.4774 45.0659 64.1131 45.7039 63.4745C46.342 62.8359 46.7055 61.9734 46.7172 61.0708C47.6301 61.0494 48.4985 60.6721 49.1371 60.0193C49.7757 59.3665 50.1338 58.49 50.1352 57.5768C50.1353 57.4629 50.1296 57.3491 50.1182 57.2358L70.6352 46.9788V30.3328ZM59.2472 21.5098V23.5008C59.2439 24.4995 58.9791 25.4798 58.479 26.3443C57.979 27.2087 57.2612 27.9271 56.3972 28.4278L55.8282 28.7568V32.3568L61.5172 33.7778L48.9992 40.3728V37.3058C48.9966 35.8205 48.4109 34.3956 47.3682 33.3378L51.2762 32.3618V28.7548L50.7082 28.4258C49.8443 27.9255 49.1267 27.2075 48.627 26.3433C48.1272 25.4792 47.8628 24.4991 47.8602 23.5008V21.2268C47.8602 20.4643 48.0134 19.7096 48.3107 19.0074C48.608 18.3053 49.0433 17.67 49.5908 17.1393C50.1383 16.6086 50.7868 16.1933 51.4978 15.918C52.2089 15.6427 52.968 15.5131 53.7302 15.5368C55.2422 15.6318 56.6593 16.306 57.6869 17.4193C58.7145 18.5325 59.2733 19.999 59.2472 21.5138V21.5098ZM37.0472 39.4768L31.8972 37.8268C29.5356 37.0748 27.0172 36.9602 24.5972 37.4948L23.9442 37.6398V37.3028C23.9445 36.5408 24.1997 35.8007 24.6692 35.2006C25.1388 34.6004 25.7956 34.1745 26.5352 33.9908L33.0582 32.3608V28.7548L32.4902 28.4258C31.6263 27.9255 30.9087 27.2075 30.409 26.3433C29.9092 25.4792 29.6448 24.4991 29.6422 23.5008V21.2268C29.6422 20.4643 29.7954 19.7096 30.0927 19.0074C30.39 18.3053 30.8253 17.67 31.3728 17.1393C31.9203 16.6086 32.5688 16.1933 33.2798 15.918C33.9909 15.6427 34.75 15.5131 35.5122 15.5368C37.0242 15.6318 38.4413 16.306 39.4689 17.4193C40.4965 18.5325 41.0553 19.999 41.0292 21.5138V23.5048C41.0259 24.5035 40.7611 25.4838 40.261 26.3483C39.761 27.2127 39.0432 27.9311 38.1792 28.4318L37.6102 28.7608V32.3608L44.1312 33.9908C44.8705 34.1754 45.5268 34.602 45.9956 35.2028C46.4644 35.8035 46.7188 36.5438 46.7182 37.3058V41.5728L46.4372 41.7208H45.7372L38.7372 39.7208C38.1855 39.5732 37.6181 39.492 37.0472 39.4788V39.4768ZM24.2032 17.7698C25.251 15.7313 26.8384 14.0197 28.7924 12.8215C30.7463 11.6234 32.9917 10.9848 35.2837 10.9753C37.5757 10.9658 39.8263 11.5858 41.7901 12.7677C43.7539 13.9496 45.3555 15.6481 46.4202 17.6778C45.8693 18.7787 45.5828 19.9928 45.5832 21.2238V23.5008C45.5862 24.7842 45.8982 26.0479 46.4928 27.1852C47.0873 28.3225 47.947 29.2999 48.9992 30.0348V30.5818L44.4442 31.7218L39.8882 30.5818V30.0368C40.9402 29.3015 41.7998 28.3239 42.3946 27.1865C42.9893 26.0491 43.3016 24.7853 43.3052 23.5018V21.5098C43.3272 19.4041 42.5364 17.3709 41.0973 15.8335C39.6583 14.2961 37.6818 13.3728 35.5792 13.2558C34.5121 13.2233 33.4493 13.4054 32.454 13.7914C31.4586 14.1773 30.5509 14.7593 29.7847 15.5027C29.0185 16.2461 28.4095 17.1359 27.9937 18.1192C27.5779 19.1025 27.3638 20.1592 27.3642 21.2268V23.5038C27.3672 24.7872 27.6792 26.0509 28.2738 27.1882C28.8683 28.3255 29.728 29.3029 30.7802 30.0378V30.5848L26.2252 31.7248L21.6692 30.5848V30.0398C22.7212 29.3045 23.5808 28.3269 24.1756 27.1895C24.7703 26.0521 25.0826 24.7883 25.0862 23.5048V21.5098C25.0852 20.2113 24.7829 18.9307 24.2032 17.7688V17.7698ZM18.9662 10.8828L22.6042 7.24481L25.8042 9.32881L26.4172 8.95281C27.9428 8.0156 29.607 7.32541 31.3482 6.90781L32.0482 6.73981L32.8402 3.00381H37.8262L38.6162 6.73881L39.3162 6.90581C41.0573 7.324 42.7214 8.0145 44.2472 8.95181L44.8602 9.32781L48.0602 7.24381L51.6942 10.8788L50.4022 13.9028C49.5114 14.2855 48.698 14.8277 48.0022 15.5028C47.9552 15.5488 47.9152 15.5978 47.8702 15.6438C46.5369 13.5129 44.6824 11.757 42.4819 10.5419C40.2814 9.32688 37.8074 8.69283 35.2938 8.69963C32.7801 8.70644 30.3096 9.35388 28.1157 10.5808C25.9218 11.8078 24.0769 13.5737 22.7552 15.7118C22.0409 14.9602 21.1879 14.3541 20.2432 13.9268L18.9662 10.8828ZM14.8352 32.3608V28.7548L14.2672 28.4258C13.4033 27.9255 12.6857 27.2075 12.186 26.3433C11.6862 25.4792 11.4218 24.4991 11.4192 23.5008V21.2268C11.4192 20.4643 11.5724 19.7096 11.8697 19.0074C12.167 18.3053 12.6023 17.67 13.1498 17.1393C13.6973 16.6086 14.3458 16.1933 15.0568 15.918C15.7679 15.6427 16.527 15.5131 17.2892 15.5368C18.8012 15.6318 20.2183 16.306 21.2459 17.4193C22.2735 18.5325 22.8323 19.999 22.8062 21.5138V23.5048C22.8029 24.5035 22.5381 25.4838 22.038 26.3483C21.538 27.2127 20.8202 27.9311 19.9562 28.4318L19.3872 28.7608V32.3608L23.2942 33.3368C22.2514 34.3946 21.6657 35.8195 21.6632 37.3048V38.1478L18.1112 38.9378L18.2032 38.6158L18.2462 36.5158L12.2412 33.0158L14.8352 32.3608ZM2.31216 30.3328H3.14216L11.3352 35.1098L7.19916 51.6378L2.31216 50.0078V30.3328ZM11.6062 53.1068L9.36516 52.3608L13.3792 36.3048L15.9792 37.8198V38.1448L11.7022 53.1068H11.6062ZM19.3922 56.3848C19.3938 56.0473 19.5281 55.7241 19.7662 55.4848L21.7662 53.4848C21.8847 53.3662 22.0255 53.2722 22.1805 53.208C22.3354 53.1438 22.5015 53.1108 22.6692 53.1108C22.8369 53.1108 23.0029 53.1438 23.1579 53.208C23.3128 53.2722 23.4536 53.3662 23.5722 53.4848C23.6907 53.6034 23.7848 53.7442 23.849 53.8991C23.9132 54.054 23.9462 54.2201 23.9462 54.3878C23.9462 54.5555 23.9132 54.7216 23.849 54.8765C23.7848 55.0314 23.6907 55.1722 23.5722 55.2908L21.5722 57.2908C21.3937 57.4692 21.1665 57.5908 20.919 57.6402C20.6716 57.6895 20.4151 57.6645 20.1818 57.5682C19.9486 57.4719 19.7491 57.3087 19.6086 57.0992C19.4681 56.8896 19.3927 56.6431 19.3922 56.3908V56.3848ZM22.8082 59.8008C22.8098 59.4633 22.9441 59.1401 23.1822 58.9008L25.1822 56.9008C25.4216 56.6613 25.7465 56.5268 26.0852 56.5268C26.4238 56.5268 26.7487 56.6613 26.9882 56.9008C27.2276 57.1403 27.3622 57.4651 27.3622 57.8038C27.3622 58.1425 27.2276 58.4673 26.9882 58.7068L24.9882 60.7068C24.8097 60.8852 24.5825 61.0068 24.335 61.0562C24.0876 61.1055 23.8311 61.0805 23.5978 60.9842C23.3646 60.8879 23.1651 60.7247 23.0246 60.5152C22.8841 60.3056 22.8087 60.0591 22.8082 59.8068V59.8008ZM26.2242 63.2168C26.2258 62.8793 26.3601 62.5561 26.5982 62.3168L28.5982 60.3168C28.8376 60.0773 29.1625 59.9428 29.5012 59.9428C29.8398 59.9428 30.1647 60.0773 30.4042 60.3168C30.6436 60.5563 30.7782 60.8811 30.7782 61.2198C30.7782 61.5585 30.6436 61.8833 30.4042 62.1228L28.4042 64.1228C28.2257 64.3012 27.9985 64.4228 27.751 64.4722C27.5036 64.5215 27.2471 64.4965 27.0138 64.4002C26.7806 64.3039 26.5811 64.1407 26.4406 63.9312C26.3001 63.7216 26.2247 63.4751 26.2242 63.2228V63.2168ZM30.9172 67.9098C30.6648 67.9092 30.4183 67.8339 30.2088 67.6934C29.9992 67.5528 29.836 67.3533 29.7397 67.1201C29.6435 66.8869 29.6184 66.6304 29.6678 66.3829C29.7172 66.1355 29.8387 65.9082 30.0172 65.7298L32.0172 63.7298C32.2566 63.4903 32.5815 63.3558 32.9202 63.3558C33.2588 63.3558 33.5837 63.4903 33.8232 63.7298C34.0626 63.9693 34.1972 64.2941 34.1972 64.6328C34.1972 64.9715 34.0626 65.2963 33.8232 65.5358L31.8232 67.5358C31.5827 67.775 31.2574 67.9095 30.9182 67.9098H30.9172ZM36.4242 69.0488H36.2132C35.9235 69.0485 35.6441 68.9418 35.4282 68.7488L34.5762 67.9978L35.4312 67.1428C35.7324 66.8366 35.9753 66.4781 36.1482 66.0848L37.1832 66.9468C37.3705 67.1032 37.5051 67.3135 37.5688 67.5491C37.6324 67.7847 37.6219 68.0341 37.5388 68.2636C37.4556 68.493 37.3038 68.6913 37.1041 68.8314C36.9043 68.9715 36.6662 69.0467 36.4222 69.0468L36.4242 69.0488ZM46.6352 58.8008H46.4352C46.1488 58.8005 45.8717 58.6996 45.6522 58.5158L39.4772 53.3698L38.0182 55.1198L44.0182 60.1198C44.2056 60.2762 44.3402 60.4866 44.4038 60.7223C44.4674 60.958 44.4569 61.2076 44.3736 61.437C44.2903 61.6665 44.1384 61.8648 43.9384 62.0048C43.7385 62.1449 43.5003 62.2199 43.2562 62.2198H43.0072C42.7293 62.2195 42.4604 62.1218 42.2472 61.9438L36.0622 56.7898L34.6032 58.5398L40.6032 63.5398C40.7911 63.6959 40.9262 63.9062 40.9902 64.142C41.0542 64.3778 41.0438 64.6275 40.9606 64.8572C40.8774 65.0869 40.7253 65.2853 40.5251 65.4254C40.325 65.5654 40.0865 65.6403 39.8422 65.6398C39.4038 65.6394 38.9794 65.4859 38.6422 65.2058L36.1002 63.0878C35.819 62.51 35.386 62.0196 34.8475 61.669C34.309 61.3185 33.6853 61.121 33.0432 61.0978C33.0111 60.202 32.6409 59.3517 32.0071 58.7178C31.3733 58.084 30.5229 57.7139 29.6272 57.6818C29.5951 56.786 29.2249 55.9357 28.5911 55.3018C27.9573 54.668 27.1069 54.2979 26.2112 54.2658C26.1882 53.5747 25.9636 52.9054 25.5652 52.3403C25.1667 51.7751 24.6117 51.3388 23.9685 51.0851C23.3252 50.8313 22.6218 50.7711 21.9448 50.912C21.2678 51.0528 20.6468 51.3885 20.1582 51.8778L18.1582 53.8778C18.0426 54 17.936 54.1303 17.8392 54.2678L14.3392 52.1678L17.4062 41.4268L25.0932 39.7178C27.1181 39.2681 29.226 39.3633 31.2022 39.9938L32.8792 40.5308L27.1922 43.3738C26.5577 43.6895 26.0243 44.1763 25.6519 44.7792C25.2796 45.3822 25.0833 46.0772 25.0852 46.7858V47.0108C25.0849 47.6859 25.2638 48.349 25.6037 48.9323C25.9436 49.5157 26.4323 49.9982 27.0199 50.3308C27.6074 50.6634 28.2727 50.834 28.9478 50.8252C29.6228 50.8164 30.2835 50.6286 30.8622 50.2808L35.1022 47.7378C35.5276 47.4902 36.02 47.3824 36.51 47.4296C37 47.4768 37.4628 47.6766 37.8332 48.0008L47.4542 56.6598C47.6379 56.8257 47.7672 57.0434 47.8249 57.2842C47.8825 57.525 47.866 57.7776 47.7773 58.0087C47.6887 58.2399 47.5321 58.4388 47.3283 58.5793C47.1244 58.7198 46.8827 58.7953 46.6352 58.7958V58.8008ZM68.3562 45.5708L49.1732 55.1638C49.1112 55.0978 49.0462 55.0348 48.9732 54.9738L39.3542 46.3148C38.6251 45.6575 37.7043 45.2518 36.7272 45.1572C35.7502 45.0627 34.7687 45.2845 33.9272 45.7898L29.6852 48.3338C29.452 48.4734 29.1859 48.5487 28.9141 48.5518C28.6424 48.555 28.3746 48.486 28.1382 48.3519C27.9018 48.2178 27.7053 48.0234 27.5686 47.7885C27.4319 47.5536 27.36 47.2866 27.3602 47.0148V46.7898C27.3593 46.5042 27.4385 46.2241 27.5887 45.9813C27.7389 45.7384 27.9542 45.5425 28.2102 45.4158L34.5622 42.2398C35.6632 41.6932 36.9284 41.5759 38.1112 41.9108L45.2672 43.9548L47.0002 43.9978L68.3572 32.7588L68.3562 45.5708Z" fill="white"/>
</svg>
