<svg width="71" height="72" viewBox="0 0 71 72" fill="none" xmlns="http://www.w3.org/2000/svg">
<path d="M70.6352 30.3069H68.0762L64.2622 32.3139C63.8359 32.0698 63.3798 31.8823 62.9052 31.7559L58.1052 30.5559V30.0109C59.1572 29.2756 60.0168 28.298 60.6116 27.1606C61.2063 26.0232 61.5186 24.7594 61.5222 23.4759V21.4839C61.5442 19.3782 60.7534 17.3451 59.3143 15.8076C57.8752 14.2702 55.8988 13.3469 53.7962 13.2299C53.5802 13.2239 53.3672 13.2299 53.1532 13.2429L54.3992 10.3309L48.3692 4.30093L44.8152 6.61593C43.4705 5.85794 42.0395 5.26435 40.5532 4.84793L39.6742 0.700928H30.9962L30.1182 4.84893C28.6317 5.26515 27.2008 5.85875 25.8562 6.61693L22.3012 4.30093L16.2762 10.3289L17.4992 13.2429C17.4522 13.2429 17.4082 13.2319 17.3612 13.2309C16.2941 13.1984 15.2313 13.3805 14.2359 13.7664C13.2405 14.1522 12.3327 14.7341 11.5664 15.4774C10.8 16.2207 10.1908 17.1103 9.77469 18.0935C9.35861 19.0766 9.1442 20.1333 9.14416 21.2009V23.4779C9.14718 24.7613 9.45917 26.025 10.0538 27.1623C10.6483 28.2996 11.508 29.2771 12.5602 30.0119V30.5589L9.43516 31.3379L3.75916 28.0299H0.0351562V51.6299L11.2352 55.3639H13.4172L13.6892 54.4099L17.1232 56.4709C17.1518 57.37 17.5212 58.2245 18.1564 58.8614C18.7916 59.4983 19.6452 59.8699 20.5442 59.9009C20.5762 60.7967 20.9464 61.6471 21.5802 62.2809C22.214 62.9147 23.0644 63.2849 23.9602 63.3169C23.9922 64.2127 24.3624 65.0631 24.9962 65.6969C25.63 66.3307 26.4804 66.7009 27.3762 66.7329C27.3962 67.3675 27.5864 67.985 27.927 68.5208C28.2676 69.0566 28.7459 69.491 29.312 69.7785C29.8781 70.066 30.511 70.196 31.1446 70.1549C31.7781 70.1138 32.389 69.9031 32.9132 69.5449L33.9222 70.4359C34.5552 70.9933 35.3697 71.3009 36.2132 71.3009H36.4242C37.3347 71.2994 38.2081 70.9398 38.8557 70.2997C39.5033 69.6596 39.8731 68.7904 39.8852 67.8799C40.7873 67.8675 41.649 67.5036 42.2869 66.8657C42.9249 66.2277 43.2887 65.366 43.3012 64.4639C44.2038 64.4515 45.0659 64.0872 45.7039 63.4486C46.342 62.81 46.7055 61.9476 46.7172 61.0449C47.6301 61.0235 48.4985 60.6462 49.1371 59.9934C49.7757 59.3406 50.1338 58.4641 50.1352 57.5509C50.1353 57.437 50.1296 57.3232 50.1182 57.2099L70.6352 46.9529V30.3069ZM59.2472 21.4839V23.4749C59.2439 24.4736 58.9791 25.4539 58.479 26.3184C57.979 27.1828 57.2612 27.9012 56.3972 28.4019L55.8282 28.7309V32.3309L61.5172 33.7519L48.9992 40.3469V37.2799C48.9966 35.7946 48.4109 34.3697 47.3682 33.3119L51.2762 32.3359V28.7289L50.7082 28.3999C49.8443 27.8997 49.1267 27.1816 48.627 26.3175C48.1272 25.4533 47.8628 24.4732 47.8602 23.4749V21.2009C47.8602 20.4384 48.0134 19.6837 48.3107 18.9816C48.608 18.2794 49.0433 17.6441 49.5908 17.1134C50.1383 16.5827 50.7868 16.1674 51.4978 15.8921C52.2089 15.6169 52.968 15.4872 53.7302 15.5109C55.2422 15.6059 56.6593 16.2802 57.6869 17.3934C58.7145 18.5066 59.2733 19.9732 59.2472 21.4879V21.4839ZM37.0472 39.4509L31.8972 37.8009C29.5356 37.0489 27.0172 36.9344 24.5972 37.4689L23.9442 37.6139V37.2769C23.9445 36.5149 24.1997 35.7749 24.6692 35.1747C25.1388 34.5745 25.7956 34.1486 26.5352 33.9649L33.0582 32.3349V28.7289L32.4902 28.3999C31.6263 27.8997 30.9087 27.1816 30.409 26.3175C29.9092 25.4533 29.6448 24.4732 29.6422 23.4749V21.2009C29.6422 20.4384 29.7954 19.6837 30.0927 18.9816C30.39 18.2794 30.8253 17.6441 31.3728 17.1134C31.9203 16.5827 32.5688 16.1674 33.2798 15.8921C33.9909 15.6169 34.75 15.4872 35.5122 15.5109C37.0242 15.6059 38.4413 16.2802 39.4689 17.3934C40.4965 18.5066 41.0553 19.9732 41.0292 21.4879V23.4789C41.0259 24.4776 40.7611 25.4579 40.261 26.3224C39.761 27.1868 39.0432 27.9052 38.1792 28.4059L37.6102 28.7349V32.3349L44.1312 33.9649C44.8705 34.1495 45.5268 34.5761 45.9956 35.1769C46.4644 35.7776 46.7188 36.5179 46.7182 37.2799V41.5469L46.4372 41.6949H45.7372L38.7372 39.6949C38.1855 39.5473 37.6181 39.4661 37.0472 39.4529V39.4509ZM24.2032 17.7439C25.251 15.7054 26.8384 13.9938 28.7924 12.7957C30.7463 11.5975 32.9917 10.9589 35.2837 10.9494C37.5757 10.9399 39.8263 11.5599 41.7901 12.7418C43.7539 13.9237 45.3555 15.6222 46.4202 17.6519C45.8693 18.7528 45.5828 19.9669 45.5832 21.1979V23.4749C45.5862 24.7583 45.8982 26.022 46.4928 27.1593C47.0873 28.2966 47.947 29.2741 48.9992 30.0089V30.5559L44.4442 31.6959L39.8882 30.5559V30.0109C40.9402 29.2756 41.7998 28.298 42.3946 27.1606C42.9893 26.0232 43.3016 24.7594 43.3052 23.4759V21.4839C43.3272 19.3782 42.5364 17.3451 41.0973 15.8076C39.6583 14.2702 37.6818 13.3469 35.5792 13.2299C34.5121 13.1974 33.4493 13.3795 32.454 13.7655C31.4586 14.1514 30.5509 14.7334 29.7847 15.4768C29.0185 16.2203 28.4095 17.11 27.9937 18.0933C27.5779 19.0766 27.3638 20.1333 27.3642 21.2009V23.4779C27.3672 24.7613 27.6792 26.025 28.2738 27.1623C28.8683 28.2996 29.728 29.2771 30.7802 30.0119V30.5589L26.2252 31.6989L21.6692 30.5589V30.0139C22.7212 29.2786 23.5808 28.301 24.1756 27.1636C24.7703 26.0262 25.0826 24.7624 25.0862 23.4789V21.4839C25.0852 20.1854 24.7829 18.9048 24.2032 17.7429V17.7439ZM18.9662 10.8569L22.6042 7.21893L25.8042 9.30293L26.4172 8.92693C27.9428 7.98972 29.607 7.29954 31.3482 6.88193L32.0482 6.71393L32.8402 2.97793H37.8262L38.6162 6.71293L39.3162 6.87993C41.0573 7.29812 42.7214 7.98862 44.2472 8.92593L44.8602 9.30193L48.0602 7.21793L51.6942 10.8529L50.4022 13.8769C49.5114 14.2596 48.698 14.8019 48.0022 15.4769C47.9552 15.5229 47.9152 15.5719 47.8702 15.6179C46.5369 13.487 44.6824 11.7311 42.4819 10.516C40.2814 9.301 37.8074 8.66695 35.2938 8.67375C32.7801 8.68056 30.3096 9.328 28.1157 10.5549C25.9218 11.7819 24.0769 13.5478 22.7552 15.6859C22.0409 14.9344 21.1879 14.3282 20.2432 13.9009L18.9662 10.8569ZM14.8352 32.3349V28.7289L14.2672 28.3999C13.4033 27.8997 12.6857 27.1816 12.186 26.3175C11.6862 25.4533 11.4218 24.4732 11.4192 23.4749V21.2009C11.4192 20.4384 11.5724 19.6837 11.8697 18.9816C12.167 18.2794 12.6023 17.6441 13.1498 17.1134C13.6973 16.5827 14.3458 16.1674 15.0568 15.8921C15.7679 15.6169 16.527 15.4872 17.2892 15.5109C18.8012 15.6059 20.2183 16.2802 21.2459 17.3934C22.2735 18.5066 22.8323 19.9732 22.8062 21.4879V23.4789C22.8029 24.4776 22.5381 25.4579 22.038 26.3224C21.538 27.1868 20.8202 27.9052 19.9562 28.4059L19.3872 28.7349V32.3349L23.2942 33.3109C22.2514 34.3687 21.6657 35.7936 21.6632 37.2789V38.1219L18.1112 38.9119L18.2032 38.5899L18.2462 36.4899L12.2412 32.9899L14.8352 32.3349ZM2.31216 30.3069H3.14216L11.3352 35.0839L7.19916 51.6119L2.31216 49.9819V30.3069ZM11.6062 53.0809L9.36516 52.3349L13.3792 36.2789L15.9792 37.7939V38.1189L11.7022 53.0809H11.6062ZM19.3922 56.3589C19.3938 56.0215 19.5281 55.6982 19.7662 55.4589L21.7662 53.4589C21.8847 53.3403 22.0255 53.2463 22.1805 53.1821C22.3354 53.1179 22.5015 53.0849 22.6692 53.0849C22.8369 53.0849 23.0029 53.1179 23.1579 53.1821C23.3128 53.2463 23.4536 53.3403 23.5722 53.4589C23.6907 53.5775 23.7848 53.7183 23.849 53.8732C23.9132 54.0282 23.9462 54.1942 23.9462 54.3619C23.9462 54.5296 23.9132 54.6957 23.849 54.8506C23.7848 55.0056 23.6907 55.1463 23.5722 55.2649L21.5722 57.2649C21.3937 57.4433 21.1665 57.5649 20.919 57.6143C20.6716 57.6637 20.4151 57.6386 20.1818 57.5423C19.9486 57.4461 19.7491 57.2828 19.6086 57.0733C19.4681 56.8637 19.3927 56.6172 19.3922 56.3649V56.3589ZM22.8082 59.7749C22.8098 59.4375 22.9441 59.1142 23.1822 58.8749L25.1822 56.8749C25.4216 56.6354 25.7465 56.5009 26.0852 56.5009C26.4238 56.5009 26.7487 56.6354 26.9882 56.8749C27.2276 57.1144 27.3622 57.4392 27.3622 57.7779C27.3622 58.1166 27.2276 58.4414 26.9882 58.6809L24.9882 60.6809C24.8097 60.8593 24.5825 60.9809 24.335 61.0303C24.0876 61.0797 23.8311 61.0546 23.5978 60.9583C23.3646 60.8621 23.1651 60.6988 23.0246 60.4893C22.8841 60.2797 22.8087 60.0332 22.8082 59.7809V59.7749ZM26.2242 63.1909C26.2258 62.8535 26.3601 62.5302 26.5982 62.2909L28.5982 60.2909C28.8376 60.0514 29.1625 59.9169 29.5012 59.9169C29.8398 59.9169 30.1647 60.0514 30.4042 60.2909C30.6436 60.5304 30.7782 60.8552 30.7782 61.1939C30.7782 61.5326 30.6436 61.8574 30.4042 62.0969L28.4042 64.0969C28.2257 64.2753 27.9985 64.3969 27.751 64.4463C27.5036 64.4957 27.2471 64.4706 27.0138 64.3743C26.7806 64.2781 26.5811 64.1148 26.4406 63.9053C26.3001 63.6957 26.2247 63.4492 26.2242 63.1969V63.1909ZM30.9172 67.8839C30.6648 67.8833 30.4183 67.808 30.2088 67.6675C29.9992 67.5269 29.836 67.3275 29.7397 67.0942C29.6435 66.861 29.6184 66.6045 29.6678 66.357C29.7172 66.1096 29.8387 65.8823 30.0172 65.7039L32.0172 63.7039C32.2566 63.4644 32.5815 63.3299 32.9202 63.3299C33.2588 63.3299 33.5837 63.4644 33.8232 63.7039C34.0626 63.9434 34.1972 64.2682 34.1972 64.6069C34.1972 64.9456 34.0626 65.2704 33.8232 65.5099L31.8232 67.5099C31.5827 67.7492 31.2574 67.8836 30.9182 67.8839H30.9172ZM36.4242 69.0229H36.2132C35.9235 69.0226 35.6441 68.9159 35.4282 68.7229L34.5762 67.9719L35.4312 67.1169C35.7324 66.8107 35.9753 66.4522 36.1482 66.0589L37.1832 66.9209C37.3705 67.0773 37.5051 67.2876 37.5688 67.5232C37.6324 67.7588 37.6219 68.0082 37.5388 68.2377C37.4556 68.4671 37.3038 68.6654 37.1041 68.8055C36.9043 68.9456 36.6662 69.0209 36.4222 69.0209L36.4242 69.0229ZM46.6352 58.7749H46.4352C46.1488 58.7746 45.8717 58.6737 45.6522 58.4899L39.4772 53.3439L38.0182 55.0939L44.0182 60.0939C44.2056 60.2504 44.3402 60.4607 44.4038 60.6964C44.4674 60.9321 44.4569 61.1817 44.3736 61.4112C44.2903 61.6406 44.1384 61.8389 43.9384 61.9789C43.7385 62.119 43.5003 62.1941 43.2562 62.1939H43.0072C42.7293 62.1936 42.4604 62.096 42.2472 61.9179L36.0622 56.7639L34.6032 58.5139L40.6032 63.5139C40.7911 63.67 40.9262 63.8803 40.9902 64.1161C41.0542 64.3519 41.0438 64.6017 40.9606 64.8313C40.8774 65.061 40.7253 65.2594 40.5251 65.3995C40.325 65.5395 40.0865 65.6144 39.8422 65.6139C39.4038 65.6135 38.9794 65.46 38.6422 65.1799L36.1002 63.0619C35.819 62.4841 35.386 61.9937 34.8475 61.6432C34.309 61.2926 33.6853 61.0951 33.0432 61.0719C33.0111 60.1762 32.6409 59.3258 32.0071 58.692C31.3733 58.0582 30.5229 57.688 29.6272 57.6559C29.5951 56.7602 29.2249 55.9098 28.5911 55.276C27.9573 54.6422 27.1069 54.272 26.2112 54.2399C26.1882 53.5488 25.9636 52.8795 25.5652 52.3144C25.1667 51.7493 24.6117 51.313 23.9685 51.0592C23.3252 50.8054 22.6218 50.7453 21.9448 50.8861C21.2678 51.027 20.6468 51.3627 20.1582 51.8519L18.1582 53.8519C18.0426 53.9741 17.936 54.1045 17.8392 54.2419L14.3392 52.1419L17.4062 41.4009L25.0932 39.6919C27.1181 39.2422 29.226 39.3375 31.2022 39.9679L32.8792 40.5049L27.1922 43.3479C26.5577 43.6636 26.0243 44.1504 25.6519 44.7534C25.2796 45.3563 25.0833 46.0513 25.0852 46.7599V46.9849C25.0849 47.6601 25.2638 48.3232 25.6037 48.9065C25.9436 49.4898 26.4323 49.9724 27.0199 50.3049C27.6074 50.6375 28.2727 50.8081 28.9478 50.7993C29.6228 50.7905 30.2835 50.6027 30.8622 50.2549L35.1022 47.7119C35.5276 47.4643 36.02 47.3565 36.51 47.4037C37 47.4509 37.4628 47.6507 37.8332 47.9749L47.4542 56.6339C47.6379 56.7998 47.7672 57.0175 47.8249 57.2583C47.8825 57.4991 47.866 57.7517 47.7773 57.9829C47.6887 58.214 47.5321 58.413 47.3283 58.5534C47.1244 58.6939 46.8827 58.7694 46.6352 58.7699V58.7749ZM68.3562 45.5449L49.1732 55.1379C49.1112 55.0719 49.0462 55.0089 48.9732 54.9479L39.3542 46.2889C38.6251 45.6317 37.7043 45.2259 36.7272 45.1314C35.7502 45.0369 34.7687 45.2586 33.9272 45.7639L29.6852 48.3079C29.452 48.4475 29.1859 48.5228 28.9141 48.526C28.6424 48.5291 28.3746 48.4602 28.1382 48.326C27.9018 48.1919 27.7053 47.9975 27.5686 47.7626C27.4319 47.5277 27.36 47.2607 27.3602 46.9889V46.7639C27.3593 46.4784 27.4385 46.1983 27.5887 45.9554C27.7389 45.7125 27.9542 45.5166 28.2102 45.3899L34.5622 42.2139C35.6632 41.6673 36.9284 41.55 38.1112 41.8849L45.2672 43.9289L47.0002 43.9719L68.3572 32.7329L68.3562 45.5449Z" fill="#0F172A"/>
</svg>
